<svg width="246" height="232" viewBox="0 0 246 232" fill="none" xmlns="http://www.w3.org/2000/svg">
<g clip-path="url(#clip0_38_6659)">
<path d="M227.403 177.487L238.439 179.226C242.174 174.665 244.75 169.254 245.941 163.462C237.871 170.123 225.599 166.583 215.815 170.22C212.771 171.377 210.026 173.211 207.781 175.584C205.536 177.957 203.849 180.809 202.846 183.929L197.453 189.78C202.335 191.729 207.578 192.587 212.82 192.296C218.063 192.005 223.181 190.572 227.821 188.094C230.411 186.678 232.813 184.939 234.972 182.918C231.11 180.466 227.403 177.487 227.403 177.487Z" fill="#F2F2F2"/>
<path d="M223.485 159.69L234.132 156.284C235.458 150.522 235.37 144.52 233.874 138.801C229.598 148.391 217.049 150.742 209.899 158.397C207.687 160.801 206.041 163.677 205.081 166.811C204.121 169.945 203.873 173.256 204.355 176.499L202.116 184.162C207.347 183.71 212.42 182.121 216.983 179.503C221.547 176.885 225.494 173.3 228.551 168.996C230.243 166.564 231.624 163.927 232.662 161.147C228.122 160.689 223.485 159.69 223.485 159.69Z" fill="#F2F2F2"/>
<path d="M246 193.324C246 193.382 245.989 193.439 245.967 193.492C245.946 193.545 245.914 193.593 245.873 193.634C245.833 193.674 245.785 193.707 245.733 193.728C245.68 193.75 245.624 193.761 245.567 193.761H0.43326C0.318352 193.761 0.20815 193.715 0.126898 193.633C0.0456462 193.551 0 193.44 0 193.324C0 193.209 0.0456462 193.097 0.126898 193.016C0.20815 192.934 0.318352 192.888 0.43326 192.888H245.567C245.624 192.887 245.68 192.899 245.733 192.92C245.785 192.942 245.833 192.975 245.873 193.015C245.914 193.056 245.946 193.104 245.967 193.157C245.989 193.21 246 193.267 246 193.324Z" fill="#CCCCCC"/>
<path d="M101.578 174.7C144.81 174.7 179.856 139.361 179.856 95.7689C179.856 52.1767 144.81 16.8383 101.578 16.8383C58.3465 16.8383 23.3003 52.1767 23.3003 95.7689C23.3003 139.361 58.3465 174.7 101.578 174.7Z" fill="#E6E6E6"/>
<path d="M168.934 95.769C168.942 106.367 166.487 116.819 161.766 126.287C157.044 135.755 150.188 143.976 141.748 150.29C141.183 150.716 140.608 151.131 140.029 151.534C128.742 159.446 115.325 163.686 101.578 163.686C87.8322 163.686 74.4149 159.446 63.1277 151.534C62.5488 151.131 61.9735 150.716 61.4092 150.29C52.9743 143.97 46.1227 135.748 41.4022 126.281C36.6817 116.814 34.2231 106.365 34.2231 95.769C34.2231 85.1728 36.6817 74.7236 41.4022 65.2567C46.1227 55.7898 52.9743 47.5678 61.4092 41.2481C61.9735 40.8222 62.5488 40.4074 63.1277 40.0035C74.4149 32.0922 87.8322 27.8519 101.578 27.8519C115.325 27.8519 128.742 32.0922 140.029 40.0035C140.608 40.4074 141.183 40.8222 141.748 41.2481C150.188 47.5623 157.044 55.7831 161.766 65.2513C166.487 74.7194 168.942 85.1714 168.934 95.769Z" fill="white"/>
<path d="M101.578 157.812C135.56 157.812 163.108 130.034 163.108 95.769C163.108 61.5035 135.56 33.7258 101.578 33.7258C67.5963 33.7258 40.0483 61.5035 40.0483 95.769C40.0483 130.034 67.5963 157.812 101.578 157.812Z" fill="#008163"/>
<path opacity="0.2" d="M101.739 33.8992C100.806 33.8992 99.8792 33.9238 98.9566 33.9652C114.508 35.3431 128.958 42.6303 139.38 54.3503C149.802 66.0704 155.416 81.3469 155.085 97.0848C154.754 112.823 148.502 127.845 137.596 139.109C126.69 150.372 111.946 157.035 96.3511 157.746C98.127 157.901 99.9232 157.986 101.739 157.986C118.058 157.986 133.708 151.449 145.247 139.814C156.786 128.178 163.269 112.397 163.269 95.9424C163.269 79.4875 156.786 63.7066 145.247 52.0712C133.708 40.4359 118.058 33.8992 101.739 33.8992Z" fill="black"/>
<path d="M101.76 29.3203C101.229 29.3213 100.721 29.5343 100.345 29.9127C99.97 30.2912 99.7587 30.8042 99.7578 31.3395V40.1503C99.7578 40.6859 99.9688 41.1994 100.344 41.5781C100.72 41.9568 101.229 42.1695 101.76 42.1695C102.291 42.1695 102.801 41.9568 103.176 41.5781C103.552 41.1994 103.763 40.6859 103.763 40.1503V31.3395C103.762 30.8042 103.551 30.2912 103.175 29.9127C102.8 29.5343 102.291 29.3213 101.76 29.3203Z" fill="white"/>
<path d="M141.747 41.248C141.183 40.8222 140.608 40.4073 140.029 40.0035C139.682 39.9806 139.334 40.0496 139.022 40.2034C138.709 40.3573 138.441 40.5908 138.245 40.8809L133.326 48.1609C133.027 48.6034 132.915 49.1475 133.014 49.6735C133.113 50.1995 133.415 50.6643 133.854 50.9657C134.293 51.267 134.833 51.3802 135.354 51.2804C135.876 51.1806 136.337 50.8759 136.636 50.4333L141.555 43.1534C141.742 42.8772 141.857 42.5582 141.891 42.2254C141.925 41.8926 141.875 41.5566 141.747 41.248Z" fill="white"/>
<path d="M164.095 74.443C163.996 74.1975 163.85 73.9741 163.666 73.7855C163.481 73.597 163.262 73.4469 163.019 73.3439C162.777 73.241 162.517 73.1871 162.255 73.1855C161.992 73.1838 161.732 73.2344 161.488 73.3342L153.391 76.6493C152.899 76.8512 152.508 77.2416 152.301 77.7347C152.095 78.2278 152.092 78.7833 152.291 79.2791C152.491 79.7748 152.878 80.1704 153.367 80.3787C153.856 80.5871 154.406 80.5913 154.898 80.3903L162.995 77.0752C163.487 76.8723 163.878 76.4814 164.084 75.988C164.29 75.4947 164.294 74.9391 164.095 74.443Z" fill="white"/>
<path d="M69.8305 48.1609L64.9117 40.8809C64.7157 40.5908 64.4481 40.3573 64.1352 40.2034C63.8223 40.0496 63.4751 39.9806 63.1277 40.0035C62.5488 40.4073 61.9736 40.8222 61.4093 41.248C61.2813 41.5566 61.232 41.8926 61.2657 42.2254C61.2994 42.5582 61.4151 42.8772 61.6022 43.1534L66.521 50.4333C66.8198 50.8759 67.2808 51.1806 67.8024 51.2804C68.3241 51.3802 68.8637 51.267 69.3026 50.9657C69.7414 50.6643 70.0436 50.1995 70.1426 49.6735C70.2416 49.1475 70.1293 48.6034 69.8305 48.1609Z" fill="white"/>
<path d="M49.7659 76.6493L41.6686 73.3343C41.1767 73.1328 40.6255 73.1367 40.1364 73.345C39.6473 73.5532 39.2602 73.9489 39.0603 74.4449C38.8605 74.9409 38.8642 75.4967 39.0707 75.9899C39.2771 76.4832 39.6695 76.8736 40.1613 77.0752L48.2585 80.3903C48.7504 80.5912 49.3013 80.5871 49.7901 80.3787C50.279 80.1704 50.6657 79.7748 50.8655 79.279C51.0653 78.7832 51.0617 78.2278 50.8555 77.7347C50.6493 77.2416 50.2574 76.8512 49.7659 76.6493Z" fill="white"/>
<path d="M101.76 149.368C101.229 149.369 100.721 149.582 100.345 149.961C99.97 150.339 99.7587 150.852 99.7578 151.388V160.198C99.7578 160.734 99.9688 161.248 100.344 161.626C100.72 162.005 101.229 162.218 101.76 162.218C102.291 162.218 102.801 162.005 103.176 161.626C103.552 161.248 103.763 160.734 103.763 160.198V151.388C103.762 150.852 103.551 150.339 103.175 149.961C102.8 149.582 102.291 149.369 101.76 149.368Z" fill="white"/>
<path d="M141.555 148.384L136.636 141.105C136.488 140.885 136.298 140.698 136.079 140.552C135.859 140.407 135.613 140.307 135.354 140.257C135.096 140.208 134.831 140.21 134.573 140.264C134.316 140.318 134.071 140.423 133.854 140.572C133.637 140.721 133.451 140.912 133.307 141.134C133.163 141.356 133.063 141.604 133.014 141.864C132.965 142.125 132.967 142.392 133.021 142.652C133.075 142.911 133.178 143.158 133.326 143.377L138.245 150.657C138.441 150.947 138.709 151.181 139.022 151.334C139.334 151.488 139.682 151.557 140.029 151.534C140.608 151.131 141.183 150.716 141.747 150.29C141.875 149.981 141.925 149.645 141.891 149.312C141.857 148.98 141.742 148.661 141.555 148.384Z" fill="white"/>
<path d="M162.995 114.463L154.898 111.148C154.406 110.946 153.855 110.95 153.366 111.158C152.877 111.367 152.49 111.762 152.29 112.258C152.09 112.754 152.094 113.31 152.3 113.803C152.507 114.296 152.899 114.687 153.391 114.888L161.488 118.204C161.98 118.405 162.531 118.4 163.02 118.192C163.508 117.984 163.895 117.588 164.095 117.092C164.295 116.597 164.291 116.041 164.085 115.548C163.879 115.055 163.487 114.665 162.995 114.463Z" fill="white"/>
<path d="M69.3025 140.572C68.8636 140.271 68.3241 140.158 67.8025 140.258C67.2809 140.357 66.8199 140.662 66.521 141.105L61.6022 148.384C61.4151 148.661 61.2994 148.98 61.2657 149.312C61.232 149.645 61.2813 149.981 61.4093 150.29C61.9736 150.716 62.5488 151.131 63.1277 151.534C63.4751 151.557 63.8223 151.488 64.1352 151.334C64.4481 151.181 64.7157 150.947 64.9117 150.657L69.8305 143.377C69.9785 143.158 70.0822 142.911 70.1358 142.652C70.1894 142.392 70.1917 142.125 70.1427 141.864C70.0936 141.604 69.9942 141.356 69.8501 141.134C69.7059 140.912 69.5199 140.721 69.3025 140.572Z" fill="white"/>
<path d="M50.865 112.256C50.7661 112.011 50.6202 111.787 50.4357 111.599C50.2511 111.41 50.0315 111.26 49.7894 111.157C49.5473 111.054 49.2875 111 49.0248 110.999C48.762 110.997 48.5015 111.048 48.2582 111.148L40.161 114.463C39.6695 114.665 39.2776 115.055 39.0714 115.548C38.8652 116.041 38.8616 116.597 39.0613 117.092C39.2611 117.588 39.6479 117.984 40.1367 118.192C40.6255 118.4 41.1764 118.405 41.6683 118.204L49.7655 114.888C50.2568 114.686 50.6483 114.295 50.8544 113.801C51.0604 113.308 51.0643 112.752 50.865 112.256Z" fill="white"/>
<path d="M104.359 94.767C104.544 95.8707 104.287 97.0033 103.645 97.9163C103.002 98.8293 102.027 99.4481 100.933 99.6371L65.3993 105.732C64.8573 105.825 64.3024 105.809 63.7663 105.686C63.2302 105.563 62.7235 105.334 62.275 105.013C61.8265 104.693 61.445 104.286 61.1524 103.816C60.8598 103.347 60.6617 102.824 60.5695 102.278C60.4773 101.731 60.4928 101.172 60.6151 100.631C60.7373 100.09 60.9639 99.5794 61.282 99.1272C61.6001 98.675 62.0034 98.2904 62.469 97.9953C62.9345 97.7002 63.4531 97.5005 63.9951 97.4076L99.5289 91.3129C100.623 91.1265 101.747 91.3854 102.652 92.033C103.558 92.6805 104.171 93.6638 104.359 94.767Z" fill="#3F3D56"/>
<path d="M141.757 134.464C141.246 134.982 140.553 135.274 139.829 135.277C139.105 135.28 138.41 134.993 137.895 134.479L99.6435 96.2112C99.1302 95.6967 98.8404 94.9978 98.8379 94.268C98.8354 93.5382 99.1203 92.8372 99.6301 92.3191C100.14 91.8011 100.833 91.5082 101.557 91.505C102.28 91.5018 102.976 91.7885 103.49 92.302L141.742 130.57C142.255 131.085 142.545 131.784 142.548 132.514C142.551 133.244 142.266 133.945 141.757 134.464Z" fill="#3F3D56"/>
<path d="M101.578 100.542C104.192 100.542 106.311 98.4048 106.311 95.769C106.311 93.1331 104.192 90.9964 101.578 90.9964C98.9643 90.9964 96.8452 93.1331 96.8452 95.769C96.8452 98.4048 98.9643 100.542 101.578 100.542Z" fill="#CCCCCC"/>
<path d="M68.977 13.0124C61.7118 24.5299 50.6267 32.1734 36.956 37.1948C36.6858 37.3988 36.3785 37.5471 36.0515 37.6314C35.7245 37.7156 35.3842 37.7341 35.0502 37.6857C34.7161 37.6374 34.3947 37.5232 34.1044 37.3496C33.8141 37.176 33.5606 36.9464 33.3582 36.674C25.9324 26.6765 27.6092 12.3879 37.4097 4.74865C39.7791 2.90493 42.4881 1.55417 45.3795 0.774785C48.2709 -0.00460098 51.287 -0.197092 54.2527 0.208494C57.2185 0.614079 60.0748 1.60966 62.6558 3.13743C65.2368 4.66521 67.4912 6.69475 69.288 9.10822L69.4934 9.38474C69.6957 9.65713 69.8429 9.96704 69.9264 10.2968C70.0099 10.6265 70.0283 10.9696 69.9803 11.3064C69.9324 11.6433 69.8191 11.9673 69.6469 12.2601C69.4748 12.5528 69.2471 12.8084 68.977 13.0124Z" fill="#E6E6E6"/>
<path d="M133.869 9.10822C135.666 6.69474 137.92 4.6652 140.501 3.13743C143.082 1.60965 145.938 0.614081 148.904 0.208495C151.87 -0.19709 154.886 -0.004605 157.777 0.774781C160.669 1.55417 163.378 2.90493 165.747 4.74864C175.548 12.3879 177.224 26.6765 169.799 36.674C169.596 36.9464 169.343 37.176 169.052 37.3496C168.762 37.5231 168.441 37.6374 168.107 37.6857C167.773 37.7341 167.432 37.7156 167.105 37.6314C166.778 37.5471 166.471 37.3988 166.201 37.1948C153.51 32.2954 143.103 23.8171 134.18 13.0124C133.634 12.6004 133.273 11.9868 133.176 11.3064C133.08 10.6261 133.255 9.93485 133.663 9.38473L133.869 9.10822Z" fill="#E6E6E6"/>
<path d="M130.684 164.152C130.222 164.414 129.881 164.85 129.737 165.365C129.592 165.88 129.656 166.432 129.915 166.9L141.472 187.724C141.731 188.191 142.164 188.535 142.675 188.68C143.186 188.826 143.733 188.761 144.197 188.499C144.66 188.238 145.001 187.801 145.146 187.286C145.29 186.771 145.226 186.219 144.966 185.752L133.41 164.928C133.15 164.461 132.717 164.117 132.206 163.972C131.695 163.826 131.148 163.891 130.684 164.152Z" fill="#E6E6E6"/>
<path d="M69.747 164.928L58.1903 185.752C57.9311 186.219 57.8666 186.771 58.011 187.286C58.1553 187.801 58.4968 188.238 58.9601 188.499C59.4235 188.761 59.9709 188.826 60.482 188.68C60.993 188.535 61.4258 188.191 61.6852 187.724L73.2419 166.9C73.3704 166.668 73.4524 166.414 73.4833 166.15C73.5142 165.887 73.4933 165.62 73.4218 165.365C73.3504 165.11 73.2298 164.871 73.0669 164.663C72.904 164.455 72.7021 164.281 72.4726 164.151C72.243 164.022 71.9905 163.939 71.7293 163.908C71.4681 163.877 71.2034 163.898 70.9503 163.97C70.6972 164.042 70.4607 164.164 70.2542 164.328C70.0477 164.492 69.8754 164.696 69.747 164.928Z" fill="#E6E6E6"/>
<path d="M143.812 193.056C147.23 193.056 150.001 190.261 150.001 186.815C150.001 183.368 147.23 180.574 143.812 180.574C140.394 180.574 137.623 183.368 137.623 186.815C137.623 190.261 140.394 193.056 143.812 193.056Z" fill="#E6E6E6"/>
<path d="M148.181 33.3586C151.599 33.3586 154.371 30.5644 154.371 27.1176C154.371 23.6708 151.599 20.8766 148.181 20.8766C144.763 20.8766 141.992 23.6708 141.992 27.1176C141.992 30.5644 144.763 33.3586 148.181 33.3586Z" fill="#E6E6E6"/>
<path d="M101.214 18.6738C104.633 18.6738 107.404 15.8796 107.404 12.4328C107.404 8.98598 104.633 6.19177 101.214 6.19177C97.796 6.19177 95.0249 8.98598 95.0249 12.4328C95.0249 15.8796 97.796 18.6738 101.214 18.6738Z" fill="#E6E6E6"/>
<path d="M56.4321 32.6244C59.8504 32.6244 62.6215 29.8302 62.6215 26.3834C62.6215 22.9365 59.8504 20.1423 56.4321 20.1423C53.0138 20.1423 50.2427 22.9365 50.2427 26.3834C50.2427 29.8302 53.0138 32.6244 56.4321 32.6244Z" fill="#E6E6E6"/>
<path d="M60.437 193.056C63.8553 193.056 66.6264 190.261 66.6264 186.815C66.6264 183.368 63.8553 180.574 60.437 180.574C57.0187 180.574 54.2476 183.368 54.2476 186.815C54.2476 190.261 57.0187 193.056 60.437 193.056Z" fill="#E6E6E6"/>
<path d="M138.957 130.954C139.201 131.339 139.526 131.666 139.909 131.911C140.291 132.156 140.723 132.313 141.172 132.372C141.622 132.43 142.078 132.389 142.51 132.25C142.942 132.112 143.339 131.879 143.672 131.57L153.384 136.817L152.863 131.067L143.72 126.966C143.167 126.436 142.44 126.129 141.677 126.103C140.915 126.078 140.169 126.335 139.582 126.827C138.995 127.318 138.607 128.01 138.492 128.771C138.377 129.531 138.542 130.308 138.957 130.954Z" fill="#FFB7B7"/>
<path d="M146.033 132.961L149.839 127.663L168.174 136.403L190.99 132.086C192.118 131.873 193.279 131.913 194.39 132.202C195.5 132.492 196.534 133.025 197.418 133.763C198.302 134.501 199.014 135.426 199.503 136.473C199.992 137.519 200.247 138.662 200.249 139.819C200.251 141.909 199.43 143.914 197.967 145.394C196.504 146.875 194.519 147.71 192.446 147.716L166.299 147.765L146.033 132.961Z" fill="#3F3D56"/>
<path d="M140.172 224.456L136.321 222.6L141.611 206.37L147.294 209.111L140.172 224.456Z" fill="#FFB7B7"/>
<path d="M165.987 221.84C165.707 222.017 165.427 222.191 165.145 222.365C164.582 222.713 164.013 223.055 163.445 223.392C163.159 223.56 162.871 223.728 162.585 223.894V223.902L162.568 223.905L162.562 223.908L162.127 224.016L161.502 222.351L161.213 221.583L160.806 220.497L160.059 218.509L156.127 208.042L162.24 206.522L162.469 207.466H162.472L162.585 207.933L164.72 216.667L165.156 218.452L165.17 218.506L165.433 219.573L165.659 220.497L165.911 221.529L165.987 221.84Z" fill="#FFB7B7"/>
<path d="M202.45 185.082C202.062 185.71 201.666 186.334 201.267 186.953C200.526 188.105 199.765 189.241 198.985 190.359C198.985 190.361 198.982 190.361 198.979 190.364C198.524 190.79 198.02 191.16 197.48 191.468C197.457 191.485 197.432 191.497 197.409 191.511C197.011 191.733 196.587 191.904 196.148 192.021C195.989 192.061 195.828 192.101 195.67 192.141C195.098 192.278 194.533 192.395 193.97 192.498C192.969 192.677 191.979 192.806 190.994 192.885C190.915 192.894 190.836 192.9 190.757 192.905C186.709 193.205 182.769 192.723 178.656 191.933C176.626 191.545 174.552 191.08 172.406 190.598C171.704 190.438 171 190.282 170.287 190.125C170.233 190.113 170.177 190.099 170.12 190.088C169.102 189.862 168.067 189.64 167.006 189.42C165.671 189.144 164.294 188.875 162.862 188.622L162.964 190.655C163.049 192.219 163.371 193.761 163.92 195.227C164.531 197.03 165.015 198.456 163.994 201.425L163.502 202.862C163.757 203.576 163.844 204.339 163.757 205.093C163.671 205.847 163.412 206.57 163.001 207.206L162.902 207.357L167.006 217.827L167.272 218.505H165.17L162.585 218.508H158.204L151.882 205.72L151.58 205.109V205.078L152.233 180.502C152.241 180.285 152.258 180.065 152.287 179.849C152.402 178.863 152.711 177.911 153.195 177.047C153.679 176.183 154.329 175.426 155.107 174.818C155.852 174.23 156.706 173.798 157.618 173.547C158.53 173.295 159.483 173.229 160.421 173.352L162.585 173.634L167.006 174.21L170.12 174.618L170.182 174.627L179.366 175.824L180.025 173.115L180.147 173.069L184.014 171.641L197.387 166.698L197.42 166.687L198.3 166.361L198.405 166.532C198.436 166.584 198.467 166.635 198.495 166.687C199.365 168.258 200.073 169.915 200.608 171.632C201.509 174.436 202.25 177.29 202.829 180.18C202.854 180.305 202.877 180.419 202.896 180.522L202.905 180.553C202.913 180.602 202.919 180.633 202.922 180.642C203.23 181.936 203.015 183.516 202.45 185.082Z" fill="#2F2E41"/>
<path d="M203.014 176.025C202.972 175.843 202.918 175.657 202.861 175.478C202.412 174.117 201.889 172.782 201.294 171.479C200.627 169.996 199.826 168.407 198.873 166.688C198.412 165.855 197.916 164.989 197.385 164.089C197.12 163.639 196.843 163.18 196.557 162.712C196.545 162.69 196.533 162.669 196.52 162.649L196.438 162.512L183.206 164.298L178.279 164.962L177.985 167.438L177.914 168.051C177.911 168.051 177.911 168.051 177.914 168.054L177.716 169.725V169.728L177.453 171.935L177.431 171.933L170.119 170.977L162.584 169.993L158.536 169.466C157.598 169.342 156.645 169.408 155.733 169.66C154.821 169.912 153.967 170.344 153.222 170.931C152.444 171.539 151.794 172.297 151.31 173.161C150.826 174.025 150.517 174.977 150.402 175.963C150.376 176.162 150.359 176.367 150.351 176.57L146.532 185.694C144.248 191.15 142.792 196.923 142.216 202.817L139.416 211.844L139.815 211.881L145.749 212.437L147.316 212.586L150.767 207.506C151.16 206.927 151.533 206.331 151.881 205.721C152.454 204.724 152.963 203.691 153.406 202.629L160.87 184.718C161.447 184.818 162.018 184.913 162.584 185.004C165.2 185.431 167.712 185.78 170.119 186.05C177.945 186.932 184.722 187 190.755 186.253C192.45 186.045 194.087 185.771 195.669 185.431C196.248 185.309 196.821 185.177 197.385 185.035C197.518 185.004 197.648 184.972 197.779 184.938C198.947 184.634 200.022 184.039 200.904 183.208C201.786 182.377 202.447 181.336 202.827 180.181C203.281 178.842 203.346 177.4 203.014 176.025Z" fill="#2F2E41"/>
<path d="M141.402 221.806L137.235 219.793L136.582 219.476L135.538 222.06L128.252 223.677C127.892 223.757 127.566 223.951 127.323 224.23C127.08 224.51 126.932 224.86 126.9 225.231C126.868 225.601 126.955 225.972 127.147 226.29C127.34 226.607 127.628 226.854 127.969 226.994L135.089 229.923L137.349 227.873L136.794 230.625L139.476 231.729L142.414 222.297L141.402 221.806Z" fill="#2F2E41"/>
<path d="M167.006 217.827L167.272 218.505H167.006V217.827Z" fill="#2F2E41"/>
<path d="M165.555 218.65L161.189 220.176L160.504 220.414L161.566 222.991L157.517 229.309C157.316 229.622 157.22 229.99 157.242 230.361C157.265 230.733 157.404 231.087 157.64 231.373C157.876 231.658 158.197 231.86 158.555 231.949C158.913 232.038 159.29 232.009 159.63 231.867L166.733 228.897L166.908 225.837L168.435 228.186L171.11 227.068L166.617 218.281L165.555 218.65Z" fill="#2F2E41"/>
<path d="M201.925 180.157C201.666 180.157 201.411 180.093 201.181 179.971L178.144 167.833L177.878 166.734L177.376 163.257L177.383 163.225L179.574 153.04C179.534 152.952 179.45 152.809 179.355 152.647C178.377 150.976 175.401 145.89 181.082 138.887L191.056 127.161L199.616 126.79L199.714 126.914C202.003 129.811 203.547 133.233 204.208 136.877C204.869 140.52 204.627 144.272 203.504 147.799L202.613 164.032L203.569 167.31C204.128 169.236 204.035 171.296 203.306 173.163L203.525 178.472C203.534 178.689 203.499 178.906 203.422 179.11C203.346 179.313 203.229 179.5 203.08 179.657C202.931 179.814 202.752 179.94 202.553 180.026C202.355 180.111 202.141 180.156 201.925 180.157Z" fill="#3F3D56"/>
<path d="M181.942 193.545C182.333 193.312 182.668 192.996 182.924 192.619C183.18 192.242 183.351 191.813 183.425 191.362C183.498 190.911 183.473 190.449 183.351 190.009C183.229 189.569 183.012 189.161 182.717 188.815L188.255 179.21L182.539 179.535L178.155 188.606C177.611 189.145 177.281 189.867 177.229 190.634C177.177 191.402 177.407 192.163 177.873 192.771C178.34 193.38 179.012 193.795 179.762 193.938C180.512 194.08 181.288 193.94 181.942 193.545Z" fill="#FFB7B7"/>
<path d="M184.177 186.483L179.059 182.464L188.359 164.291L184.874 141.148C184.702 140.004 184.782 138.836 185.108 137.727C185.433 136.617 185.998 135.594 186.76 134.729C187.522 133.864 188.464 133.179 189.518 132.722C190.572 132.266 191.713 132.049 192.86 132.087C194.932 132.158 196.89 133.055 198.307 134.58C199.723 136.106 200.482 138.136 200.416 140.225L199.555 166.576L184.177 186.483Z" fill="#3F3D56"/>
<path d="M185.565 122.289V113.747C185.563 110.712 186.757 107.8 188.884 105.652C191.012 103.504 193.898 102.296 196.909 102.294C199.919 102.292 202.807 103.496 204.937 105.641C207.067 107.787 208.265 110.697 208.267 113.733V113.747C210.268 117.951 209.016 119.95 208.267 122.289C208.266 122.696 208.106 123.087 207.82 123.375C207.534 123.663 207.147 123.825 206.743 123.826H187.09C186.686 123.825 186.298 123.663 186.012 123.375C185.726 123.087 185.566 122.697 185.565 122.289Z" fill="#2F2E41"/>
<path d="M193.194 123.271C197.886 123.271 201.691 119.435 201.691 114.703C201.691 109.972 197.886 106.136 193.194 106.136C188.501 106.136 184.697 109.972 184.697 114.703C184.697 119.435 188.501 123.271 193.194 123.271Z" fill="#FFB7B7"/>
<path d="M202.086 116.949C202.009 116.937 201.932 116.921 201.855 116.908C200.53 116.671 199.205 116.438 197.883 116.197L197.762 113.177L196.161 115.883C192.509 117.105 189.092 116.414 185.878 114.89C184.818 114.382 183.789 113.81 182.798 113.177C183.068 111.507 183.705 109.918 184.662 108.528C185.619 107.138 186.873 105.981 188.33 105.142C188.452 105.073 188.569 105.012 188.691 104.95L188.693 104.95L188.694 104.949L188.695 104.948L188.695 104.946C188.902 104.848 189.113 104.754 189.323 104.668C190.973 104.018 192.772 103.853 194.512 104.193C196.251 104.533 197.858 105.364 199.148 106.589C201.742 109.086 202.909 113.21 202.086 116.949Z" fill="#2F2E41"/>
</g>
<defs>
<clipPath id="clip0_38_6659">
<rect width="246" height="232" fill="white"/>
</clipPath>
</defs>
</svg>
