<svg width="689" height="500" viewBox="0 0 689 500" fill="none" xmlns="http://www.w3.org/2000/svg">
<path d="M439.065 374.834V495.364H137.444C103.078 495.364 75.1177 468.329 75.1177 435.099C75.1177 401.87 103.078 374.834 137.444 374.834H439.065Z" fill="#F2F2F2"/>
<path d="M446.474 494.437C446.473 495.666 445.985 496.845 445.117 497.714C444.249 498.584 443.072 499.072 441.844 499.073H132.071C115.247 499.073 99.1119 492.382 87.2153 480.471C75.3187 468.561 68.6353 452.407 68.6353 435.563C68.6353 418.719 75.3187 402.565 87.2153 390.655C99.1119 378.744 115.247 372.053 132.071 372.053H441.844C443.072 372.053 444.249 372.541 445.118 373.411C445.986 374.28 446.474 375.459 446.474 376.689C446.474 377.918 445.986 379.097 445.118 379.967C444.249 380.836 443.072 381.324 441.844 381.324H132.071C117.703 381.324 103.923 387.039 93.7636 397.211C83.6037 407.382 77.896 421.178 77.896 435.563C77.896 449.948 83.6037 463.744 93.7636 473.915C103.923 484.087 117.703 489.801 132.071 489.801H441.844C443.072 489.802 444.249 490.29 445.117 491.16C445.985 492.029 446.473 493.208 446.474 494.437Z" fill="#008163"/>
<path d="M439.066 402.649H114.939C114.694 402.649 114.458 402.551 114.284 402.377C114.111 402.204 114.013 401.968 114.013 401.722C114.013 401.476 114.111 401.24 114.284 401.066C114.458 400.892 114.694 400.795 114.939 400.795H439.066C439.311 400.795 439.547 400.892 439.72 401.066C439.894 401.24 439.992 401.476 439.992 401.722C439.992 401.968 439.894 402.204 439.72 402.377C439.547 402.551 439.311 402.649 439.066 402.649Z" fill="#4ECEB0"/>
<path d="M439.066 424.901H114.939C114.694 424.901 114.458 424.803 114.284 424.629C114.111 424.455 114.013 424.219 114.013 423.974C114.013 423.728 114.111 423.492 114.284 423.318C114.458 423.144 114.694 423.046 114.939 423.046H439.066C439.311 423.046 439.547 423.144 439.72 423.318C439.894 423.492 439.992 423.728 439.992 423.974C439.992 424.219 439.894 424.455 439.72 424.629C439.547 424.803 439.311 424.901 439.066 424.901Z" fill="#4ECEB0"/>
<path d="M439.066 447.152H114.939C114.694 447.152 114.458 447.055 114.284 446.881C114.111 446.707 114.013 446.471 114.013 446.225C114.013 445.979 114.111 445.744 114.284 445.57C114.458 445.396 114.694 445.298 114.939 445.298H439.066C439.311 445.298 439.547 445.396 439.72 445.57C439.894 445.744 439.992 445.979 439.992 446.225C439.992 446.471 439.894 446.707 439.72 446.881C439.547 447.055 439.311 447.152 439.066 447.152Z" fill="#4ECEB0"/>
<path d="M439.066 469.404H114.939C114.694 469.404 114.458 469.306 114.284 469.133C114.111 468.959 114.013 468.723 114.013 468.477C114.013 468.231 114.111 467.995 114.284 467.821C114.458 467.647 114.694 467.55 114.939 467.55H439.066C439.311 467.55 439.547 467.647 439.72 467.821C439.894 467.995 439.992 468.231 439.992 468.477C439.992 468.723 439.894 468.959 439.72 469.133C439.547 469.306 439.311 469.404 439.066 469.404Z" fill="#4ECEB0"/>
<path d="M672.175 397.523L596.64 491.377L361.773 301.913C335.013 280.326 330.184 241.711 351.008 215.836C371.833 189.961 410.548 186.472 437.308 208.059L672.175 397.523Z" fill="#F2F2F2"/>
<path d="M602.989 495.309C602.219 496.266 601.1 496.877 599.879 497.009C598.658 497.14 597.435 496.781 596.479 496.01L355.265 301.426C342.164 290.858 333.793 275.513 331.994 258.765C330.195 242.018 335.114 225.241 345.67 212.125C356.226 199.009 371.554 190.628 388.281 188.827C405.009 187.025 421.767 191.95 434.867 202.519L676.081 397.102C676.555 397.484 676.949 397.956 677.241 398.49C677.533 399.024 677.716 399.611 677.782 400.216C677.847 400.822 677.792 401.434 677.621 402.019C677.45 402.603 677.165 403.148 676.783 403.622C676.402 404.096 675.931 404.491 675.397 404.783C674.863 405.074 674.277 405.258 673.672 405.323C673.067 405.388 672.455 405.333 671.872 405.161C671.288 404.989 670.744 404.704 670.271 404.322L429.057 209.738C423.518 205.266 417.152 201.93 410.325 199.921C403.497 197.913 396.341 197.27 389.266 198.031C382.19 198.791 375.334 200.94 369.088 204.354C362.842 207.768 357.329 212.381 352.864 217.929C348.4 223.477 345.07 229.851 343.066 236.687C341.063 243.523 340.424 250.687 341.186 257.771C341.949 264.854 344.098 271.718 347.51 277.97C350.923 284.222 355.532 289.739 361.075 294.207L602.289 488.79C603.245 489.562 603.855 490.682 603.987 491.904C604.118 493.127 603.759 494.351 602.989 495.309Z" fill="#4ECEB0"/>
<path d="M654.744 419.181L402.353 215.581C402.258 215.505 402.179 215.411 402.121 215.304C402.063 215.197 402.026 215.079 402.013 214.958C402 214.837 402.011 214.715 402.045 214.598C402.08 214.481 402.136 214.372 402.213 214.278C402.289 214.183 402.383 214.104 402.49 214.046C402.597 213.987 402.714 213.95 402.835 213.937C402.956 213.924 403.078 213.935 403.195 213.97C403.311 214.004 403.42 214.061 403.515 214.137L655.906 417.737C656.001 417.814 656.079 417.908 656.138 418.015C656.196 418.122 656.233 418.239 656.246 418.36C656.259 418.482 656.249 418.604 656.214 418.721C656.18 418.838 656.123 418.947 656.047 419.042C655.97 419.137 655.876 419.216 655.769 419.274C655.662 419.332 655.545 419.369 655.424 419.382C655.303 419.395 655.181 419.384 655.064 419.349C654.947 419.315 654.838 419.258 654.744 419.181Z" fill="#4ECEB0"/>
<path d="M640.798 436.508L388.408 232.908C388.217 232.754 388.095 232.53 388.069 232.285C388.043 232.041 388.115 231.797 388.268 231.605C388.422 231.414 388.646 231.292 388.89 231.265C389.134 231.239 389.378 231.31 389.57 231.464L641.96 435.064C642.055 435.141 642.134 435.235 642.193 435.342C642.251 435.449 642.288 435.566 642.301 435.687C642.314 435.808 642.303 435.931 642.269 436.048C642.235 436.165 642.178 436.274 642.101 436.369C642.025 436.464 641.931 436.542 641.824 436.601C641.717 436.659 641.6 436.696 641.479 436.709C641.358 436.722 641.235 436.711 641.119 436.676C641.002 436.642 640.893 436.585 640.798 436.508Z" fill="#4ECEB0"/>
<path d="M626.854 453.835L374.463 250.235C374.271 250.081 374.149 249.857 374.123 249.612C374.097 249.368 374.169 249.123 374.323 248.931C374.477 248.74 374.701 248.618 374.945 248.591C375.189 248.565 375.434 248.637 375.625 248.791L628.016 452.391C628.11 452.468 628.189 452.562 628.247 452.669C628.306 452.776 628.342 452.893 628.355 453.014C628.368 453.135 628.357 453.257 628.323 453.374C628.289 453.491 628.232 453.6 628.156 453.695C628.079 453.79 627.985 453.869 627.878 453.927C627.772 453.985 627.655 454.022 627.534 454.035C627.413 454.048 627.29 454.037 627.174 454.003C627.057 453.969 626.948 453.912 626.854 453.835Z" fill="#4ECEB0"/>
<path d="M612.909 471.162L360.518 267.562C360.423 267.486 360.344 267.391 360.286 267.285C360.228 267.178 360.191 267.06 360.178 266.939C360.165 266.818 360.176 266.696 360.21 266.579C360.245 266.462 360.302 266.353 360.378 266.259C360.454 266.164 360.548 266.085 360.655 266.027C360.762 265.968 360.879 265.931 361 265.918C361.121 265.905 361.243 265.916 361.36 265.951C361.476 265.985 361.585 266.042 361.68 266.118L614.071 469.718C614.166 469.795 614.245 469.889 614.303 469.996C614.361 470.103 614.398 470.22 614.411 470.341C614.424 470.462 614.414 470.585 614.379 470.702C614.345 470.819 614.288 470.928 614.212 471.023C614.135 471.118 614.041 471.197 613.934 471.255C613.827 471.313 613.71 471.35 613.589 471.363C613.468 471.376 613.346 471.365 613.229 471.33C613.112 471.296 613.003 471.239 612.909 471.162Z" fill="#4ECEB0"/>
<path d="M313.088 362.166L302.501 362.165L297.466 321.281L313.092 321.283L313.088 362.166Z" fill="#FFB8B8"/>
<path d="M294.939 359.136H315.357V372.007H282.083C282.083 370.317 282.416 368.643 283.062 367.082C283.708 365.52 284.655 364.101 285.848 362.906C287.042 361.711 288.459 360.763 290.019 360.116C291.579 359.469 293.25 359.136 294.939 359.136Z" fill="#2F2E41"/>
<path d="M204.928 362.166L194.341 362.165L189.306 321.281L204.931 321.283L204.928 362.166Z" fill="#FFB8B8"/>
<path d="M186.778 359.136H207.196V372.007H173.922C173.922 370.317 174.255 368.643 174.901 367.082C175.547 365.52 176.494 364.101 177.688 362.906C178.881 361.711 180.299 360.763 181.858 360.116C183.418 359.469 185.09 359.136 186.778 359.136Z" fill="#2F2E41"/>
<path d="M240.29 58.9049V54.2691C240.29 46.3389 243.436 38.7336 249.037 33.1261C254.638 27.5187 262.235 24.3684 270.155 24.3684C278.076 24.3684 285.673 27.5187 291.274 33.1261C296.875 38.7336 300.021 46.3389 300.021 54.2691V58.9049C300.021 64.622 297.753 70.1049 293.715 74.1475C289.677 78.1901 284.201 80.4612 278.49 80.4612H261.821C258.993 80.4612 256.193 79.9036 253.581 78.8203C250.969 77.737 248.595 76.1492 246.596 74.1475C244.597 72.1458 243.011 69.7694 241.929 67.1541C240.846 64.5388 240.29 61.7357 240.29 58.9049Z" fill="#2F2E41"/>
<path d="M270.156 82.0563C282.717 82.0563 292.901 71.861 292.901 59.2845C292.901 46.708 282.717 36.5127 270.156 36.5127C257.594 36.5127 247.41 46.708 247.41 59.2845C247.41 71.861 257.594 82.0563 270.156 82.0563Z" fill="#FFB8B8"/>
<path d="M146.435 137.548C147.358 136.675 148.461 136.016 149.666 135.616C150.871 135.217 152.149 135.086 153.41 135.235C154.671 135.383 155.884 135.806 156.964 136.475C158.043 137.143 158.964 138.04 159.66 139.103L179.158 135.411L184.289 146.726L156.681 151.554C154.82 152.606 152.638 152.938 150.548 152.487C148.459 152.036 146.607 150.833 145.344 149.107C144.081 147.381 143.495 145.25 143.696 143.12C143.897 140.99 144.872 139.007 146.435 137.548Z" fill="#FFB8B8"/>
<path d="M252.678 96.7839L220.704 117.871L166.753 135.119C166.038 135.35 165.424 135.821 165.017 136.453C164.61 137.085 164.434 137.838 164.519 138.585L165.696 148.735C165.748 149.184 165.894 149.617 166.123 150.007C166.352 150.396 166.66 150.734 167.027 150.997C167.394 151.261 167.812 151.445 168.255 151.537C168.697 151.629 169.153 151.628 169.595 151.533L220.371 140.637C222.829 140.112 225.152 139.088 227.198 137.628L263.119 112.041C264.421 111.108 265.46 109.854 266.135 108.401C266.809 106.947 267.097 105.343 266.969 103.745C266.838 102.145 266.292 100.607 265.387 99.2822C264.481 97.9572 263.246 96.8911 261.804 96.1887C260.362 95.4863 258.763 95.1718 257.162 95.2762C255.562 95.3805 254.017 95.9002 252.678 96.7839Z" fill="#4ECEB0"/>
<path d="M302.691 350.564C301.878 350.564 301.083 350.328 300.402 349.883C299.722 349.438 299.186 348.805 298.859 348.06L250.323 227.993C250.21 227.732 250.02 227.513 249.778 227.364C249.536 227.215 249.255 227.144 248.972 227.16C248.688 227.176 248.417 227.278 248.193 227.453C247.97 227.628 247.806 227.868 247.722 228.139L208.125 345.029C207.958 345.573 207.681 346.077 207.312 346.51C206.943 346.943 206.49 347.296 205.98 347.547C205.469 347.798 204.913 347.942 204.346 347.97C203.778 347.998 203.21 347.909 202.678 347.709L189.4 342.724C188.679 342.456 188.047 341.993 187.573 341.387C187.099 340.78 186.803 340.054 186.717 339.289C180.743 287.191 232.835 155.686 233.362 154.364L233.508 153.998L280.995 164.514L281.093 164.622C300.039 185.314 315.611 315.824 318.541 341.776C318.65 342.714 318.437 343.66 317.937 344.46C317.437 345.26 316.679 345.866 315.789 346.177L304.069 350.327C303.626 350.484 303.16 350.564 302.691 350.564Z" fill="#2F2E41"/>
<path d="M261.776 168.747C250.271 168.747 237.444 166.45 233.496 156.971L233.405 156.754L233.527 156.552C236.644 151.432 240.763 142.7 238.549 141.06C234.188 137.832 232.072 132.521 232.26 125.275C232.667 109.545 243.373 95.5797 258.899 90.5234C263.233 89.1349 267.643 87.9981 272.108 87.1186C275.363 86.4611 278.722 86.5334 281.946 87.3304C285.17 88.1274 288.177 89.6292 290.752 91.7281C293.359 93.8407 295.467 96.5053 296.923 99.5304C298.38 102.555 299.149 105.866 299.175 109.224C299.338 126.034 296.753 149.447 283.514 165.521C282.893 166.267 282.03 166.769 281.075 166.941C274.706 168.094 268.249 168.698 261.776 168.747Z" fill="#4ECEB0"/>
<path d="M257.496 168.118C258.123 165.869 259.61 163.959 261.635 162.802C263.66 161.645 266.059 161.335 268.312 161.939C268.771 162.068 269.22 162.234 269.652 162.436L284.457 148.947L294.753 155.892L273.582 174.649C272.626 176.374 271.121 177.73 269.306 178.501C267.491 179.272 265.472 179.413 263.568 178.901C262.459 178.597 261.421 178.076 260.514 177.369C259.608 176.661 258.85 175.78 258.286 174.777C257.721 173.774 257.361 172.67 257.225 171.526C257.09 170.383 257.182 169.225 257.496 168.118Z" fill="#FFB8B8"/>
<path d="M282.112 168.289C281.152 168.289 280.22 167.957 279.477 167.348L273.639 162.571C273.152 162.173 272.762 161.67 272.497 161.099C272.232 160.528 272.099 159.905 272.109 159.276C272.119 158.647 272.27 158.028 272.553 157.466C272.835 156.904 273.241 156.413 273.74 156.03L298.227 137.227C298.517 137.003 298.707 136.674 298.756 136.31C298.806 135.947 298.71 135.578 298.489 135.285L283.375 115.281C281.619 112.964 280.739 110.101 280.889 107.197C281.039 104.293 282.211 101.535 284.197 99.4133C286.289 97.1518 289.153 95.7602 292.221 95.5145C295.29 95.2688 298.339 96.1869 300.763 98.0868L300.858 98.1878L316.64 120.812C318.347 122.152 319.721 123.869 320.656 125.828C321.59 127.787 322.059 129.936 322.027 132.107C321.995 134.278 321.462 136.412 320.469 138.343C319.477 140.273 318.053 141.948 316.307 143.236L284.593 167.471C283.875 168.002 283.005 168.289 282.112 168.289Z" fill="#4ECEB0"/>
<path d="M250.008 52.8783V41.5799L270.156 32.772L289.366 41.5799V52.8783C289.366 53.3701 289.171 53.8418 288.824 54.1895C288.477 54.5373 288.006 54.7326 287.514 54.7326H251.86C251.369 54.7326 250.898 54.5373 250.551 54.1895C250.203 53.8418 250.008 53.3701 250.008 52.8783Z" fill="#2F2E41"/>
<path d="M269.23 25.8672C266.268 16.3745 272.49 5.49549 281.687 1.73805C290.884 -2.01939 301.888 0.607175 309.649 6.81503C317.409 13.0229 322.224 22.3211 324.776 31.9327C327.327 41.5442 327.811 51.5668 328.282 61.5008C339.582 63.5789 347.269 76.9975 343.355 87.8118C339.44 98.6262 324.951 103.999 314.945 98.3464C304.938 92.694 302.04 77.4997 309.262 68.5536C312.679 64.3205 314.588 59.0669 314.686 53.6251C314.784 48.1832 313.066 42.8641 309.804 38.5102C306.542 34.1563 301.922 31.0165 296.676 29.588C291.43 28.1596 285.858 28.5242 280.843 30.6241C275.274 32.9558 268.286 26.8975 269.23 25.8672Z" fill="#2F2E41"/>
<path d="M142.258 93.7191C128.729 93.6302 115.369 90.7007 103.041 85.1199C102.307 84.7924 101.684 84.2584 101.248 83.5828C100.812 82.9072 100.582 82.1192 100.585 81.3148V47.5499C100.586 46.4437 101.026 45.3832 101.807 44.601C102.588 43.8189 103.647 43.3789 104.752 43.3777H179.764C180.869 43.3789 181.929 43.8189 182.71 44.6011C183.491 45.3832 183.931 46.4437 183.932 47.5499V81.3149C183.935 82.1192 183.705 82.9072 183.269 83.5828C182.833 84.2584 182.21 84.7925 181.476 85.1199C169.148 90.7007 155.788 93.6302 142.258 93.7191Z" fill="#008163"/>
<path d="M142.248 66.3655C141.692 66.366 141.141 66.2551 140.629 66.0395L81.145 40.9141C80.3779 40.5901 79.7254 40.0435 79.2715 39.3448C78.8175 38.646 78.5831 37.8272 78.5984 36.9938C78.6136 36.1604 78.8779 35.3507 79.3571 34.6691C79.8362 33.9875 80.5084 33.4652 81.2868 33.1696L140.771 10.577C141.729 10.2114 142.789 10.2137 143.745 10.5833L202.432 33.1759C203.206 33.4739 203.874 33.9963 204.35 34.6763C204.826 35.3563 205.088 36.1629 205.103 36.993C205.119 37.8231 204.886 38.6389 204.436 39.336C203.985 40.0332 203.338 40.5799 202.575 40.9064L143.887 66.0314C143.369 66.2523 142.811 66.366 142.248 66.3655Z" fill="#008163"/>
<path d="M107.531 87.4173C110.599 87.4173 113.087 84.9267 113.087 81.8544C113.087 78.7821 110.599 76.2915 107.531 76.2915C104.462 76.2915 101.974 78.7821 101.974 81.8544C101.974 84.9267 104.462 87.4173 107.531 87.4173Z" fill="#3F3D56"/>
<path opacity="0.2" d="M202.778 37.3399L144.089 62.465C143.632 62.6608 143.14 62.7624 142.642 62.7636C142.144 62.7648 141.652 62.6656 141.193 62.472L81.7096 37.3473C80.9625 37.0392 80.3393 36.4908 79.9384 35.7886C79.6761 36.244 79.5135 36.75 79.4616 37.273C79.4096 37.7961 79.4693 38.3242 79.6368 38.8224C79.8043 39.3206 80.0758 39.7773 80.4332 40.1624C80.7905 40.5475 81.2256 40.852 81.7096 41.0559L141.193 66.1806C141.652 66.3742 142.144 66.4734 142.642 66.4722C143.14 66.471 143.632 66.3694 144.089 66.1736L202.778 41.0485C203.259 40.8429 203.692 40.5374 204.046 40.1521C204.401 39.7669 204.671 39.3106 204.836 38.8136C205.002 38.3165 205.061 37.7898 205.008 37.2684C204.956 36.747 204.794 36.2426 204.532 35.7886C204.134 36.4851 203.517 37.0305 202.778 37.3399Z" fill="black"/>
<path d="M107.997 81.8328C108.243 81.8328 108.479 81.7352 108.652 81.5613C108.826 81.3874 108.923 81.1516 108.923 80.9057V49.8819L139.467 38.742C139.712 38.7457 139.949 38.6515 140.125 38.4802C140.302 38.3089 140.403 38.0746 140.406 37.8287C140.41 37.5828 140.316 37.3455 140.145 37.169C139.974 36.9925 139.74 36.8914 139.494 36.8877L108.951 48.0276C108.705 48.0219 108.461 48.0662 108.233 48.1579C108.005 48.2496 107.797 48.3867 107.624 48.5608C107.448 48.7329 107.309 48.9385 107.214 49.1654C107.119 49.3923 107.071 49.6359 107.071 49.8819V80.9057C107.071 81.1516 107.169 81.3874 107.343 81.5613C107.516 81.7351 107.752 81.8328 107.997 81.8328Z" fill="#3F3D56"/>
</svg>
