<svg width="671" height="676" viewBox="0 0 671 676" fill="none" xmlns="http://www.w3.org/2000/svg">
<g clip-path="url(#clip0_38_6770)">
<path d="M169.263 648.697C168.522 648.731 167.789 648.536 167.163 648.14C166.537 647.744 166.048 647.164 165.762 646.48C165.476 645.796 165.407 645.041 165.565 644.317C165.722 643.593 166.099 642.935 166.643 642.431C166.734 642.069 166.799 641.809 166.891 641.447C166.182 639.647 164.952 638.099 163.358 637.003C161.765 635.906 159.88 635.311 157.946 635.293C156.011 635.274 154.116 635.834 152.501 636.9C150.887 637.967 149.628 639.491 148.886 641.277C144.602 651.305 139.057 661.686 141.815 672.731C123.601 634.128 129.795 586.111 156.713 553.098C164.153 549 170.183 541.718 171.753 533.262C168.071 534.51 163.48 531.515 166.249 527.636C167.449 526.154 168.66 524.683 169.86 523.2C155.873 508.303 139.207 531.716 154.603 551.822C149.566 558.137 145.204 564.961 141.586 572.183C142.422 564.515 141.424 556.757 138.677 549.549C135.892 542.831 130.673 537.173 126.076 531.366C120.488 524.29 108.986 527.554 108.234 536.534C113.392 538.229 114.062 545.679 108.162 546.699C109.707 563.404 120.621 578.756 135.652 586.083C130.101 601.658 127.934 618.237 129.294 634.716C126.641 615.457 105.968 610.784 91.5193 603.129C90.5997 602.539 89.5283 602.23 88.4358 602.239C87.3434 602.247 86.2771 602.574 85.367 603.178C84.457 603.783 83.7425 604.639 83.3107 605.643C82.879 606.646 82.7486 607.754 82.9356 608.83C84.9298 609.641 86.8386 610.648 88.6338 611.836C89.475 612.402 90.1207 613.214 90.4823 614.161C90.844 615.108 90.9039 616.143 90.6539 617.126C90.404 618.108 89.8563 618.989 89.086 619.648C88.3156 620.307 87.3604 620.711 86.3512 620.806C93.6345 638.832 112.465 650.936 131.804 650.868C133.663 658.945 136.356 666.806 139.839 674.326H168.543C168.646 674.007 168.739 673.677 168.832 673.358C166.175 673.525 163.507 673.367 160.889 672.885C167.918 664.562 173.355 660.316 169.264 648.697L169.263 648.697Z" fill="#F2F2F2"/>
<path d="M425.164 648.697C425.905 648.731 426.638 648.536 427.264 648.14C427.89 647.744 428.38 647.164 428.665 646.48C428.951 645.796 429.02 645.041 428.863 644.317C428.705 643.593 428.329 642.935 427.784 642.431C427.693 642.069 427.628 641.809 427.537 641.447C428.245 639.647 429.475 638.099 431.069 637.003C432.662 635.906 434.547 635.311 436.482 635.293C438.416 635.274 440.312 635.834 441.926 636.9C443.54 637.967 444.799 639.491 445.541 641.277C449.825 651.305 455.37 661.686 452.612 672.731C470.826 634.128 464.632 586.111 437.715 553.098C430.274 549 424.244 541.718 422.674 533.262C426.356 534.51 430.947 531.515 428.179 527.636C426.978 526.154 425.767 524.683 424.567 523.2C438.555 508.303 455.221 531.716 439.824 551.822C444.861 558.137 449.224 564.961 452.841 572.183C452.006 564.515 453.003 556.757 455.75 549.549C458.535 542.831 463.754 537.173 468.351 531.366C473.939 524.29 485.441 527.554 486.193 536.534C481.036 538.229 480.366 545.679 486.265 546.699C484.72 563.404 473.806 578.756 458.775 586.083C464.326 601.658 466.493 618.237 465.133 634.716C467.786 615.457 488.459 610.784 502.908 603.129C503.828 602.539 504.899 602.23 505.991 602.239C507.084 602.247 508.15 602.574 509.06 603.178C509.97 603.783 510.685 604.639 511.117 605.643C511.548 606.646 511.679 607.754 511.492 608.83C509.497 609.641 507.589 610.648 505.793 611.836C504.952 612.402 504.307 613.214 503.945 614.161C503.583 615.108 503.523 616.143 503.773 617.126C504.023 618.108 504.571 618.989 505.341 619.648C506.112 620.307 507.067 620.711 508.076 620.806C500.793 638.832 481.963 650.936 462.623 650.868C460.764 658.945 458.071 666.806 454.588 674.326H425.884C425.781 674.007 425.688 673.677 425.596 673.358C428.253 673.525 430.92 673.367 433.538 672.885C426.509 664.562 421.073 660.316 425.164 648.697Z" fill="#F2F2F2"/>
<path d="M435.807 652.959L423.446 655.771L406.715 609.428L424.96 605.277L435.807 652.959Z" fill="#FFB6B6"/>
<path d="M439.178 665.755L401.164 674.404L401.055 673.924C400.162 670 400.865 665.882 403.008 662.475C405.151 659.069 408.56 656.654 412.484 655.761L418.229 648.913L432.383 651.233L435.702 650.478L439.178 665.755Z" fill="#2F2E41"/>
<path d="M635.219 427.069L642.014 437.77L603.97 469.078L593.939 453.282L635.219 427.069Z" fill="#FFB6B6"/>
<path d="M646.143 419.601L667.042 452.511L666.626 452.775C663.229 454.933 659.114 455.652 655.186 454.776C651.258 453.899 647.84 451.498 645.682 448.101L637.303 444.986L634.741 430.873L632.917 428L646.143 419.601Z" fill="#2F2E41"/>
<path d="M241.178 312.65L238.125 294.953L284.542 273.993L294.566 256.245C294.243 254.688 294.356 253.071 294.893 251.574C295.43 250.077 296.371 248.757 297.611 247.761C298.851 246.765 300.343 246.131 301.921 245.929C303.499 245.728 305.101 245.966 306.552 246.618C308.003 247.27 309.246 248.31 310.142 249.624C311.039 250.938 311.555 252.474 311.634 254.063C311.712 255.652 311.35 257.231 310.587 258.627C309.824 260.023 308.69 261.181 307.311 261.973L290.821 287.467L241.178 312.65Z" fill="#A0616A"/>
<path d="M227.068 298.184L247.971 287.506L253.505 308.283L238.985 319.046L227.068 298.184Z" fill="#008163"/>
<path d="M180.163 651.35L192.802 651.349L198.814 602.598L180.16 602.599L180.163 651.35Z" fill="#A0616A"/>
<path d="M197.007 652.487V643.919L193.684 644.122L180.159 644.923L177.029 645.115L174.636 673.812L174.507 675.35H183.482L183.77 673.823L185.073 666.878L188.439 673.823L189.176 675.35H212.968C214.384 675.341 215.739 674.774 216.74 673.772C217.74 672.77 218.304 671.414 218.31 669.998C219.315 665.308 199.528 655.169 197.007 652.487Z" fill="#2F2E41"/>
<path d="M30.1357 457.878L27.1895 470.17L73.1941 487.383L77.542 469.243L30.1357 457.878Z" fill="#A0616A"/>
<path d="M26.1026 473.994L34.4348 475.992L35.0121 472.713L37.3865 459.373L37.9294 456.285L10.582 447.266L9.11579 446.783L7.02334 455.51L8.44173 456.147L14.8908 459.033L7.35316 460.687L5.69562 461.048L0.148174 484.185C-0.173223 485.563 0.0622969 487.014 0.803636 488.22C1.54498 489.426 2.73225 490.291 4.10763 490.627C8.43434 492.697 22.907 475.82 26.1026 473.994Z" fill="#2F2E41"/>
<path d="M199.705 335.838L183.437 328.233L150.995 367.495L131.234 372.492C129.817 371.77 128.227 371.453 126.642 371.578C125.056 371.702 123.535 372.262 122.248 373.196C120.96 374.13 119.956 375.402 119.346 376.871C118.736 378.34 118.544 379.949 118.791 381.521C119.038 383.092 119.714 384.565 120.746 385.776C121.777 386.987 123.123 387.889 124.635 388.383C126.147 388.877 127.766 388.944 129.314 388.575C130.861 388.207 132.277 387.418 133.404 386.295L162.34 377.1L199.705 335.838Z" fill="#A0616A"/>
<path d="M430.343 190.499C426.895 190.499 423.524 189.476 420.656 187.56C417.789 185.644 415.554 182.921 414.235 179.735C412.915 176.55 412.57 173.044 413.243 169.662C413.915 166.28 415.576 163.173 418.014 160.735C420.453 158.296 423.559 156.636 426.941 155.963C430.324 155.29 433.829 155.635 437.015 156.955C440.201 158.275 442.924 160.509 444.84 163.377C446.756 166.244 447.778 169.615 447.778 173.063C447.773 177.686 445.934 182.118 442.666 185.386C439.397 188.655 434.965 190.494 430.343 190.499ZM430.343 157.629C427.29 157.629 424.306 158.534 421.768 160.23C419.23 161.926 417.252 164.336 416.083 167.157C414.915 169.977 414.61 173.08 415.205 176.074C415.801 179.068 417.271 181.819 419.429 183.977C421.588 186.136 424.338 187.606 427.332 188.201C430.326 188.797 433.429 188.491 436.249 187.323C439.07 186.155 441.48 184.176 443.176 181.638C444.872 179.1 445.777 176.116 445.777 173.063C445.773 168.971 444.145 165.048 441.251 162.154C438.358 159.261 434.435 157.633 430.343 157.629Z" fill="#008163"/>
<path d="M429.112 179.632C429.077 179.632 429.042 179.631 429.007 179.629C428.698 179.614 428.395 179.532 428.12 179.389C427.845 179.246 427.604 179.046 427.414 178.801L424.668 175.27C424.494 175.047 424.366 174.792 424.291 174.52C424.217 174.248 424.196 173.963 424.231 173.683C424.266 173.403 424.356 173.132 424.495 172.887C424.635 172.641 424.822 172.426 425.045 172.252L425.143 172.175C425.366 172.002 425.621 171.874 425.893 171.799C426.166 171.724 426.45 171.703 426.731 171.738C427.011 171.773 427.282 171.863 427.527 172.003C427.773 172.143 427.988 172.329 428.162 172.553C428.3 172.731 428.476 172.877 428.676 172.981C428.877 173.085 429.097 173.144 429.323 173.155C429.548 173.166 429.773 173.128 429.983 173.044C430.192 172.96 430.381 172.832 430.537 172.668L436.113 166.781C436.506 166.367 437.046 166.126 437.616 166.111C438.186 166.095 438.739 166.307 439.153 166.698L439.245 166.785C439.45 166.98 439.615 167.212 439.73 167.47C439.845 167.728 439.908 168.006 439.916 168.288C439.923 168.571 439.875 168.852 439.774 169.115C439.673 169.379 439.521 169.62 439.327 169.825L430.673 178.96C430.472 179.172 430.23 179.341 429.962 179.457C429.694 179.572 429.405 179.632 429.112 179.632Z" fill="#008163"/>
<path d="M343.306 401.592C339.857 401.592 336.487 400.569 333.619 398.654C330.752 396.738 328.517 394.015 327.198 390.829C325.878 387.643 325.533 384.137 326.206 380.755C326.878 377.373 328.539 374.266 330.977 371.828C333.416 369.389 336.522 367.729 339.904 367.056C343.286 366.383 346.792 366.729 349.978 368.048C353.164 369.368 355.887 371.603 357.803 374.47C359.718 377.337 360.741 380.708 360.741 384.156C360.736 388.779 358.897 393.211 355.629 396.479C352.36 399.748 347.928 401.587 343.306 401.592ZM343.306 368.722C340.253 368.722 337.269 369.627 334.731 371.323C332.193 373.019 330.215 375.43 329.046 378.25C327.878 381.07 327.572 384.174 328.168 387.168C328.764 390.162 330.234 392.912 332.392 395.07C334.551 397.229 337.301 398.699 340.295 399.294C343.289 399.89 346.392 399.584 349.212 398.416C352.033 397.248 354.443 395.27 356.139 392.731C357.835 390.193 358.74 387.209 358.74 384.156C358.735 380.064 357.108 376.141 354.214 373.248C351.321 370.354 347.398 368.727 343.306 368.722Z" fill="#008163"/>
<path d="M342.075 390.725C342.04 390.725 342.005 390.724 341.97 390.722C341.661 390.707 341.358 390.625 341.083 390.483C340.808 390.34 340.567 390.139 340.377 389.894L337.631 386.363C337.457 386.14 337.329 385.885 337.254 385.613C337.179 385.341 337.159 385.057 337.194 384.776C337.229 384.496 337.319 384.225 337.458 383.98C337.598 383.734 337.784 383.519 338.007 383.345L338.106 383.269C338.329 383.095 338.584 382.967 338.856 382.892C339.129 382.817 339.413 382.797 339.694 382.832C339.974 382.867 340.244 382.957 340.49 383.096C340.736 383.236 340.951 383.423 341.125 383.646C341.263 383.824 341.439 383.97 341.639 384.074C341.84 384.178 342.06 384.237 342.286 384.248C342.511 384.259 342.736 384.222 342.946 384.138C343.155 384.053 343.344 383.925 343.5 383.761L349.076 377.874C349.469 377.461 350.009 377.22 350.579 377.204C351.149 377.189 351.702 377.4 352.116 377.791L352.208 377.879C352.413 378.073 352.578 378.305 352.693 378.563C352.808 378.821 352.871 379.099 352.879 379.382C352.886 379.664 352.838 379.945 352.737 380.209C352.636 380.472 352.484 380.714 352.29 380.919L343.636 390.053C343.435 390.265 343.193 390.434 342.925 390.55C342.656 390.665 342.367 390.725 342.075 390.725Z" fill="#008163"/>
<path d="M152.224 166.488C148.775 166.488 145.405 165.466 142.537 163.55C139.67 161.634 137.435 158.911 136.116 155.725C134.796 152.539 134.451 149.033 135.124 145.651C135.796 142.269 137.457 139.162 139.895 136.724C142.334 134.286 145.44 132.625 148.822 131.952C152.204 131.279 155.71 131.625 158.896 132.944C162.082 134.264 164.805 136.499 166.721 139.366C168.636 142.233 169.659 145.604 169.659 149.053C169.654 153.675 167.815 158.107 164.547 161.376C161.278 164.644 156.846 166.483 152.224 166.488ZM152.224 133.618C149.171 133.618 146.187 134.523 143.649 136.219C141.111 137.915 139.133 140.326 137.964 143.146C136.796 145.966 136.49 149.07 137.086 152.064C137.682 155.058 139.152 157.808 141.31 159.967C143.469 162.125 146.219 163.595 149.213 164.191C152.207 164.786 155.31 164.481 158.13 163.312C160.951 162.144 163.361 160.166 165.057 157.628C166.753 155.089 167.658 152.105 167.658 149.053C167.654 144.961 166.026 141.037 163.132 138.144C160.239 135.25 156.316 133.623 152.224 133.618Z" fill="#008163"/>
<path d="M150.993 155.621C150.958 155.621 150.923 155.62 150.888 155.618C150.579 155.603 150.276 155.522 150.001 155.379C149.726 155.236 149.485 155.035 149.295 154.791L146.548 151.259C146.375 151.037 146.247 150.782 146.172 150.509C146.097 150.237 146.077 149.953 146.112 149.672C146.147 149.392 146.237 149.122 146.376 148.876C146.516 148.631 146.702 148.415 146.925 148.242L147.024 148.165C147.247 147.991 147.502 147.863 147.774 147.788C148.047 147.713 148.331 147.693 148.612 147.728C148.892 147.763 149.162 147.853 149.408 147.992C149.654 148.132 149.869 148.319 150.042 148.542C150.181 148.72 150.357 148.866 150.557 148.97C150.758 149.074 150.978 149.134 151.204 149.145C151.429 149.156 151.654 149.118 151.864 149.034C152.073 148.95 152.262 148.821 152.418 148.658L157.994 142.77C158.387 142.357 158.927 142.116 159.497 142.1C160.067 142.085 160.62 142.296 161.034 142.688L161.126 142.775C161.331 142.969 161.496 143.202 161.611 143.46C161.726 143.717 161.789 143.995 161.797 144.278C161.804 144.56 161.756 144.841 161.655 145.105C161.554 145.369 161.402 145.61 161.208 145.815L152.554 154.949C152.353 155.162 152.111 155.331 151.843 155.446C151.574 155.562 151.285 155.621 150.993 155.621Z" fill="#008163"/>
<path d="M291.81 466.419C251.38 466.419 204.916 421.553 163.806 442.87C39.3378 507.412 56.4716 399.411 20.7129 359.244L21.8869 356.889C61.3425 392.268 110.604 421.053 164.347 440.131C212.913 457.373 261.843 465.362 305.831 463.254L305.907 466.084C301.261 466.308 296.562 466.42 291.81 466.419Z" fill="#F2F2F2"/>
<path d="M236.35 163.075C241.017 163.075 244.801 158.001 244.801 151.743C244.801 145.484 241.017 140.41 236.35 140.41C231.683 140.41 227.899 145.484 227.899 151.743C227.899 158.001 231.683 163.075 236.35 163.075Z" fill="#008163"/>
<path d="M333.959 339.863C330.095 342.438 326.141 336.311 330.079 333.851C333.942 331.276 337.897 337.404 333.959 339.863Z" fill="#E6E6E6"/>
<path d="M311.72 133.589C317.797 133.589 322.724 128.662 322.724 122.584C322.724 116.506 317.797 111.579 311.72 111.579C305.642 111.579 300.715 116.506 300.715 122.584C300.715 128.662 305.642 133.589 311.72 133.589Z" fill="#008163"/>
<path opacity="0.3" d="M350.21 182.89L412.83 0L344.069 180.7C343.729 181.129 343.496 181.633 343.39 182.17C343.284 182.707 343.307 183.262 343.457 183.788C343.608 184.314 343.882 184.797 344.257 185.196C344.631 185.595 345.095 185.899 345.611 186.083C346.127 186.267 346.679 186.325 347.221 186.253C347.764 186.181 348.281 185.98 348.731 185.668C349.181 185.356 349.549 184.941 349.807 184.458C350.064 183.975 350.202 183.437 350.21 182.89Z" fill="#F0F0F0"/>
<path d="M287.003 405.703C292.916 405.703 297.71 400.909 297.71 394.996C297.71 389.082 292.916 384.289 287.003 384.289C281.09 384.289 276.296 389.082 276.296 394.996C276.296 400.909 281.09 405.703 287.003 405.703Z" fill="#F2F2F2"/>
<path d="M183.304 399.08C183.304 399.08 156.612 416.461 163.67 428.011C163.913 428.409 131.787 470.841 131.787 470.841L71.1387 466.99L69.002 487.29L122.995 502.927C122.995 502.927 136.204 512.632 146.408 501.94C156.612 491.247 190.601 458.505 190.601 458.505L192.24 524.611L175.178 616.214L200.654 614.599L225.45 522.698L234.603 418.598L183.304 399.08Z" fill="#2F2E41"/>
<path d="M202.317 294.765L191.092 303.272L178.298 330.577L190.601 347.286C190.601 347.286 200.949 365.22 184.385 382.589C167.821 399.957 155.102 418.507 168.36 417.845C181.617 417.183 235.313 444.494 235.666 422.119C236.02 399.743 236.735 382.589 236.735 382.589L250.813 346.882C250.813 346.882 259.2 325.581 253.311 319.205C247.423 312.828 239.538 304.68 239.538 304.68L225.2 290.342H212.254L202.317 294.765Z" fill="#008163"/>
<path d="M223.27 242.3C248.451 256.63 227.779 294.438 202.128 280.975C176.948 266.646 197.62 228.838 223.27 242.3Z" fill="#A0616A"/>
<path d="M236.735 250.246C234.971 252.541 231.284 251.464 224.065 253.102C224.081 250.655 223.799 248.215 223.224 245.837C222.686 248.782 221.509 251.573 219.775 254.013C213.507 254.708 221.191 273.752 217.982 287.753C213.847 258.215 205.149 265.953 209.543 271.812C212.356 275.563 210.48 286.815 202.041 281.189C188.117 287.807 168.286 254.934 190.265 239.517C189.873 231.184 199.145 229.868 204.854 232.43C218.711 222.107 234.542 235.334 236.735 250.246Z" fill="#2F2E41"/>
<path d="M172.126 228.692C166.519 263.162 136.47 222.353 122.341 256.274C117.899 268.559 125.521 277.347 130.342 287.543C131.442 295.923 120.541 300.175 119.399 307.888C119.081 325.572 147.611 324.49 155.587 313.333C163.782 301.654 153.996 285.983 158.922 273.447C165.845 256.042 194 255.913 196.453 235.663C191.703 228.899 178.929 221.151 172.126 228.692Z" fill="#2F2E41"/>
<path d="M194.836 232.06C194.653 232.138 194.47 232.215 194.306 232.302H194.296C194.141 232.379 193.987 232.456 193.833 232.543C193.813 232.553 193.804 232.562 193.784 232.572C193.582 232.379 193.379 232.186 193.166 231.993C193.112 232.307 193.125 232.63 193.205 232.939L193.234 233.055C193.427 233.257 193.63 233.451 193.842 233.653C194.035 233.508 194.219 233.354 194.412 233.209C194.528 233.113 194.643 233.016 194.769 232.92C194.788 232.669 194.817 232.379 194.846 232.06L194.836 232.06ZM200.647 221.326C196.342 220.342 194.952 225.969 194.537 228.682C192.973 218.836 186.467 221.934 188.716 228.653C189.433 230.642 190.562 232.458 192.027 233.981C192.23 234.213 192.452 234.445 192.684 234.676C192.423 236.028 193.736 235.68 195.512 234.435C196.824 233.502 198.037 232.438 199.132 231.259C202.675 227.543 205.435 222.571 200.647 221.326ZM200.783 226.867C199.454 228.58 197.964 230.161 196.333 231.587C195.821 232.051 195.3 232.495 194.769 232.92C194.759 233.006 194.759 233.084 194.75 233.151C194.712 233.245 194.667 233.335 194.614 233.422C194.074 234.396 193.466 233.866 193.234 233.055C193.215 233.026 193.186 232.997 193.166 232.968C192.395 232.171 191.724 231.283 191.168 230.323C187.182 223.411 193.601 218.71 193.282 231.616C193.224 231.735 193.184 231.862 193.166 231.993C193.112 232.307 193.125 232.63 193.205 232.939L193.234 233.055C193.427 233.257 193.63 233.451 193.842 233.653C194.035 233.508 194.219 233.354 194.412 233.209C194.528 233.113 194.643 233.016 194.769 232.92C194.788 232.669 194.817 232.379 194.846 232.06V232.051C195.097 229.464 195.782 224.811 197.047 223.546C199.827 221.413 203.428 223.72 200.783 226.867ZM194.836 232.06C194.653 232.138 194.47 232.215 194.306 232.302H194.296C194.141 232.379 193.987 232.456 193.833 232.543C193.813 232.553 193.804 232.562 193.784 232.572C193.582 232.379 193.379 232.186 193.166 231.993C193.112 232.307 193.125 232.63 193.205 232.939L193.234 233.055C193.427 233.257 193.63 233.451 193.842 233.653C194.035 233.508 194.219 233.354 194.412 233.209C194.528 233.113 194.643 233.016 194.769 232.92C194.788 232.669 194.817 232.379 194.846 232.06L194.836 232.06Z" fill="#2F2E41"/>
<path d="M427.58 422.104L418.279 446.358L374.652 532.416L412.987 632.528L432.772 627.305L416.465 532.416L463.249 475.571L518.809 513.254C518.809 513.254 543.449 532.491 552.823 514.255C562.197 496.019 622.853 457.23 622.853 457.23L607.847 441.223L537.998 473.911L489.788 406.053L427.58 422.104Z" fill="#2F2E41"/>
<path d="M474.506 307.699L459.197 291.251L432.936 287.638L400.758 310.165L401.082 335.099L416.989 393.854C416.989 393.854 410.93 436.067 427.853 435.643C444.777 435.22 454.001 426.783 460.894 428.5C467.786 430.218 497.087 437.527 498.944 429.871C500.801 422.214 510.671 427.696 510.238 420.453C509.804 413.21 483.517 361 483.517 361L490.053 308.785L474.506 307.699Z" fill="#008163"/>
<path d="M571.439 231.985C571.576 233.349 571.412 234.727 570.959 236.021C570.506 237.315 569.775 238.493 568.817 239.474C567.859 240.455 566.698 241.214 565.415 241.697C564.132 242.181 562.759 242.377 561.392 242.272L526.186 309.228L516.734 294.718L552.719 231.526C553.047 229.242 554.202 227.157 555.965 225.667C557.727 224.176 559.975 223.385 562.283 223.441C564.59 223.498 566.797 224.399 568.484 225.973C570.171 227.548 571.223 229.687 571.439 231.985Z" fill="#FFB6B6"/>
<path d="M460.607 320.149C460.607 320.149 459.211 332.059 472.618 335.007C486.026 337.956 523.173 316.73 529.262 313.488C531.169 312.473 533.757 307.497 536.412 301.141C537.604 298.287 538.809 295.155 539.973 291.978C540.646 290.139 543.87 289.638 544.505 287.814C545.136 286.001 543.178 282.866 543.749 281.157C546.461 273.046 548.383 266.611 548.383 266.611L539.497 249.918C527.068 256.489 520.694 270.962 516.005 287.636L460.607 320.149Z" fill="#008163"/>
<path d="M304.02 247.361C304.229 248.716 304.732 250.009 305.494 251.148C306.257 252.287 307.259 253.246 308.432 253.956C309.605 254.666 310.919 255.11 312.282 255.257C313.645 255.404 315.024 255.25 316.321 254.807L367.163 310.822L372.683 294.408L322.029 242.232C321.139 240.102 319.5 238.373 317.42 237.371C315.341 236.369 312.966 236.165 310.746 236.798C308.526 237.43 306.616 238.854 305.376 240.801C304.136 242.748 303.654 245.082 304.02 247.361Z" fill="#FFB6B6"/>
<path d="M433.388 304.982C433.388 304.982 437.721 316.164 425.477 322.374C413.234 328.584 371.958 317.33 365.251 315.716C363.15 315.21 359.4 311.04 355.239 305.55C353.37 303.085 351.42 300.355 349.498 297.57C348.386 295.959 345.139 296.28 344.068 294.673C343.003 293.076 344.115 289.551 343.134 288.039C338.478 280.865 335.007 275.115 335.007 275.115L339.433 256.73C353.11 259.981 362.904 272.398 371.616 287.368L433.388 304.982Z" fill="#008163"/>
<path d="M446.59 283.454C460.39 283.454 471.577 272.267 471.577 258.467C471.577 244.667 460.39 233.48 446.59 233.48C432.79 233.48 421.604 244.667 421.604 258.467C421.604 272.267 432.79 283.454 446.59 283.454Z" fill="#FFB6B6"/>
<path d="M475.113 244.16C472.484 240.093 467.552 237.383 462.771 238.145C462.326 235.093 461.052 232.222 459.088 229.845C457.124 227.467 454.546 225.673 451.634 224.66C448.721 223.646 445.587 223.45 442.571 224.095C439.555 224.739 436.774 226.199 434.531 228.314C433.793 227.795 432.933 227.474 432.035 227.384C431.137 227.295 430.231 227.438 429.405 227.801C427.76 228.549 426.328 229.699 425.241 231.143C422.498 234.565 420.733 238.667 420.135 243.012C419.538 247.356 420.13 251.782 421.848 255.817C421.263 253.693 423.392 251.695 425.543 251.218C427.694 250.741 429.951 251.192 432.132 250.882C434.928 250.484 437.441 248.862 440.241 248.497C442.615 248.342 444.997 248.649 447.256 249.398C449.514 250.148 451.892 250.467 454.268 250.34C456.625 250.06 459.66 258.992 459.62 265.282C459.612 266.475 459.857 268.005 461.022 268.258C462.457 268.57 463.289 266.589 464.654 266.05C465.284 265.87 465.958 265.94 466.536 266.248C467.114 266.555 467.551 267.075 467.753 267.698C467.925 268.331 467.944 268.996 467.807 269.637C467.67 270.279 467.382 270.879 466.967 271.386C466.127 272.393 465.131 273.257 464.016 273.946L464.578 274.414C465.112 274.978 465.825 275.339 466.596 275.435C467.367 275.531 468.147 275.355 468.803 274.939C470.092 274.066 471.136 272.877 471.836 271.485C474.472 267.409 476.356 262.894 477.399 258.154C478.28 253.393 477.741 248.226 475.113 244.16Z" fill="#2F2E41"/>
<path d="M659.964 342.71C627.735 367.121 563.607 359.409 543.707 401.223C483.453 527.824 431.905 431.385 379.148 420.955L378.663 418.369C431.475 422.75 488.124 415.953 542.484 398.713C591.609 383.135 635.438 359.961 669.23 331.722L671 333.932C667.432 336.915 663.754 339.841 659.964 342.71Z" fill="#F2F2F2"/>
<path d="M523.7 674.294C522.932 676.568 84.671 676.568 83.8428 674.299C84.6094 672.02 522.871 672.02 523.7 674.294Z" fill="#CCCCCC"/>
</g>
<defs>
<clipPath id="clip0_38_6770">
<rect width="671" height="676" fill="white"/>
</clipPath>
</defs>
</svg>
