<svg width="245" height="259" viewBox="0 0 245 259" fill="none" xmlns="http://www.w3.org/2000/svg">
<g clip-path="url(#clip0_38_7064)">
<path d="M93.7903 41.2127C100.205 41.2127 105.405 36.0249 105.405 29.6254C105.405 23.2259 100.205 18.0381 93.7903 18.0381C87.3758 18.0381 82.1758 23.2259 82.1758 29.6254C82.1758 36.0249 87.3758 41.2127 93.7903 41.2127Z" fill="#FD6584"/>
<path d="M119.785 24.1386C119.457 23.0671 118.822 22.1145 117.959 21.3982C117.096 20.6819 116.041 20.2331 114.926 20.107C114.9 20.1048 114.873 20.1048 114.847 20.107C114.816 20.0972 114.784 20.09 114.752 20.0853C110.863 19.5819 106.539 20.8057 103.629 23.4703C102.549 24.4438 101.685 25.6324 101.093 26.9594C100.554 26.2243 99.8426 25.6314 99.0218 25.2321C98.2009 24.8329 97.2949 24.6393 96.3821 24.668C95.2049 24.7457 94.0804 25.1836 93.1618 25.9222C92.2433 26.6607 91.5754 27.664 91.2492 28.7951C91.2134 28.9332 91.2232 29.0793 91.2773 29.2114C91.3314 29.3436 91.4268 29.4548 91.5494 29.5285C91.8992 29.827 92.3152 30.0382 92.763 30.1447C93.7243 30.3487 94.6943 30.5353 95.6644 30.7045C97.5609 31.0343 99.4676 31.3019 101.384 31.5074C102.65 31.6419 103.919 31.7489 105.191 31.8285C107.818 31.9934 110.458 32.0325 113.09 31.95C114.395 31.9066 115.648 31.8632 116.84 31.2904C117.708 30.8642 118.45 30.2196 118.993 29.42C119.504 28.6508 119.839 27.7794 119.976 26.8669C120.113 25.9544 120.047 25.0231 119.785 24.1386Z" fill="#E6E6E6"/>
<path d="M95.8905 41.02C95.8685 40.5344 95.7866 40.0535 95.6469 39.5879C95.3178 38.5165 94.6822 37.5642 93.8183 36.8481C92.9544 36.1319 91.8997 35.6829 90.7837 35.5563C90.7591 35.5541 90.7343 35.5541 90.7097 35.5563C90.6769 35.547 90.6435 35.5398 90.6097 35.5346C88.4574 35.2716 86.2734 35.4955 84.2197 36.1899C81.0617 37.2444 78.2908 39.3709 76.9554 42.4086C76.4153 41.6731 75.7037 41.0799 74.882 40.6807C74.0604 40.2814 73.1535 40.088 72.2401 40.1173C71.0629 40.1949 69.9384 40.6329 69.0198 41.3714C68.1012 42.11 67.4334 43.1132 67.1072 44.2443C67.0734 44.3825 67.0842 44.5279 67.1381 44.6596C67.192 44.7913 67.2862 44.9027 67.4074 44.9777C67.7577 45.2754 68.1735 45.4865 68.621 45.594C69.5866 45.7979 70.5523 45.9845 71.5267 46.1538C73.4233 46.4836 75.3285 46.7512 77.2425 46.9566C81.1309 47.3731 85.0435 47.521 88.9524 47.3993C90.253 47.3559 91.5101 47.3125 92.702 46.7397C93.5692 46.3134 94.3099 45.6687 94.8508 44.8693C95.6134 43.7356 95.9789 42.3823 95.8905 41.02Z" fill="#E6E6E6"/>
<path d="M181.882 187.249H171.295V22.3537C170.581 21.8286 169.863 21.3079 169.137 20.8001C168.993 20.7003 168.85 20.6005 168.706 20.5007C160.332 14.6572 151.274 9.85659 141.733 6.20575L139.679 34.4571L139.679 34.4588H126.469V1.47115C125.608 1.25851 124.746 1.05888 123.876 0.872275V34.4588H73.9917V0C73.1261 0.160568 72.2605 0.325478 71.3992 0.503405V34.4588H57.7537L57.7535 34.4571L55.6003 4.83007C46.3148 8.04116 37.4408 12.3323 29.1617 17.6148C28.8746 17.7971 28.5875 17.9793 28.3004 18.1703C27.7219 18.5435 27.1433 18.9254 26.5735 19.3116V187.249H11.6664C9.75917 187.248 7.88078 187.713 6.1959 188.605C4.51102 189.496 3.07111 190.787 2.0024 192.363C0.933686 193.939 0.268806 195.752 0.0660645 197.644C-0.136677 199.536 0.128905 201.449 0.839522 203.214C1.05273 203.748 1.30725 204.265 1.60075 204.759C1.97984 205.404 2.41973 206.012 2.91443 206.573C4.00721 207.816 5.35323 208.811 6.86252 209.493C8.37182 210.175 10.0096 210.527 11.6664 210.527H181.882C184.976 210.527 187.944 209.301 190.132 207.118C192.319 204.935 193.549 201.975 193.549 198.888C193.549 195.801 192.319 192.841 190.132 190.658C187.944 188.475 184.976 187.249 181.882 187.249ZM136.835 73.6802L128.6 187.249H68.8327L60.5984 73.6802H136.835ZM139.492 37.0448L137.461 65.0601H126.469V37.0448H139.492ZM123.876 37.0448V65.0601H104.027C103.629 64.282 103.024 63.6286 102.278 63.1723C101.531 62.7159 100.673 62.4743 99.7975 62.474H97.2054C96.33 62.4743 95.4717 62.7159 94.7253 63.1723C93.979 63.6286 93.3736 64.282 92.9761 65.0601H73.9917V37.0448H123.876ZM71.3992 65.0601H59.972L57.9407 37.0448H71.3992V65.0601Z" fill="#F2F2F2"/>
<path d="M1.02979 206.016C4.80865 210.484 8.89591 214.682 13.2617 218.58L178.375 219.014C182.741 215.116 186.828 210.918 190.607 206.45L1.02979 206.016Z" fill="#3F3D56"/>
<path d="M84.4131 164.004V208.512H115.667V164.004C115.668 163.684 115.565 163.372 115.375 163.114C115.185 162.856 114.917 162.666 114.61 162.572C114.466 162.524 114.314 162.501 114.162 162.502H85.9225C85.7246 162.502 85.5285 162.541 85.3454 162.616C85.1624 162.691 84.9961 162.802 84.8559 162.941C84.7157 163.081 84.6044 163.246 84.5284 163.429C84.4525 163.611 84.4133 163.806 84.4131 164.004ZM96.6102 179.297C96.6185 178.42 96.9736 177.581 97.5984 176.964C98.2232 176.346 99.0671 176 99.9466 176C100.826 176 101.67 176.346 102.295 176.964C102.919 177.581 103.275 178.42 103.283 179.297V184.461C103.278 185.341 102.925 186.183 102.3 186.804C101.675 187.424 100.828 187.773 99.9466 187.773C99.0647 187.773 98.2186 187.424 97.5934 186.804C96.9682 186.183 96.6147 185.341 96.6102 184.461V179.297Z" fill="#2F2E41"/>
<path d="M84.3174 207.088V211.38C84.3181 211.603 84.4066 211.816 84.5638 211.973C84.721 212.131 84.9341 212.22 85.1569 212.222H114.923C115.146 212.221 115.36 212.132 115.517 211.974C115.675 211.816 115.763 211.603 115.763 211.38V207.088H84.3174Z" fill="#3F3D56"/>
<path d="M35.2461 96.9472V178.212C35.2469 179.248 35.6597 180.241 36.3937 180.973C37.1277 181.705 38.123 182.117 39.161 182.118H159.871C160.909 182.117 161.904 181.705 162.638 180.973C163.372 180.241 163.785 179.248 163.786 178.212V96.9472C163.783 95.9125 163.37 94.9209 162.636 94.1897C161.902 93.4584 160.908 93.0471 159.871 93.0458H39.161C38.1239 93.0471 37.1295 93.4584 36.3957 94.1897C35.662 94.9209 35.2486 95.9125 35.2461 96.9472Z" fill="#3F3D56"/>
<path d="M38.0781 97.9583V177.21C38.0791 177.763 38.2998 178.293 38.692 178.685C39.0842 179.076 39.6158 179.296 40.1704 179.297H158.866C159.421 179.296 159.952 179.076 160.344 178.685C160.737 178.293 160.957 177.763 160.958 177.21V97.9583C160.958 97.4043 160.738 96.873 160.346 96.4808C159.953 96.0887 159.421 95.8678 158.866 95.8666H40.1704C39.6151 95.8678 39.083 96.0887 38.6907 96.4808C38.2985 96.873 38.0782 97.4043 38.0781 97.9583Z" fill="#008163"/>
<path d="M62.2809 213.233C62.4017 213.384 62.5553 213.506 62.7301 213.59C62.9049 213.673 63.0964 213.716 63.2901 213.715H133.906C134.099 213.715 134.29 213.672 134.464 213.589C134.639 213.506 134.792 213.385 134.914 213.235C135.036 213.086 135.122 212.911 135.168 212.724C135.213 212.536 135.216 212.341 135.176 212.153L134.08 206.958C134.035 206.746 133.937 206.549 133.796 206.385C133.654 206.22 133.474 206.094 133.271 206.016C133.124 205.959 132.968 205.93 132.81 205.93H64.3819C64.2242 205.93 64.0677 205.959 63.9209 206.016C63.718 206.094 63.5377 206.22 63.3963 206.385C63.255 206.549 63.1572 206.746 63.1118 206.958L62.0156 212.153C61.9766 212.341 61.9802 212.536 62.0261 212.723C62.072 212.91 62.159 213.084 62.2809 213.233Z" fill="#2F2E41"/>
<path d="M64.3816 207.015C64.3602 207.015 64.3389 207.018 64.3188 207.026C64.2842 207.038 64.2531 207.058 64.2282 207.084C64.2033 207.111 64.1855 207.144 64.1763 207.179L63.0794 212.376C63.0736 212.406 63.0746 212.437 63.0822 212.467C63.0898 212.497 63.104 212.524 63.1236 212.548L63.1285 212.554C63.1474 212.578 63.1719 212.598 63.2 212.611C63.228 212.625 63.2589 212.631 63.2899 212.63H133.906C133.937 212.63 133.967 212.624 133.995 212.611C134.023 212.598 134.048 212.578 134.067 212.554C134.088 212.531 134.103 212.503 134.111 212.473C134.119 212.443 134.119 212.412 134.113 212.382L133.016 207.181C133.008 207.147 132.992 207.116 132.969 207.089C132.946 207.063 132.916 207.043 132.884 207.03C132.86 207.02 132.835 207.015 132.81 207.015H64.3816Z" fill="white"/>
<path d="M43.9867 106.784H155.05C155.165 106.781 155.275 106.734 155.356 106.651C155.436 106.569 155.482 106.458 155.482 106.343C155.482 106.228 155.436 106.117 155.356 106.035C155.275 105.953 155.165 105.905 155.05 105.902H43.9867C43.8712 105.905 43.7614 105.953 43.6806 106.035C43.5999 106.117 43.5547 106.228 43.5547 106.343C43.5547 106.458 43.5999 106.569 43.6806 106.651C43.7614 106.734 43.8712 106.781 43.9867 106.784Z" fill="#3F3D56"/>
<path d="M147.489 103.653C148.919 103.653 150.078 102.471 150.078 101.013C150.078 99.5549 148.919 98.373 147.489 98.373C146.06 98.373 144.901 99.5549 144.901 101.013C144.901 102.471 146.06 103.653 147.489 103.653Z" fill="#3F3D56"/>
<path d="M138.548 103.653C139.977 103.653 141.136 102.471 141.136 101.013C141.136 99.5549 139.977 98.373 138.548 98.373C137.118 98.373 135.959 99.5549 135.959 101.013C135.959 102.471 137.118 103.653 138.548 103.653Z" fill="#3F3D56"/>
<path d="M129.606 103.653C131.035 103.653 132.194 102.471 132.194 101.013C132.194 99.5549 131.035 98.373 129.606 98.373C128.176 98.373 127.018 99.5549 127.018 101.013C127.018 102.471 128.176 103.653 129.606 103.653Z" fill="#3F3D56"/>
<path d="M48.897 99.5076C48.8967 99.57 48.9087 99.6318 48.9324 99.6896C48.9561 99.7474 48.9909 99.7999 49.0349 99.8443C49.079 99.8886 49.1313 99.9238 49.189 99.948C49.2467 99.9721 49.3086 99.9847 49.3711 99.985H55.722C55.8475 99.982 55.9669 99.9302 56.0547 99.8406C56.1424 99.751 56.1916 99.6307 56.1916 99.5054C56.1916 99.3801 56.1424 99.2598 56.0547 99.1702C55.9669 99.0806 55.8475 99.0288 55.722 99.0259H49.3711C49.2443 99.0274 49.1233 99.0789 49.0345 99.1692C48.9456 99.2594 48.8962 99.3811 48.897 99.5076Z" fill="#3F3D56"/>
<path d="M48.897 101.308C48.8967 101.371 48.9087 101.433 48.9324 101.491C48.956 101.548 48.9909 101.601 49.0349 101.645C49.079 101.69 49.1313 101.725 49.189 101.749C49.2467 101.773 49.3086 101.786 49.3711 101.786H55.722C55.8476 101.783 55.9672 101.731 56.055 101.642C56.1429 101.552 56.1921 101.432 56.1921 101.306C56.1921 101.181 56.1429 101.061 56.055 100.971C55.9672 100.881 55.8476 100.83 55.722 100.827H49.3711C49.2443 100.828 49.1233 100.88 49.0345 100.97C48.9456 101.06 48.8962 101.182 48.897 101.308Z" fill="#3F3D56"/>
<path d="M48.897 103.105C48.8962 103.232 48.9456 103.353 49.0345 103.444C49.1233 103.534 49.2443 103.585 49.3711 103.587H55.722C55.8475 103.584 55.9669 103.532 56.0547 103.443C56.1424 103.353 56.1916 103.233 56.1916 103.107C56.1916 102.982 56.1424 102.862 56.0547 102.772C55.9669 102.683 55.8475 102.631 55.722 102.628H49.3711C49.3086 102.628 49.2467 102.641 49.189 102.665C49.1313 102.689 49.079 102.724 49.0349 102.768C48.9909 102.813 48.956 102.865 48.9324 102.923C48.9087 102.981 48.8967 103.043 48.897 103.105Z" fill="#3F3D56"/>
<path d="M138.501 120.234H60.5347C59.5104 120.235 58.5285 120.642 57.8042 121.364C57.08 122.087 56.6726 123.067 56.6714 124.088V161.947C56.6725 162.968 57.0799 163.948 57.8042 164.671C58.5284 165.393 59.5104 165.8 60.5347 165.801H138.501C139.525 165.8 140.507 165.393 141.232 164.671C141.956 163.948 142.363 162.968 142.364 161.947V124.088C142.363 123.067 141.956 122.087 141.231 121.364C140.507 120.642 139.525 120.235 138.501 120.234ZM141.494 124.088V135.134H114.09V121.102H138.501C139.295 121.103 140.055 121.418 140.617 121.978C141.178 122.538 141.493 123.297 141.494 124.088ZM85.8157 150.034V136.002H113.22V150.034H85.8157ZM113.22 150.902V164.933H85.8157V150.902H113.22ZM84.9457 150.034H57.5414V136.002H84.9457V150.034ZM85.8157 135.134V121.102H113.22V135.134H85.8157ZM114.09 136.002H141.494V150.034H114.09V136.002ZM60.5347 121.102H84.9457V135.134H57.5414V124.088C57.5423 123.297 57.8579 122.538 58.4191 121.978C58.9802 121.418 59.7411 121.103 60.5347 121.102ZM57.5414 161.947V150.902H84.9457V164.933H60.5347C59.741 164.932 58.9802 164.617 58.419 164.057C57.8579 163.497 57.5422 162.738 57.5414 161.947ZM138.501 164.933H114.09V150.902H141.494V161.947C141.494 162.738 141.178 163.497 140.617 164.057C140.056 164.617 139.295 164.932 138.501 164.933Z" fill="#3F3D56"/>
<path d="M95.5556 129.846C94.8637 128.704 94.0438 127.485 92.7599 127.113C91.2729 126.681 89.7455 127.538 88.4499 128.385C84.5753 130.916 80.8439 133.658 77.2729 136.6L77.2769 136.645L85.6173 136.071C87.6259 135.933 89.7036 135.775 91.4787 134.827C92.1523 134.468 92.8089 133.987 93.5721 133.954C94.5204 133.912 95.3473 134.573 95.9971 135.263C99.8409 139.347 100.953 145.591 105.266 149.179C102.546 142.489 99.2995 136.024 95.5556 129.846Z" fill="white"/>
<path d="M119.183 164.481C118.758 163.946 118.584 163.82 118.165 163.28C114.751 158.875 111.542 154.321 108.538 149.618C106.498 146.424 104.559 143.169 102.721 139.853C101.846 138.276 100.995 136.687 100.168 135.085C99.5261 133.844 98.8986 132.594 98.2855 131.338C98.1102 130.979 97.9398 130.618 97.7703 130.257C97.3709 129.407 96.9788 128.553 96.5579 127.715C96.1229 126.709 95.4568 125.818 94.6135 125.116C94.2127 124.812 93.7334 124.628 93.2316 124.585C92.5248 124.589 91.8327 124.787 91.231 125.157C86.6762 127.546 82.4247 130.471 78.5677 133.869C74.7047 137.254 71.2518 141.078 68.2795 145.263C68.1885 145.392 67.9735 145.269 68.0653 145.138C68.4267 144.628 68.7953 144.124 69.171 143.625C73.8431 137.426 79.5718 132.095 86.0952 127.876C87.1927 127.166 88.3109 126.49 89.4496 125.847C90.0236 125.523 90.6 125.203 91.1864 124.902C91.7482 124.574 92.3785 124.379 93.0282 124.333C95.2628 124.298 96.4198 126.823 97.2146 128.522C97.4643 129.056 97.7171 129.589 97.9729 130.121C98.9397 132.138 99.9437 134.137 100.985 136.118C101.628 137.34 102.284 138.556 102.955 139.764C105.042 143.528 107.261 147.215 109.611 150.825C112.724 155.608 115.812 159.834 119.358 164.306C119.456 164.43 119.281 164.607 119.183 164.481Z" fill="white"/>
<path d="M78.347 132.623C78.2172 132.478 78.0881 132.334 77.9575 132.189C76.927 131.052 75.8213 129.929 74.4062 129.277C73.7315 128.956 72.995 128.786 72.2477 128.778C71.4766 128.799 70.7164 128.964 70.0065 129.265C69.6691 129.4 69.3391 129.552 69.0141 129.715C68.6427 129.901 68.278 130.1 67.915 130.301C67.2335 130.677 66.5608 131.07 65.897 131.479C64.5763 132.293 63.2969 133.17 62.0588 134.109C61.417 134.595 60.7885 135.098 60.1732 135.617C59.6009 136.099 59.0402 136.593 58.491 137.101C58.3736 137.209 58.1983 137.034 58.3157 136.926C58.4604 136.792 58.6068 136.658 58.7532 136.526C59.1667 136.153 59.5868 135.787 60.0136 135.429C60.7918 134.774 61.5901 134.144 62.4086 133.539C63.6814 132.599 64.998 131.722 66.3585 130.909C67.0383 130.503 67.7275 130.114 68.426 129.742C68.637 129.63 68.8503 129.52 69.0662 129.416C69.5559 129.17 70.0648 128.963 70.5879 128.798C71.3288 128.559 72.1128 128.482 72.8862 128.573C73.633 128.681 74.3524 128.93 75.0067 129.305C76.3961 130.08 77.4737 131.278 78.5223 132.447C78.6282 132.566 78.4537 132.741 78.347 132.623Z" fill="white"/>
<path d="M106.815 144.404L110.144 143.19L111.797 142.586C112.331 142.372 112.876 142.185 113.429 142.026C113.913 141.888 114.426 141.894 114.906 142.044C115.334 142.203 115.726 142.445 116.058 142.757C116.398 143.069 116.714 143.405 117.003 143.764C117.363 144.195 117.718 144.631 118.074 145.066C119.544 146.859 121.004 148.661 122.455 150.47C123.906 152.279 125.347 154.095 126.778 155.92C128.213 157.749 129.638 159.585 131.053 161.429C131.226 161.655 131.4 161.881 131.573 162.108C131.668 162.233 131.884 162.109 131.787 161.983C130.361 160.12 128.926 158.265 127.481 156.417C126.032 154.565 124.573 152.721 123.104 150.885C121.635 149.049 120.156 147.221 118.667 145.401C118.296 144.947 117.925 144.494 117.553 144.042C117.239 143.66 116.928 143.274 116.584 142.919C116.291 142.567 115.931 142.275 115.525 142.062C115.119 141.849 114.674 141.717 114.217 141.675C113.664 141.695 113.118 141.814 112.607 142.028C112.051 142.229 111.496 142.434 110.94 142.637L107.587 143.86L106.749 144.166C106.6 144.22 106.664 144.459 106.815 144.404Z" fill="white"/>
<path d="M73.968 130.707C73.1125 130.287 72.1602 130.101 71.2089 130.169C70.2576 130.237 69.3415 130.556 68.5547 131.094C71.5202 131.604 74.4533 132.287 77.3389 133.139C76.1406 132.438 75.2033 131.341 73.968 130.707Z" fill="white"/>
<path d="M68.5381 131.091L68.2124 131.355C68.3226 131.262 68.4371 131.176 68.5548 131.094L68.5381 131.091Z" fill="white"/>
<path d="M115.933 144.417C115.642 143.988 115.236 143.65 114.761 143.44L114.303 143.458C117.787 149.6 122.492 154.966 128.13 159.228L115.933 144.417Z" fill="white"/>
<path d="M113.792 137.692C115.247 137.692 116.427 136.515 116.427 135.063C116.427 133.611 115.247 132.433 113.792 132.433C112.336 132.433 111.156 133.611 111.156 135.063C111.156 136.515 112.336 137.692 113.792 137.692Z" fill="white"/>
<path d="M152.039 164.282C152.557 164.281 153.055 164.075 153.422 163.709C153.789 163.343 153.995 162.847 153.996 162.329V121.97C153.996 121.452 153.79 120.955 153.423 120.589C153.056 120.223 152.558 120.017 152.039 120.017C151.519 120.017 151.021 120.223 150.654 120.589C150.287 120.955 150.081 121.452 150.081 121.97V162.329C150.082 162.847 150.288 163.343 150.655 163.709C151.022 164.075 151.52 164.281 152.039 164.282Z" fill="#3F3D56"/>
<path d="M152.039 164.282C152.557 164.281 153.055 164.075 153.422 163.709C153.789 163.343 153.995 162.847 153.996 162.329V153.771C153.77 153.465 153.476 153.215 153.136 153.043C152.796 152.871 152.42 152.782 152.039 152.782C151.657 152.782 151.281 152.871 150.941 153.043C150.601 153.215 150.307 153.465 150.081 153.771V162.329C150.082 162.847 150.288 163.343 150.655 163.709C151.022 164.075 151.52 164.281 152.039 164.282Z" fill="#2F2E41"/>
<path d="M152.038 156.037C152.596 156.036 153.131 155.814 153.526 155.42C153.921 155.027 154.143 154.493 154.143 153.936V144.733C153.901 144.403 153.584 144.135 153.218 143.95C152.853 143.765 152.448 143.668 152.038 143.668C151.628 143.668 151.224 143.765 150.858 143.95C150.493 144.135 150.176 144.403 149.933 144.733V153.936C149.934 154.493 150.156 155.027 150.551 155.42C150.945 155.814 151.48 156.036 152.038 156.037Z" fill="#008163"/>
<path d="M152.038 154.363C152.445 154.363 152.836 154.201 153.123 153.914C153.411 153.627 153.573 153.237 153.574 152.831V146.118C153.397 145.878 153.166 145.682 152.899 145.547C152.632 145.412 152.337 145.342 152.038 145.342C151.739 145.342 151.445 145.412 151.178 145.547C150.911 145.682 150.68 145.878 150.503 146.118V152.831C150.504 153.237 150.666 153.627 150.953 153.914C151.241 154.201 151.631 154.363 152.038 154.363Z" fill="#3F3D56"/>
<path d="M91.6515 209.622C91.3079 209.315 91.1004 208.885 91.0745 208.425C91.0487 207.966 91.2066 207.515 91.5136 207.171L108.616 188.08C108.768 187.91 108.952 187.772 109.158 187.673C109.364 187.574 109.587 187.517 109.815 187.504C110.044 187.491 110.272 187.523 110.488 187.599C110.703 187.674 110.902 187.791 111.072 187.943C111.243 188.095 111.382 188.278 111.481 188.484C111.58 188.689 111.637 188.912 111.65 189.14C111.663 189.367 111.631 189.595 111.555 189.81C111.48 190.026 111.363 190.224 111.21 190.394L94.1083 209.485C93.8006 209.828 93.369 210.035 92.9084 210.06C92.4478 210.086 91.9958 209.929 91.6515 209.622Z" fill="#008163"/>
<path d="M233.524 241.055C233.524 244.219 232.776 246.64 232.867 248.576C227.737 250.81 222.461 252.698 217.077 254.226C216.468 254.4 215.859 254.564 215.246 254.729C211.927 244.592 208.604 235.309 207.294 234.324C204.297 232.081 202.796 241.363 202.796 239.12C202.796 236.876 204.297 236.876 200.552 233.886C196.802 230.896 199.051 217.438 199.051 217.438L193.805 203.981L199.673 182.517L207.294 154.635H214.789C214.789 154.635 215.011 154.795 215.381 155.095C217.255 156.622 222.91 161.726 222.284 167.345C222.097 169.021 222.514 173.89 223.241 180.373C225.451 199.95 230.527 221.231 230.527 226.847C230.527 234.324 233.524 236.568 233.524 241.055Z" fill="#E6E6E6"/>
<path d="M227.239 180.3C227.231 180.278 227.226 180.261 227.218 180.243C227.05 179.792 226.854 179.351 226.63 178.924C225.365 176.55 226.704 172.905 225.278 168.878C222.972 162.351 220.162 158.502 216.043 155.051C215.921 154.947 215.799 154.847 215.673 154.743L215.669 154.739C212.92 152.487 209.605 150.382 205.49 147.761C204.633 147.214 203.737 146.645 202.806 146.047C201.605 145.278 201.671 142.718 201.74 140.01C201.819 137.003 201.901 133.887 200.422 131.943L200.327 131.817L200.174 131.778C195.104 130.777 189.932 130.379 184.767 130.593H184.763C182.57 130.674 180.392 130.993 178.268 131.543C178.112 131.587 177.955 131.63 177.803 131.682C177.685 131.713 177.568 131.752 177.45 131.791L177.355 131.825L177.281 131.895C175.85 133.323 175.519 135.883 175.363 138.552V138.556C175.332 139.042 175.306 139.528 175.284 140.014C175.162 142.61 175.049 145.062 174.092 146.125C171.958 148.537 169.378 150.518 166.493 151.957C162 154.171 158.446 154.101 158.394 154.101L157.98 154.088L157.941 154.496C154.957 160.168 155.07 174.801 154.979 190.472C154.975 191.344 154.969 192.221 154.962 193.102C154.909 200.401 154.77 207.826 154.222 214.592C153.983 217.5 153.674 220.281 153.261 222.881C151.251 235.54 142.147 225.029 137.792 233.452C137.936 234.281 138.176 235.089 138.51 235.861C139.01 236.156 139.524 236.442 140.033 236.729C142.29 237.983 144.59 239.153 146.932 240.24C147.062 240.3 147.193 240.361 147.323 240.417C151.618 242.4 156.045 244.085 160.573 245.46C161.456 245.729 162.339 245.985 163.231 246.228C171.119 248.401 179.241 249.614 187.421 249.843C187.454 249.84 187.487 249.838 187.521 249.839C197.194 249.572 206.805 248.19 216.16 245.721C216.291 245.686 216.421 245.651 216.552 245.616C217.165 245.451 217.774 245.287 218.383 245.113C223.767 243.584 229.043 241.697 234.173 239.463C234.178 239.653 234.197 239.843 234.23 240.031C234.234 240.092 234.243 240.153 234.256 240.213C234.265 240.144 234.273 240.075 234.278 240.005C234.304 239.801 234.325 239.593 234.347 239.385C237.009 213.485 231.481 191.496 227.239 180.3Z" fill="#3F3D56"/>
<path d="M167.457 116.824C170.112 121.668 174.341 125.465 179.448 127.59C184.555 129.715 190.235 130.042 195.552 128.516C200.87 126.991 205.509 123.704 208.704 119.197C211.899 114.69 213.461 109.232 213.131 103.721C212.802 98.2105 210.601 92.9762 206.892 88.8801C203.182 84.7841 198.185 82.0705 192.723 81.1864C187.261 80.3022 181.66 81.3001 176.843 84.0159C172.025 86.7316 168.278 91.0031 166.219 96.127C166.108 96.405 166.008 96.6831 165.907 96.9723C164.743 100.202 164.279 103.642 164.547 107.064C164.814 110.486 165.806 113.813 167.457 116.824Z" fill="#FFB6B6"/>
<path d="M163.956 96.9722C165.004 94.0472 164.547 95.5709 165.606 92.657C164.915 95.2373 166.008 96.6831 165.907 96.9722H194.903V80.1563C186.408 76.7975 178.103 73.9393 173.086 80.1563C168.616 80.1565 164.329 81.9282 161.168 85.0818C158.007 88.2353 156.231 92.5124 156.231 96.9722H163.956Z" fill="#2F2E41"/>
<path d="M174.235 143.717C174.257 143.405 174.29 143.083 174.335 142.771C174.647 140.48 175.428 138.278 176.219 136.098C177.055 133.752 177.902 131.394 178.75 129.047C177.659 133.307 177.991 137.805 179.697 141.859C184.591 138.056 181.503 129.358 187.902 129.358C203.286 129.358 219.116 116.913 219.116 101.554C219.116 86.2064 212.516 74.7289 197.132 74.7289C181.737 74.7289 169.252 81.7577 168.951 97.1057C187.902 101.554 170.656 142.16 174.235 143.717Z" fill="#2F2E41"/>
<path d="M217.194 99.202C227.045 99.202 235.03 91.235 235.03 81.4073C235.03 71.5796 227.045 63.6127 217.194 63.6127C207.343 63.6127 199.357 71.5796 199.357 81.4073C199.357 91.235 207.343 99.202 217.194 99.202Z" fill="#2F2E41"/>
<path d="M245 183.459C244.939 184.375 244.885 185.35 244.839 186.384C243.917 205.865 244.713 232.09 238.497 246.319C237.105 247.079 235.698 247.805 234.277 248.498C234.221 248.524 234.169 248.55 234.121 248.576C233.738 248.763 233.355 248.945 232.972 249.119C232.958 249.131 232.942 249.139 232.924 249.145C228.721 251.126 224.389 252.824 219.957 254.226C219.414 254.4 218.866 254.565 218.318 254.73C218.2 254.765 218.083 254.799 217.965 254.834C209.616 257.297 200.985 258.681 192.283 258.952C191.831 258.965 191.387 258.974 190.957 258.983C190.804 258.987 190.657 258.991 190.509 258.991C190.022 258.996 189.539 259 189.052 259C188.068 259 187.09 258.986 186.115 258.957C177.936 258.728 169.814 257.514 161.926 255.342C161.034 255.099 160.151 254.843 159.268 254.574C154.74 253.198 150.313 251.514 146.018 249.531C145.887 249.474 145.757 249.414 145.627 249.353C143.286 248.268 140.987 247.098 138.728 245.842C138.219 245.556 137.705 245.269 137.205 244.974C136.871 244.202 136.63 243.394 136.487 242.566C135.5 237.831 134.708 241.025 134.143 231.174C133.625 222.143 133.295 213.086 133.173 207.909C133.134 206.529 133.121 205.422 133.116 204.667C133.577 201.378 140.99 197.646 151.799 194.1C152.821 193.766 153.878 193.432 154.961 193.102C157.885 192.204 161.008 191.323 164.27 190.472C172.578 188.302 181.805 186.31 190.961 184.666C195.481 183.858 199.983 183.134 204.354 182.517C212.023 181.433 219.279 180.682 225.486 180.374C226.082 180.343 226.665 180.317 227.239 180.3C227.857 180.274 228.462 180.256 229.053 180.243C237.996 180.048 244.104 180.977 245 183.459Z" fill="#2F2E41"/>
<path opacity="0.2" d="M245 183.459C244.939 184.375 244.885 185.35 244.839 186.384C238.062 179.102 165.053 211.632 134.143 231.174C133.625 222.143 133.295 213.086 133.173 207.909C133.134 206.529 133.121 205.422 133.116 204.667C133.577 201.378 140.99 197.646 151.799 194.1C152.821 193.766 153.878 193.432 154.961 193.102C157.885 192.204 161.008 191.323 164.27 190.472C172.578 188.302 181.805 186.31 190.961 184.666C195.481 183.858 199.983 183.134 204.354 182.517C212.023 181.432 219.279 180.682 225.486 180.374C226.082 180.343 226.665 180.317 227.239 180.3C227.857 180.274 228.462 180.256 229.053 180.243C237.997 180.048 244.104 180.977 245 183.459Z" fill="black"/>
<path d="M96.5247 206.031C97.2093 206.892 98.0749 207.593 99.0604 208.084C100.046 208.576 101.127 208.845 102.229 208.875C103.33 208.904 104.424 208.692 105.435 208.253C106.445 207.815 107.346 207.161 108.076 206.337L132.848 216.487L130.175 202.862L107.061 195.313C105.593 194.182 103.76 193.627 101.909 193.754C100.059 193.882 98.3193 194.682 97.0206 196.003C95.7219 197.324 94.9541 199.075 94.8627 200.923C94.7713 202.771 95.3627 204.589 96.5247 206.031Z" fill="#FFB6B6"/>
<path d="M178.926 149.294L178.791 149.279L164.345 150.326C162.511 150.458 160.726 150.979 159.109 151.852C157.492 152.726 156.08 153.933 154.966 155.392C154.449 156.069 154 156.795 153.629 157.561L153.625 157.563C152.38 160.105 152.004 162.985 152.556 165.76L159.357 199.915L142.994 198.431L137.021 199.45L129.972 196.613L115.508 196.858L115.172 197.964L112.138 207.999L111.9 208.787L133.987 222.673L140.39 220.73L143.407 223.041L143.551 223.045L149.533 223.163L175.045 223.662L182.018 211.337L183.108 209.405C191.206 191.304 193.205 178.668 192.571 169.963C192.239 165.364 191.173 161.867 189.882 159.232C185.892 151.09 179.207 149.362 178.926 149.294Z" fill="#3F3D56"/>
<path d="M219.449 97.2058C216.067 96.4472 212.931 94.8489 210.332 92.5592C207.734 90.2695 205.757 87.3624 204.584 84.1073C203.538 81.0792 203.143 77.754 201.386 75.059C204.062 71.3928 206.208 67.3694 207.761 63.107C208.362 61.4569 209.77 58.4613 207.383 57.5536C205.482 56.8304 203.323 58.5759 202.196 59.9532C201.34 60.9969 200.726 62.2166 200.398 63.525C200.009 61.813 199.621 60.101 199.232 58.3889C199.182 58.2246 199.071 58.0857 198.922 58.001C198.772 57.9163 198.596 57.8924 198.429 57.9343C195.244 58.4759 192.935 61.4181 192.533 64.517C192.314 66.1124 192.678 67.7331 193.558 69.083C194.581 70.6359 196.08 71.7491 197.505 72.9063C199.021 74.1369 200.307 75.4476 201.122 77.2472C201.969 79.1176 202.35 81.1645 202.912 83.1285C203.979 86.9007 206.046 90.3159 208.896 93.0144C211.745 95.7128 215.271 97.5945 219.103 98.4612C219.921 98.6396 220.271 97.3848 219.449 97.2058ZM201.464 66.0835C201.361 64.4481 201.795 62.8238 202.698 61.4554C203.15 60.7615 203.717 60.1491 204.374 59.644C204.997 59.1691 205.916 58.5402 206.741 58.7147C207.81 58.9409 207.38 60.1315 207.153 60.8495C206.853 61.7967 206.524 62.7339 206.164 63.661C205.465 65.4614 204.653 67.2162 203.733 68.9152C203.255 69.7995 202.745 70.6652 202.212 71.5166C201.845 69.8982 201.477 68.2798 201.11 66.6614C201.226 66.6191 201.324 66.5389 201.388 66.434C201.452 66.3291 201.479 66.2055 201.464 66.0835ZM193.843 66.3426C193.63 64.8637 193.939 63.3569 194.718 62.081C195.498 60.8051 196.698 59.8398 198.113 59.3511C199.149 63.9136 200.185 68.4762 201.221 73.0388C201.007 73.3533 200.786 73.6631 200.565 73.9726C200.507 73.9062 200.455 73.8375 200.394 73.7721C198.222 71.4133 194.433 69.8054 193.843 66.3426Z" fill="#008163"/>
</g>
<defs>
<clipPath id="clip0_38_7064">
<rect width="245" height="259" fill="white"/>
</clipPath>
</defs>
</svg>
