<svg width="323" height="143" viewBox="0 0 323 143" fill="none" xmlns="http://www.w3.org/2000/svg">
<g clip-path="url(#clip0_38_7113)">
<path d="M137.508 91.3576H6.6535C4.88949 91.3556 3.1983 90.656 1.95095 89.4122C0.703608 88.1684 0.00197998 86.482 0 84.723V5.05248C0.00148685 3.71297 0.535769 2.42874 1.48563 1.48154C2.43549 0.534341 3.72336 0.00152922 5.06669 0H139.019C140.382 0.00153111 141.689 0.542238 142.653 1.50349C143.617 2.46474 144.16 3.76803 144.161 5.12743V84.723C144.159 86.482 143.457 88.1684 142.21 89.4122C140.963 90.656 139.272 91.3556 137.508 91.3576Z" fill="white"/>
<path d="M137.508 91.3576H6.6535C4.88949 91.3556 3.1983 90.656 1.95095 89.4122C0.703608 88.1684 0.00197998 86.482 0 84.723V5.05248C0.00148685 3.71297 0.535769 2.42874 1.48563 1.48154C2.43549 0.534341 3.72336 0.00152922 5.06669 0H139.019C140.382 0.00153111 141.689 0.542238 142.653 1.50349C143.617 2.46474 144.16 3.76803 144.161 5.12743V84.723C144.159 86.482 143.457 88.1684 142.21 89.4122C140.963 90.656 139.272 91.3556 137.508 91.3576ZM5.06669 1.43451C4.10478 1.43563 3.18259 1.81718 2.50242 2.49544C1.82226 3.17371 1.43967 4.0933 1.4386 5.05248V84.723C1.44017 86.1017 1.9901 87.4234 2.96775 88.3983C3.94539 89.3732 5.27091 89.9215 6.6535 89.9231H137.508C138.89 89.9215 140.216 89.3732 141.193 88.3983C142.171 87.4234 142.721 86.1017 142.722 84.723V5.12743C142.721 4.14835 142.331 3.20968 141.637 2.51735C140.942 1.82503 140.001 1.43561 139.019 1.43451H5.06669Z" fill="#E6E6E6"/>
<path d="M59.7418 71.1862H20.5329C19.5736 71.1848 18.6474 70.8364 17.9261 70.2057C17.2049 69.575 16.7376 68.7048 16.6109 67.7566C16.5871 67.5859 16.5757 67.4137 16.5767 67.2413V24.1163C16.5779 23.0704 16.9951 22.0677 17.7368 21.3281C18.4784 20.5886 19.484 20.1726 20.5329 20.1714H59.7418C60.7907 20.1726 61.7962 20.5886 62.5379 21.3281C63.2795 22.0677 63.6967 23.0704 63.6979 24.1163V67.2413C63.6967 68.2872 63.2795 69.2899 62.5379 70.0294C61.7962 70.769 60.7907 71.185 59.7418 71.1862ZM20.5329 22.3232C20.0561 22.3237 19.599 22.5128 19.2619 22.849C18.9248 23.1851 18.7352 23.6409 18.7346 24.1163V67.2413C18.7339 67.315 18.7384 67.3887 18.7483 67.4617C18.8034 67.8953 19.0149 68.2941 19.3433 68.5835C19.6717 68.8729 20.0946 69.0332 20.5329 69.0344H59.7418C60.2185 69.0339 60.6756 68.8448 61.0127 68.5086C61.3499 68.1725 61.5395 67.7167 61.54 67.2413V24.1163C61.5395 23.6409 61.3499 23.1851 61.0127 22.849C60.6756 22.5128 60.2185 22.3237 59.7418 22.3232H20.5329Z" fill="#E6E6E6"/>
<path d="M124.707 57.1638H77.2336C76.4706 57.1638 75.7387 56.8616 75.1992 56.3235C74.6596 55.7855 74.3564 55.0557 74.3564 54.2948C74.3564 53.5339 74.6596 52.8041 75.1992 52.2661C75.7387 51.7281 76.4706 51.4258 77.2336 51.4258H124.707C125.47 51.4258 126.202 51.7281 126.742 52.2661C127.281 52.8041 127.584 53.5339 127.584 54.2948C127.584 55.0557 127.281 55.7855 126.742 56.3235C126.202 56.8616 125.47 57.1638 124.707 57.1638Z" fill="#E6E6E6"/>
<path d="M103.128 44.9705H77.2336C76.4706 44.9705 75.7387 44.6682 75.1992 44.1302C74.6596 43.5921 74.3564 42.8624 74.3564 42.1014C74.3564 41.3405 74.6596 40.6108 75.1992 40.0727C75.7387 39.5347 76.4706 39.2324 77.2336 39.2324H103.128C103.891 39.2324 104.623 39.5347 105.163 40.0727C105.702 40.6108 106.006 41.3405 106.006 42.1014C106.006 42.8624 105.702 43.5921 105.163 44.1302C104.623 44.6682 103.891 44.9705 103.128 44.9705Z" fill="#E6E6E6"/>
<path d="M53.0654 44.4935C53.0654 50.8316 47.1882 49.8729 39.9382 49.8729C32.6883 49.8729 26.811 50.8316 26.811 44.4935C26.811 38.1555 29.6819 26.9208 39.9382 26.9208C50.5479 26.9208 53.0654 38.1555 53.0654 44.4935Z" fill="#2F2E41"/>
<path d="M53.5964 55.1605C53.3432 54.4318 52.8384 53.8165 52.1722 53.4247C52.0436 53.346 51.9089 53.2776 51.7694 53.2203C51.1851 52.9781 50.5427 52.9108 49.9207 53.0267C49.2988 53.1427 48.7241 53.4368 48.2671 53.8731C47.81 54.3095 47.4904 54.8692 47.3472 55.4837C47.204 56.0983 47.2435 56.7412 47.4608 57.3338L52.6901 69.1864H59.5773L53.5964 55.1605Z" fill="#3F3D56"/>
<path d="M30.7766 55.806C30.3633 55.6069 29.9124 55.4971 29.4535 55.4839C28.9947 55.4707 28.5382 55.5544 28.114 55.7295C27.6899 55.9045 27.3076 56.167 26.9924 56.4998C26.6771 56.8325 26.4359 57.2279 26.2847 57.6601L21.415 69.0824C21.6644 69.1518 21.9221 69.1868 22.181 69.1864H28.2916L32.4202 59.8334C32.6955 59.0784 32.6799 58.2483 32.3762 57.5041C32.0725 56.7599 31.5024 56.1548 30.7766 55.806Z" fill="#3F3D56"/>
<path d="M39.8944 49.8624C44.7729 49.8624 48.7277 45.9188 48.7277 41.0541C48.7277 36.1894 44.7729 32.2458 39.8944 32.2458C35.0159 32.2458 31.061 36.1894 31.061 41.0541C31.061 45.9188 35.0159 49.8624 39.8944 49.8624Z" fill="#FFB8B8"/>
<path d="M52.3266 53.5645C52.2764 53.5179 52.226 53.4677 52.1721 53.4247C51.5563 52.871 50.8275 52.4571 50.0359 52.2113C49.2443 51.9655 48.4086 51.8937 47.5865 52.0009L31.3087 54.0558C29.8176 54.2398 28.457 54.9958 27.5156 56.1635C26.5743 57.3311 26.1262 58.8186 26.2665 60.3103C26.4895 62.8135 26.8491 65.973 27.4246 69.1863H53.1395L54.0853 58.2267C54.1614 57.3678 54.0429 56.5029 53.7385 55.6959C53.434 54.8889 52.9515 54.1604 52.3266 53.5645Z" fill="#3F3D56"/>
<path d="M29.6885 40.1899H33.1822L34.7236 35.8864L35.0318 40.1899H36.7016L37.6008 37.6795L37.7806 40.1899H50.1885C50.1885 37.717 49.2033 35.3453 47.4497 33.5966C45.696 31.848 43.3176 30.8656 40.8376 30.8656H39.0393C36.5593 30.8656 34.1809 31.848 32.4273 33.5966C30.6737 35.3453 29.6885 37.717 29.6885 40.1899Z" fill="#2F2E41"/>
<path d="M178.839 84.723V5.12743C178.84 3.76803 179.383 2.46474 180.347 1.50349C181.311 0.542238 182.618 0.00153111 183.981 0H317.933C319.277 0.00152922 320.564 0.534341 321.514 1.48154C322.464 2.42874 322.998 3.71297 323 5.05248V84.723C322.998 86.482 322.296 88.1684 321.049 89.4122C319.802 90.656 318.11 91.3556 316.346 91.3576H185.492C183.728 91.3556 182.037 90.656 180.79 89.4122C179.542 88.1684 178.841 86.482 178.839 84.723Z" fill="white"/>
<path d="M178.839 84.723V5.12743C178.84 3.76803 179.383 2.46474 180.347 1.50349C181.311 0.542238 182.618 0.00153111 183.981 0H317.933C319.277 0.00152922 320.564 0.534341 321.514 1.48154C322.464 2.42874 322.998 3.71297 323 5.05248V84.723C322.998 86.482 322.296 88.1684 321.049 89.4122C319.802 90.656 318.11 91.3556 316.346 91.3576H185.492C183.728 91.3556 182.037 90.656 180.79 89.4122C179.542 88.1684 178.841 86.482 178.839 84.723ZM183.981 1.43451C182.999 1.43561 182.058 1.82503 181.363 2.51735C180.669 3.20968 180.279 4.14835 180.277 5.12743V84.723C180.279 86.1017 180.829 87.4234 181.807 88.3983C182.784 89.3732 184.11 89.9215 185.492 89.9231H316.346C317.729 89.9215 319.055 89.3732 320.032 88.3983C321.01 87.4234 321.56 86.1017 321.561 84.723V5.05248C321.56 4.0933 321.178 3.17371 320.497 2.49544C319.817 1.81718 318.895 1.43563 317.933 1.43451H183.981Z" fill="#E6E6E6"/>
<path d="M259.302 67.2413V24.1163C259.303 23.0704 259.721 22.0677 260.462 21.3281C261.204 20.5886 262.21 20.1726 263.258 20.1714H302.467C303.516 20.1726 304.522 20.5886 305.263 21.3281C306.005 22.0677 306.422 23.0704 306.423 24.1163V67.2413C306.425 67.4137 306.413 67.5859 306.389 67.7566C306.263 68.7048 305.795 69.575 305.074 70.2057C304.353 70.8364 303.427 71.1848 302.467 71.1862H263.258C262.21 71.185 261.204 70.769 260.462 70.0294C259.721 69.2899 259.303 68.2872 259.302 67.2413ZM263.258 22.3232C262.782 22.3237 262.325 22.5128 261.987 22.849C261.65 23.1851 261.461 23.6409 261.46 24.1163V67.2413C261.461 67.7167 261.65 68.1725 261.987 68.5086C262.325 68.8448 262.782 69.0339 263.258 69.0344H302.467C302.906 69.0332 303.328 68.8729 303.657 68.5835C303.985 68.2941 304.197 67.8953 304.252 67.4617C304.262 67.3887 304.266 67.315 304.266 67.2413V24.1163C304.265 23.6409 304.075 23.1851 303.738 22.849C303.401 22.5128 302.944 22.3237 302.467 22.3232H263.258Z" fill="#E6E6E6"/>
<path d="M195.416 54.2948C195.416 53.5342 195.72 52.8049 196.259 52.2671C196.799 51.7292 197.53 51.4267 198.293 51.4258H245.766C246.529 51.4258 247.261 51.7281 247.801 52.2661C248.34 52.8041 248.644 53.5339 248.644 54.2948C248.644 55.0557 248.34 55.7855 247.801 56.3235C247.261 56.8616 246.529 57.1638 245.766 57.1638H198.293C197.53 57.163 196.799 56.8604 196.259 56.3225C195.72 55.7847 195.416 55.0554 195.416 54.2948Z" fill="#E6E6E6"/>
<path d="M195.416 42.1014C195.416 41.3408 195.72 40.6116 196.259 40.0737C196.799 39.5358 197.53 39.2333 198.293 39.2324H224.187C224.951 39.2324 225.682 39.5347 226.222 40.0727C226.762 40.6108 227.065 41.3405 227.065 42.1014C227.065 42.8624 226.762 43.5921 226.222 44.1302C225.682 44.6682 224.951 44.9705 224.187 44.9705H198.293C197.53 44.9696 196.799 44.667 196.259 44.1292C195.72 43.5913 195.416 42.8621 195.416 42.1014Z" fill="#E6E6E6"/>
<path d="M273.173 36.93C275.694 41.8732 277.681 46.9716 283.243 46.9716C285.914 46.9716 288.475 45.9136 290.364 44.0305C292.252 42.1473 293.313 39.5932 293.313 36.93C293.313 34.2668 292.252 31.7127 290.364 29.8295C288.475 27.9464 285.914 26.8884 283.243 26.8884C277.591 26.8178 268.48 27.7292 273.173 36.93Z" fill="#2F2E41"/>
<path d="M282.747 47.1671C287.626 47.1671 291.581 43.2235 291.581 38.3588C291.581 33.4941 287.626 29.5505 282.747 29.5505C277.869 29.5505 273.914 33.4941 273.914 38.3588C273.914 43.2235 277.869 47.1671 282.747 47.1671Z" fill="#A0616A"/>
<path d="M294.807 54.4145C294.238 53.7959 293.618 53.225 292.955 52.7074C290.056 50.4413 286.421 49.318 282.745 49.5515C282.597 49.5587 282.45 49.5694 282.302 49.5838C280.173 49.7535 278.105 50.3735 276.234 51.4024C274.364 52.4314 272.735 53.8457 271.455 55.5513C270.156 57.283 269.243 59.2714 268.776 61.3835C268.31 63.4957 268.301 65.6828 268.751 67.7985C268.848 68.2468 268.934 68.6986 269.017 69.1505H298.3L298.638 66.8912C298.976 64.6583 298.807 62.3782 298.144 60.2189C297.481 58.0596 296.341 56.0761 294.807 54.4145Z" fill="#3F3D56"/>
<path d="M299.292 56.7707C299.086 55.5923 298.471 54.5233 297.556 53.7501C296.641 52.9768 295.482 52.5483 294.282 52.5389C294.236 52.5389 294.185 52.5425 294.139 52.5425C293.739 52.5516 293.342 52.607 292.955 52.7075C292.305 52.8797 291.696 53.1783 291.162 53.586C290.628 53.9938 290.18 54.5026 289.844 55.0834C289.508 55.6642 289.29 56.3055 289.203 56.9705C289.116 57.6355 289.162 58.311 289.337 58.9584L292.103 69.1506H301.411L299.292 56.7707Z" fill="#3F3D56"/>
<path d="M278.81 54.099C278.459 53.4119 277.956 52.8135 277.339 52.3489C276.902 52.0199 276.414 51.7654 275.893 51.5957C275.681 51.5232 275.463 51.4657 275.242 51.4236C274.039 51.1966 272.795 51.4058 271.733 52.0135C270.671 52.6211 269.862 53.5872 269.452 54.7373L264.388 69.1506H273.998L278.9 58.5495C279.227 57.8501 279.388 57.0853 279.373 56.3139C279.357 55.5424 279.165 54.7847 278.81 54.099Z" fill="#3F3D56"/>
<path d="M273.374 33.3808C275.393 34.7681 277.788 35.5065 280.24 35.4967C279.365 36.1013 278.37 36.5097 277.322 36.6938C280.581 37.391 283.95 37.4099 287.217 36.7492C287.944 36.6331 288.644 36.3931 289.289 36.0398C289.61 35.8609 289.89 35.6167 290.11 35.3229C290.33 35.0291 290.486 34.6924 290.567 34.3346C290.785 33.0979 289.818 31.9743 288.814 31.217C287.276 30.0753 285.503 29.2887 283.623 28.9141C281.743 28.5395 279.803 28.5863 277.944 29.051C276.729 29.364 275.513 29.8928 274.724 30.8652C273.935 31.8376 273.702 33.3367 274.453 34.338L273.374 33.3808Z" fill="#2F2E41"/>
<path d="M226.927 143H96.0729C94.3089 142.998 92.6177 142.298 91.3704 141.055C90.123 139.811 89.4214 138.124 89.4194 136.365V56.6948C89.4209 55.3553 89.9552 54.0711 90.9051 53.1239C91.8549 52.1767 93.1428 51.6439 94.4861 51.6423H228.439C229.802 51.6439 231.109 52.1846 232.073 53.1458C233.037 54.1071 233.579 55.4104 233.581 56.7698V136.365C233.579 138.124 232.877 139.811 231.63 141.055C230.382 142.298 228.691 142.998 226.927 143Z" fill="white"/>
<path d="M226.927 143H96.0729C94.3089 142.998 92.6177 142.298 91.3704 141.055C90.123 139.811 89.4214 138.124 89.4194 136.365V56.6948C89.4209 55.3553 89.9552 54.0711 90.9051 53.1239C91.8549 52.1767 93.1428 51.6439 94.4861 51.6423H228.439C229.802 51.6439 231.109 52.1846 232.073 53.1458C233.037 54.1071 233.579 55.4104 233.581 56.7698V136.365C233.579 138.124 232.877 139.811 231.63 141.055C230.382 142.298 228.691 142.998 226.927 143ZM94.4861 53.0768C93.5242 53.078 92.602 53.4595 91.9219 54.1378C91.2417 54.816 90.8591 55.7356 90.858 56.6948V136.365C90.8596 137.744 91.4095 139.066 92.3872 140.041C93.3648 141.016 94.6903 141.564 96.0729 141.565H226.927C228.31 141.564 229.635 141.016 230.613 140.041C231.59 139.066 232.14 137.744 232.142 136.365V56.7698C232.141 55.7907 231.75 54.852 231.056 54.1597C230.362 53.4674 229.42 53.0779 228.439 53.0768H94.4861Z" fill="#3F3D56"/>
<path d="M149.161 122.829H109.952C108.993 122.827 108.067 122.479 107.346 121.848C106.624 121.217 106.157 120.347 106.03 119.399C106.007 119.228 105.995 119.056 105.996 118.884V75.7586C105.997 74.7127 106.415 73.71 107.156 72.9705C107.898 72.2309 108.903 71.8149 109.952 71.8137H149.161C150.21 71.8149 151.216 72.2309 151.957 72.9705C152.699 73.71 153.116 74.7127 153.117 75.7586V118.884C153.116 119.93 152.699 120.932 151.957 121.672C151.216 122.411 150.21 122.827 149.161 122.829ZM109.952 73.9655C109.476 73.966 109.018 74.1551 108.681 74.4913C108.344 74.8275 108.155 75.2832 108.154 75.7586V118.884C108.153 118.957 108.158 119.031 108.168 119.104C108.223 119.538 108.434 119.936 108.763 120.226C109.091 120.515 109.514 120.676 109.952 120.677H149.161C149.638 120.676 150.095 120.487 150.432 120.151C150.769 119.815 150.959 119.359 150.959 118.884V75.7586C150.959 75.2832 150.769 74.8275 150.432 74.4913C150.095 74.1551 149.638 73.966 149.161 73.9655H109.952Z" fill="#E6E6E6"/>
<path d="M128.988 79.6978C126.435 78.5138 123.301 78.1256 120.704 79.2259C118.107 80.3261 116.336 83.1462 117.176 85.642C117.557 86.7736 118.424 87.8864 118.086 89.0292C117.826 89.9089 116.919 90.4897 116.028 90.9026C115.137 91.3155 114.163 91.6627 113.518 92.3592C112.874 93.0557 112.74 94.2546 113.545 94.7948C113.81 94.9727 114.141 95.0571 114.398 95.2446C114.618 95.4222 114.776 95.6635 114.851 95.9349C114.926 96.2063 114.914 96.4943 114.817 96.7588C114.603 97.2909 114.249 97.7556 113.792 98.1039C112.878 98.8896 111.671 99.7889 111.954 100.904C112.06 101.202 112.235 101.471 112.467 101.687C112.698 101.903 112.979 102.06 113.284 102.144C113.918 102.327 114.576 102.413 115.236 102.401L142.197 103.248C143.087 103.315 143.982 103.265 144.859 103.1C145.285 103.022 145.691 102.858 146.051 102.617C146.411 102.376 146.717 102.064 146.95 101.699C147.466 100.747 147.127 99.5726 146.49 98.6828C145.852 97.7929 144.95 97.091 144.204 96.2738C143.458 95.4567 142.848 94.4367 142.98 93.3806C143.085 92.5352 143.644 91.8046 144.045 91.0364C144.447 90.2683 144.68 89.3084 144.16 88.6017C143.427 87.6059 141.669 87.696 140.836 86.7681C140.207 86.0679 140.329 85.0598 140.266 84.1568C140.116 81.9848 138.608 79.9335 136.461 78.9809C135.369 78.5136 134.182 78.3119 132.997 78.3924C131.811 78.4729 130.662 78.8333 129.644 79.4438L128.988 79.6978Z" fill="#2F2E41"/>
<path d="M129.985 103.04C134.864 103.04 138.819 99.0963 138.819 94.2316C138.819 89.3669 134.864 85.4233 129.985 85.4233C125.107 85.4233 121.152 89.3669 121.152 94.2316C121.152 99.0963 125.107 103.04 129.985 103.04Z" fill="#A0616A"/>
<path d="M141.583 114.415C141.574 112.871 141.145 111.359 140.342 110.039C139.539 108.719 138.391 107.641 137.022 106.92C136.911 106.859 136.796 106.805 136.681 106.751C135.687 106.281 134.61 106.009 133.512 105.948L125.104 105.478C123.916 105.411 122.727 105.593 121.615 106.012C121.344 106.113 121.079 106.228 120.82 106.357C120.007 106.756 119.264 107.283 118.619 107.917C117.769 108.753 117.104 109.758 116.667 110.866C116.23 111.974 116.03 113.161 116.08 114.351L116.231 117.905L117.288 120.641H140.798C141.09 120.289 141.343 119.906 141.554 119.5C141.952 118.713 142.162 117.844 142.167 116.961C142.172 116.079 141.972 115.207 141.583 114.415Z" fill="#3F3D56"/>
<path d="M141.007 109.703C140.623 108.873 140.022 108.162 139.266 107.644C138.721 107.272 138.109 107.006 137.464 106.862C137.206 106.806 136.944 106.769 136.681 106.751C136.161 106.716 135.64 106.761 135.134 106.884C134.379 107.071 133.677 107.427 133.08 107.925C132.483 108.422 132.008 109.049 131.689 109.757C131.371 110.464 131.218 111.235 131.242 112.01C131.266 112.786 131.467 113.546 131.829 114.232L135.062 120.336L135.224 120.641H146.082L141.007 109.703Z" fill="#3F3D56"/>
<path d="M123.236 106.522C122.728 106.264 122.18 106.092 121.615 106.012C121.194 105.953 120.767 105.947 120.345 105.995C119.271 106.116 118.262 106.573 117.464 107.3C116.665 108.027 116.118 108.987 115.9 110.043L113.709 120.641H122.276L123.877 119.988L125.869 112.364C126.159 111.237 126.056 110.045 125.578 108.983C125.1 107.922 124.274 107.054 123.236 106.522Z" fill="#3F3D56"/>
<path d="M120.948 92.9794C123.738 92.756 126.054 89.9772 125.764 87.2016C125.731 88.3456 126.121 89.4618 126.86 90.3376C127.599 91.2135 128.635 91.788 129.771 91.9519C131.05 92.0925 132.453 91.7064 133.567 92.3501C134.8 93.0631 135.195 94.7945 136.48 95.4102C137.722 96.0052 139.299 95.1938 139.913 93.9638C140.526 92.7338 140.375 91.2561 139.969 89.9436C139.389 88.0718 138.333 86.3815 136.904 85.037C135.475 83.6926 133.722 82.7399 131.814 82.2714C129.907 81.803 127.91 81.8348 126.018 82.3638C124.127 82.8929 122.404 83.901 121.019 85.2903C119.846 86.4668 118.915 87.9662 118.764 89.6183C118.613 91.2704 119.381 93.0631 120.869 93.8052L120.948 92.9794Z" fill="#2F2E41"/>
<path d="M214.127 108.806H166.653C165.89 108.806 165.158 108.504 164.619 107.966C164.079 107.428 163.776 106.698 163.776 105.937C163.776 105.176 164.079 104.446 164.619 103.908C165.158 103.37 165.89 103.068 166.653 103.068H214.127C214.89 103.068 215.622 103.37 216.161 103.908C216.701 104.446 217.004 105.176 217.004 105.937C217.004 106.698 216.701 107.428 216.161 107.966C215.622 108.504 214.89 108.806 214.127 108.806Z" fill="#E6E6E6"/>
<path d="M192.548 96.6128H166.653C165.89 96.6128 165.158 96.3105 164.619 95.7725C164.079 95.2344 163.776 94.5047 163.776 93.7438C163.776 92.9829 164.079 92.2531 164.619 91.7151C165.158 91.177 165.89 90.8748 166.653 90.8748H192.548C193.311 90.8748 194.043 91.177 194.582 91.7151C195.122 92.2531 195.425 92.9829 195.425 93.7438C195.425 94.5047 195.122 95.2344 194.582 95.7725C194.043 96.3105 193.311 96.6128 192.548 96.6128Z" fill="#008163"/>
<path d="M206.442 117.565C203.929 117.57 201.52 118.569 199.745 120.342C197.97 122.116 196.973 124.519 196.973 127.025C196.973 129.531 197.97 131.935 199.745 133.708C201.52 135.482 203.929 136.48 206.442 136.485C208.955 136.48 211.364 135.482 213.139 133.708C214.914 131.935 215.911 129.531 215.911 127.025C215.911 124.519 214.914 122.116 213.139 120.342C211.364 118.569 208.955 117.57 206.442 117.565Z" fill="#008163"/>
<path d="M205.542 130.954C205.292 130.954 205.049 130.874 204.849 130.724L204.837 130.715L202.228 128.725C201.985 128.538 201.825 128.263 201.785 127.959C201.745 127.655 201.828 127.348 202.015 127.105C202.202 126.862 202.478 126.703 202.782 126.663C203.087 126.622 203.395 126.704 203.639 126.89L205.329 128.182L209.322 122.988C209.414 122.867 209.53 122.766 209.662 122.69C209.793 122.614 209.939 122.565 210.09 122.545C210.241 122.525 210.394 122.535 210.541 122.574C210.688 122.614 210.826 122.681 210.947 122.774L210.947 122.774L210.922 122.808L210.948 122.774C211.191 122.961 211.351 123.236 211.391 123.54C211.431 123.844 211.349 124.151 211.162 124.394L206.465 130.502C206.357 130.642 206.217 130.756 206.057 130.834C205.897 130.913 205.721 130.953 205.543 130.953L205.542 130.954Z" fill="white"/>
</g>
<defs>
<clipPath id="clip0_38_7113">
<rect width="323" height="143" fill="white"/>
</clipPath>
</defs>
</svg>
