<svg width="320" height="183" viewBox="0 0 320 183" fill="none" xmlns="http://www.w3.org/2000/svg">
<g clip-path="url(#clip0_38_7154)">
<path d="M52.5991 83.2075V31.7783C52.5991 31.0438 52.8906 30.3395 53.4094 29.8201C53.9283 29.3008 54.6319 29.009 55.3657 29.009C56.0994 29.009 56.8031 29.3008 57.3219 29.8201C57.8407 30.3395 58.1322 31.0438 58.1322 31.7783V83.2075C58.1322 83.942 57.8407 84.6464 57.3219 85.1657C56.8031 85.685 56.0994 85.9768 55.3657 85.9768C54.6319 85.9768 53.9283 85.685 53.4094 85.1657C52.8906 84.6464 52.5991 83.942 52.5991 83.2075Z" fill="#F0F0F0"/>
<path d="M45.979 83.2075V31.7783C45.979 31.0438 46.2705 30.3395 46.7893 29.8201C47.3081 29.3008 48.0118 29.009 48.7455 29.009C49.4793 29.009 50.183 29.3008 50.7018 29.8201C51.2206 30.3395 51.5121 31.0438 51.5121 31.7783V83.2075C51.5121 83.942 51.2206 84.6464 50.7018 85.1657C50.183 85.685 49.4793 85.9768 48.7455 85.9768C48.0118 85.9768 47.3081 85.685 46.7893 85.1657C46.2705 84.6464 45.979 83.942 45.979 83.2075Z" fill="#F0F0F0"/>
<path d="M39.3589 83.2075V31.7783C39.3589 31.0438 39.6504 30.3395 40.1692 29.8201C40.688 29.3008 41.3917 29.009 42.1254 29.009C42.8592 29.009 43.5628 29.3008 44.0817 29.8201C44.6005 30.3395 44.892 31.0438 44.892 31.7783V83.2075C44.892 83.942 44.6005 84.6464 44.0817 85.1657C43.5628 85.685 42.8592 85.9768 42.1254 85.9768C41.3917 85.9768 40.688 85.685 40.1692 85.1657C39.6504 84.6464 39.3589 83.942 39.3589 83.2075Z" fill="#F0F0F0"/>
<path d="M289.298 165.35C288.184 165.351 287.078 165.159 286.029 164.782L285.868 164.724L285.942 164.366C284.064 160.568 284.721 155.365 287.623 151.086C290.262 147.197 294.274 144.369 297.814 141.875C298.263 141.558 298.797 141.384 299.346 141.373C299.895 141.363 300.435 141.517 300.896 141.816C301.357 142.115 301.718 142.545 301.933 143.051C302.148 143.557 302.206 144.116 302.101 144.656L300.835 151.157C299.922 155.847 298.835 160.286 295.612 163.054C293.841 164.537 291.607 165.35 289.298 165.35Z" fill="#E6E6E6"/>
<path d="M297.589 176.585C296.362 176.577 295.158 176.264 294.083 175.672C293.009 175.08 292.1 174.229 291.438 173.196L291.346 173.053L291.565 172.86C292.131 169.767 294.795 167.011 298.371 165.826C301.622 164.749 305.211 164.925 308.375 165.08C308.793 165.1 309.196 165.244 309.532 165.494C309.868 165.744 310.123 166.088 310.263 166.482C310.404 166.877 310.424 167.305 310.322 167.711C310.22 168.117 309.999 168.484 309.688 168.765L306.128 171.981C303.541 174.318 300.961 176.429 297.849 176.58C297.762 176.583 297.675 176.585 297.589 176.585Z" fill="#E6E6E6"/>
<path d="M286.54 180.023C286.014 176.105 285.474 172.136 285.843 168.175C286.17 164.658 287.219 161.222 289.354 158.405C290.482 156.917 291.861 155.639 293.429 154.626C293.836 154.363 294.211 155.024 293.806 155.286C291.088 157.052 288.997 159.633 287.833 162.66C286.533 166.045 286.324 169.734 286.548 173.329C286.683 175.503 286.971 177.663 287.26 179.82C287.283 179.917 287.269 180.019 287.221 180.106C287.173 180.193 287.094 180.259 286.999 180.29C286.952 180.303 286.902 180.306 286.853 180.3C286.804 180.293 286.757 180.277 286.714 180.252C286.672 180.227 286.634 180.194 286.604 180.155C286.575 180.116 286.553 180.071 286.54 180.023Z" fill="#F2F2F2"/>
<path d="M285.054 182.276C287.584 177.694 290.52 172.602 295.764 170.975C297.22 170.524 298.751 170.362 300.269 170.499C300.747 170.541 300.628 171.295 300.15 171.253C297.6 171.039 295.056 171.728 292.961 173.199C290.934 174.611 289.356 176.574 288.02 178.656C287.202 179.931 286.469 181.26 285.736 182.587C285.502 183.011 284.817 182.705 285.054 182.276Z" fill="#F2F2F2"/>
<path d="M283.915 182.209L286.47 182.267L271.065 99.8865L268.51 100.368L272.532 121.739H259.572L263.595 100.368L261.04 99.8865L245.763 182.267L248.189 182.209L256.221 139.542H275.884L283.915 182.209ZM256.817 136.377L258.976 124.904H273.128L275.288 136.377H256.817Z" fill="#CACACA"/>
<path d="M172.351 84.5197V57.4658C172.351 56.6625 173.592 56.009 175.117 56.009C176.643 56.009 177.884 56.6625 177.884 57.4658V84.5197C177.884 85.323 176.643 85.9764 175.117 85.9764C173.592 85.9764 172.351 85.323 172.351 84.5197Z" fill="#F0F0F0"/>
<path d="M165.73 84.5197V57.4658C165.73 56.6625 166.972 56.009 168.497 56.009C170.023 56.009 171.264 56.6625 171.264 57.4658V84.5197C171.264 85.323 170.023 85.9764 168.497 85.9764C166.972 85.9764 165.73 85.323 165.73 84.5197Z" fill="#F0F0F0"/>
<path d="M159.111 84.5197V57.4658C159.111 56.6625 160.352 56.009 161.877 56.009C163.403 56.009 164.644 56.6625 164.644 57.4658V84.5197C164.644 85.323 163.403 85.9764 161.877 85.9764C160.352 85.9764 159.111 85.323 159.111 84.5197Z" fill="#F0F0F0"/>
<path d="M214.803 64.6244C214.79 64.5422 214.761 64.4635 214.716 64.3934C214.672 64.3233 214.613 64.2634 214.543 64.2176L193.686 50.435C194.001 50.3037 194.264 50.0732 194.435 49.7786C194.643 49.4148 194.7 48.9833 194.591 48.5783C194.483 48.1733 194.219 47.8277 193.856 47.6169L192.145 46.6279C191.782 46.4193 191.351 46.3632 190.946 46.4717C190.541 46.5802 190.196 46.8446 189.986 47.2071C189.872 47.4064 189.804 47.6283 189.785 47.857L174.73 37.9081C174.224 36.6824 173.458 35.5817 172.484 34.6828C171.51 33.784 170.352 33.1085 169.09 32.7034V28.3168H163.557V32.7034C161.721 33.291 160.119 34.4473 158.983 36.0054C157.846 37.5634 157.234 39.4427 157.233 41.3719V42.5587H162.766C162.766 43.503 163.141 44.4086 163.808 45.0764C164.475 45.7441 165.38 46.1192 166.323 46.1192C167.267 46.1192 168.172 45.7441 168.839 45.0764C169.506 44.4086 169.88 43.503 169.88 42.5587H175.414V41.3719C175.413 40.803 175.359 40.2353 175.254 39.6763L213.341 64.845L197.519 84.0994C197.396 84.0988 197.274 84.0977 197.151 84.0977C195.888 84.0977 194.665 84.1276 193.5 84.179C193.57 83.9835 193.601 83.7759 193.59 83.5683C193.567 83.1496 193.38 82.7571 193.068 82.4764C192.757 82.1957 192.348 82.0498 191.929 82.0703L189.956 82.1733C189.538 82.1963 189.145 82.3841 188.865 82.6956C188.585 83.0072 188.439 83.4171 188.459 83.8359C188.474 84.0833 188.547 84.3237 188.673 84.5369C185.184 84.9081 182.923 85.4198 182.923 85.6801C182.923 86.1067 188.995 85.7006 196.594 85.6811C196.629 85.78 196.69 85.8679 196.77 85.9356C196.85 86.0034 196.946 86.0487 197.049 86.0668C197.153 86.085 197.259 86.0753 197.357 86.0388C197.455 86.0023 197.542 85.9403 197.608 85.8592L197.755 85.6812C205.332 85.7023 211.379 86.1058 211.379 85.6801C211.379 85.2788 206.003 84.2803 199.037 84.1202L214.675 65.0897C214.727 65.0255 214.766 64.9508 214.788 64.8707C214.81 64.7905 214.815 64.7066 214.803 64.6244Z" fill="#CCCCCC"/>
<path d="M215.373 182.407H166.676C165.692 182.406 164.748 182.014 164.053 181.317C163.357 180.62 162.965 179.676 162.964 178.691V98.6924C162.963 97.8123 162.613 96.9684 161.992 96.3461C161.37 95.7237 160.527 95.3736 159.647 95.3726H45.7388C44.8595 95.3736 44.0165 95.7237 43.3947 96.3461C42.7729 96.9684 42.4231 97.8123 42.4221 98.6924V178.691C42.421 179.676 42.0295 180.62 41.3337 181.317C40.6378 182.014 39.6943 182.406 38.7102 182.407H37.044C36.0598 182.406 35.1163 182.014 34.4205 181.317C33.7246 180.62 33.3332 179.676 33.332 178.691V94.3836C33.3347 92.0237 34.2724 89.7612 35.9395 88.0924C37.6066 86.4237 39.8669 85.4851 42.2245 85.4824H210.193C212.551 85.4851 214.811 86.4238 216.478 88.0925C218.145 89.7612 219.083 92.0237 219.085 94.3836V178.691C219.084 179.676 218.693 180.621 217.997 181.317C217.301 182.014 216.358 182.406 215.373 182.407Z" fill="#E4E4E4"/>
<path d="M218.888 106.252H163.162V108.625H218.888V106.252Z" fill="white"/>
<path d="M218.888 138.296H163.162V140.67H218.888V138.296Z" fill="white"/>
<path d="M117.033 85.0916L115.431 84.4166L114.333 76.3798H99.7015L98.5106 84.3837L97.0777 85.1009C97.0091 85.1352 96.9542 85.1917 96.9217 85.2612C96.8892 85.3307 96.8811 85.4091 96.8988 85.4838C96.9164 85.5584 96.9586 85.625 97.0187 85.6726C97.0788 85.7202 97.1532 85.7461 97.2299 85.7461H116.901C116.979 85.7461 117.056 85.7189 117.116 85.6691C117.177 85.6193 117.219 85.55 117.234 85.4729C117.25 85.3958 117.238 85.3158 117.202 85.2463C117.165 85.1768 117.105 85.1221 117.033 85.0916Z" fill="#E6E6E6"/>
<path d="M143.034 77.4491H71.1615C70.7844 77.4483 70.423 77.2978 70.1567 77.0305C69.8903 76.7633 69.7407 76.4013 69.7407 76.0238V65.8789H144.454V76.0238C144.454 76.4013 144.305 76.7633 144.038 77.0305C143.772 77.2977 143.411 77.4483 143.034 77.4491Z" fill="#CCCCCC"/>
<path d="M144.53 70.6736H69.6753V27.2657C69.6758 26.8101 69.8568 26.3734 70.1786 26.0513C70.5004 25.7292 70.9368 25.548 71.3918 25.5475H142.813C143.268 25.548 143.705 25.7292 144.026 26.0513C144.348 26.3734 144.529 26.8101 144.53 27.2657V70.6736Z" fill="#3F3D56"/>
<path d="M140.059 67.523H74.1456C73.7948 67.5226 73.4584 67.3829 73.2103 67.1346C72.9622 66.8863 72.8227 66.5496 72.8223 66.1984V30.0226C72.8227 29.6714 72.9622 29.3347 73.2103 29.0863C73.4584 28.838 73.7948 28.6983 74.1456 28.6979H140.059C140.409 28.6983 140.746 28.838 140.994 29.0863C141.242 29.3347 141.381 29.6714 141.382 30.0226V66.1984C141.381 66.5496 141.242 66.8863 140.994 67.1346C140.746 67.3829 140.409 67.5226 140.059 67.523Z" fill="white"/>
<path d="M213.948 32.8509C214.579 32.7599 215.222 32.8085 215.831 32.9931C216.441 33.1777 217.003 33.4939 217.477 33.9194C217.952 34.3449 218.327 34.8694 218.577 35.4558C218.828 36.0423 218.946 36.6765 218.925 37.3138L233.376 42.8818L226.829 47.5643L214.109 41.559C213.042 41.4522 212.051 40.9573 211.324 40.168C210.597 39.3787 210.185 38.3499 210.165 37.2765C210.145 36.2031 210.519 35.1597 211.217 34.344C211.914 33.5284 212.886 32.9971 213.948 32.8509Z" fill="#9E616A"/>
<path d="M268.82 30.1176L271.265 34.5669C270.674 37.3889 269.147 39.9279 266.932 41.7712C263.189 44.9312 243.617 56.7002 243.617 56.7002L218.909 44.2838L223.232 38.5344L242.63 45.0418C249.826 38.24 258.509 33.215 267.989 30.3672L268.82 30.1176Z" fill="#E4E4E4"/>
<path d="M264.274 103.742C274.923 103.742 283.557 100.926 283.557 97.4529C283.557 93.9793 274.923 91.1635 264.274 91.1635C253.624 91.1635 244.991 93.9793 244.991 97.4529C244.991 100.926 253.624 103.742 264.274 103.742Z" fill="#CACACA"/>
<path d="M221.014 176.879L215.894 175.462L218.916 155.018L226.474 157.11L221.014 176.879Z" fill="#9E616A"/>
<path d="M220.948 182.209L204.437 177.64L204.495 177.431C204.966 175.725 206.095 174.276 207.633 173.404C209.171 172.531 210.993 172.305 212.697 172.777L212.698 172.777L222.782 175.567L220.948 182.209Z" fill="#2F2E41"/>
<path d="M206.168 176.945L201.308 174.797L207.272 155.012L214.445 158.182L206.168 176.945Z" fill="#9E616A"/>
<path d="M205.327 182.209L189.657 175.283L189.745 175.084C190.459 173.465 191.787 172.196 193.435 171.557C195.084 170.917 196.919 170.96 198.537 171.675L198.537 171.675L208.108 175.905L205.327 182.209Z" fill="#2F2E41"/>
<path d="M279.281 82.0759C279.281 82.0759 281.856 90.0644 266.052 100.167L245.698 120.469L224.549 171.11L211.993 165.475L214.455 158.895L216.108 154.48L216.953 152.221L217.859 149.8L231.302 113.884L242.593 94.0941L242.92 83.3559L245.698 75.7865L265.848 68.6295L279.281 82.0759Z" fill="#2F2E41"/>
<path d="M269.005 82.4715C269.005 82.4715 271.581 90.46 255.777 100.563L235.422 120.865L214.273 171.505L201.717 165.871L204.18 159.291L205.832 154.876L206.678 152.617L207.584 150.195L221.026 114.279L224.807 107.653C229.794 98.9119 235.855 90.8295 242.847 83.5943L246.553 79.7593L246.949 73.8251L255.572 69.0251L269.005 82.4715Z" fill="#2F2E41"/>
<path d="M256.829 43.3633L263.152 29.9125L274.187 28.4058C274.187 28.4058 282.804 39.3946 280.542 54.8359C279.694 60.6264 279.002 66.3913 278.961 71.4515C278.95 72.798 280.127 73.3992 280.147 74.6164C280.166 75.8121 277.916 77.7599 278.566 78.5725C279.494 79.6925 280.048 81.0765 280.147 82.5286C279.364 84.3944 255.66 74.2865 245.698 75.7865L256.829 43.3633Z" fill="#E4E4E4"/>
<path d="M272.503 21.634C275.319 16.8909 273.762 10.7602 269.023 7.94071C264.285 5.1212 258.16 6.68059 255.343 11.4237C252.527 16.1668 254.084 22.2975 258.823 25.117C263.561 27.9365 269.686 26.3771 272.503 21.634Z" fill="#9E616A"/>
<path d="M270.304 12.9416C270.285 13.2045 270.259 13.5526 270.228 13.9465C270.197 15.0248 270.501 16.0863 271.097 16.9848C271.656 17.93 270.989 23.6392 270.989 23.6392C287.339 12.2313 274.42 0.770273 269.367 1.78908C269.472 0.338331 265.351 0.91305 265.351 0.91305C263.781 -1.53491 260.339 1.71455 260.339 1.71455L261.003 0.596193C258.331 1.27653 255.69 9.54303 255.69 9.54303C256.596 13.1093 270.41 11.4908 270.304 12.9416Z" fill="#2F2E41"/>
<path d="M206.879 48.6544C212.497 41.1739 216.939 32.8767 220.049 24.0511C220.229 23.5231 220.217 22.9483 220.013 22.429C219.81 21.9096 219.428 21.4794 218.938 21.215L199.712 10.9033C199.401 10.7352 199.056 10.6404 198.703 10.6261C198.35 10.6117 197.998 10.6782 197.674 10.8205C197.345 10.9639 197.052 11.1807 196.819 11.4543C196.585 11.728 196.417 12.0513 196.328 12.3997C194.09 20.9044 189.884 28.7623 184.049 35.3379C183.809 35.6055 183.633 35.9245 183.535 36.2705C183.436 36.6165 183.418 36.9805 183.481 37.3346C183.542 37.6831 183.682 38.0132 183.889 38.2995C184.097 38.5859 184.367 38.8211 184.679 38.9872L203.905 49.2989C204.396 49.5614 204.965 49.6407 205.51 49.5227C206.055 49.4047 206.54 49.097 206.879 48.6544Z" fill="#CCCCCC"/>
<path d="M205.567 47.6677C205.464 47.7969 205.319 47.8859 205.157 47.9194C204.995 47.9529 204.826 47.9287 204.68 47.8511L185.454 37.5392C185.361 37.4905 185.28 37.4208 185.218 37.3356C185.156 37.2504 185.115 37.152 185.097 37.0481C185.077 36.9384 185.083 36.8255 185.114 36.7183C185.144 36.6112 185.2 36.5126 185.275 36.4304C191.281 29.6612 195.612 21.5717 197.915 12.8164C197.942 12.7082 197.993 12.6077 198.065 12.5227C198.137 12.4377 198.228 12.3705 198.33 12.3263C198.426 12.2832 198.531 12.2631 198.637 12.2674C198.742 12.2718 198.845 12.3006 198.937 12.3515L218.163 22.6631C218.308 22.7418 218.422 22.869 218.484 23.0227C218.546 23.1764 218.552 23.3469 218.502 23.5047C215.447 32.1724 211.085 40.321 205.567 47.6677Z" fill="white"/>
<path d="M198.841 22.1485L212.102 29.9286C213.421 30.7027 214.616 28.6519 213.298 27.879L200.038 20.0989C198.719 19.3248 197.524 21.3756 198.841 22.1485Z" fill="#008163"/>
<path d="M196.469 26.5002L209.73 34.2803C211.049 35.0543 212.244 33.0035 210.927 32.2307L197.666 24.4506C196.347 23.6765 195.152 25.7273 196.469 26.5002Z" fill="#008163"/>
<path d="M193.703 31.2475L206.964 39.0276C208.283 39.8017 209.478 37.7509 208.161 36.978L194.9 29.1979C193.581 28.4238 192.386 30.4746 193.703 31.2475Z" fill="#008163"/>
<path d="M190.937 35.2035L204.197 42.9836C205.517 43.7577 206.711 41.7069 205.394 40.9341L192.134 33.1539C190.814 32.3798 189.619 34.4307 190.937 35.2035Z" fill="#008163"/>
<path d="M251.387 80.967L256.366 92.1728C256.486 92.4411 256.537 92.7351 256.515 93.0282C256.493 93.3213 256.399 93.6043 256.24 93.8516C256.053 94.1472 255.783 94.3807 255.463 94.5229C255.144 94.665 254.79 94.7094 254.445 94.6504C254.328 94.6325 254.213 94.6017 254.102 94.5588C253.662 94.3887 253.307 94.051 253.116 93.6196L248.137 82.4138C248.042 82.2002 247.99 81.9699 247.984 81.7362C247.978 81.5025 248.018 81.2699 248.102 81.0517C248.272 80.611 248.609 80.2556 249.04 80.0637C249.471 79.8719 249.96 79.8593 250.4 80.0287C250.841 80.1981 251.196 80.5356 251.387 80.967Z" fill="#008163"/>
<path d="M255.964 91.2692L256.962 93.5308L257.472 96.7372C257.505 96.9483 257.469 97.1646 257.367 97.3525C257.265 97.5404 257.104 97.6894 256.909 97.7762C256.714 97.8631 256.495 97.8829 256.288 97.8327C256.08 97.7825 255.895 97.6651 255.761 97.4986L253.697 94.9282L252.714 92.7159L255.964 91.2692Z" fill="#3F3D56"/>
<path d="M247.031 77.8493L247.744 82.3356C247.768 82.4824 247.825 82.622 247.91 82.7434C247.996 82.8648 248.109 82.9649 248.239 83.0358C248.37 83.1068 248.515 83.1467 248.664 83.1526C248.812 83.1585 248.96 83.1301 249.096 83.0696L249.803 82.7548L251.168 85.8274C251.211 85.9231 251.289 85.9979 251.387 86.0354C251.485 86.0729 251.594 86.0701 251.689 86.0275C251.785 85.9849 251.86 85.9061 251.897 85.8083C251.935 85.7105 251.932 85.6017 251.89 85.5059L250.525 82.4333L251.232 82.1185C251.467 82.0139 251.65 81.8207 251.743 81.5811C251.835 81.3414 251.829 81.0748 251.726 80.8397C251.691 80.7618 251.646 80.6888 251.593 80.6226L248.743 77.0875C248.608 76.9212 248.423 76.8038 248.216 76.7537C248.008 76.7036 247.79 76.7235 247.594 76.8104C247.399 76.8973 247.238 77.0462 247.136 77.2341C247.035 77.4219 246.998 77.6382 247.031 77.8493Z" fill="#3F3D56"/>
<path d="M249.096 85.9468C249.208 85.3191 249.457 84.7237 249.823 84.2024C250.19 83.6812 250.667 83.2468 251.22 82.9299C251.773 82.6131 252.388 82.4213 253.023 82.3683C253.658 82.3153 254.296 82.4022 254.894 82.623L264.722 70.6447L267.102 78.339L257.404 88.5342C256.967 89.5146 256.186 90.3004 255.209 90.7428C254.231 91.1852 253.126 91.2533 252.102 90.9344C251.078 90.6155 250.206 89.9316 249.652 89.0123C249.098 88.0931 248.9 87.0023 249.096 85.9468Z" fill="#9E616A"/>
<path d="M261.469 85.1685L257.14 78.9102L269.431 62.5061L263.099 48.9249L263.56 32.7701L268.793 31.8026L268.858 31.8352C271.401 33.3009 273.368 35.5935 274.43 38.3322C275.735 41.5985 278.649 53.8601 280.27 60.8781C280.588 62.2381 280.553 63.657 280.169 64.9997C279.784 66.3424 279.062 67.5642 278.072 68.5486L261.469 85.1685Z" fill="#E4E4E4"/>
<path d="M139.597 54.9287C139.561 55.2326 139.549 55.539 139.561 55.8448L117.4 71.9833L111.312 69.2862L106.045 77.9514L116.359 83.7744C117.193 84.2449 118.156 84.432 119.104 84.3078C120.053 84.1837 120.936 83.7548 121.62 83.0857L143.924 61.2784C145.066 61.5688 146.269 61.5043 147.373 61.0937C148.477 60.683 149.431 59.9456 150.106 58.9795C150.781 58.0133 151.147 56.8643 151.154 55.6852C151.161 54.5061 150.809 53.3528 150.145 52.3788C149.481 51.4047 148.537 50.656 147.438 50.2323C146.338 49.8085 145.136 49.7298 143.991 50.0066C142.846 50.2835 141.812 50.9026 141.028 51.7819C140.243 52.6611 139.744 53.7587 139.597 54.9287Z" fill="#FFB6B6"/>
<path d="M116.684 72.5732L110.221 83.3527C110.037 83.6594 109.789 83.9229 109.495 84.1251C109.2 84.3273 108.865 84.4635 108.513 84.5245C108.161 84.5856 107.8 84.5699 107.454 84.4786C107.109 84.3873 106.787 84.2226 106.511 83.9956L96.8344 76.0409C95.2725 75.0901 94.1508 73.5582 93.7154 71.7809C93.28 70.0037 93.5662 68.1261 94.5115 66.5598C95.4568 64.9936 96.9839 63.8663 98.7581 63.4253C100.532 62.9842 102.409 63.2653 103.976 64.2069L115.505 68.9934C115.835 69.1306 116.131 69.3373 116.374 69.5996C116.617 69.8618 116.801 70.1734 116.913 70.5131C117.025 70.8528 117.062 71.2127 117.023 71.5682C116.983 71.9237 116.867 72.2665 116.684 72.5732Z" fill="#008163"/>
<path d="M88.9934 166.268H101.661V145.255H88.9934V166.268Z" fill="#CACACA"/>
<path d="M101.026 156.374L99.4004 158.772L129.803 179.423L131.429 177.024L101.026 156.374Z" fill="#CACACA"/>
<path d="M89.6282 156.374L59.2256 177.024L60.8515 179.423L91.2541 158.772L89.6282 156.374Z" fill="#CACACA"/>
<path d="M130.616 182.209C132.815 182.209 134.597 180.424 134.597 178.223C134.597 176.023 132.815 174.238 130.616 174.238C128.417 174.238 126.635 176.023 126.635 178.223C126.635 180.424 128.417 182.209 130.616 182.209Z" fill="#CACACA"/>
<path d="M95.1463 182.209C97.3452 182.209 99.1276 180.424 99.1276 178.223C99.1276 176.023 97.3452 174.238 95.1463 174.238C92.9475 174.238 91.165 176.023 91.165 178.223C91.165 180.424 92.9475 182.209 95.1463 182.209Z" fill="#CACACA"/>
<path d="M60.0384 182.209C62.2372 182.209 64.0197 180.424 64.0197 178.223C64.0197 176.023 62.2372 174.238 60.0384 174.238C57.8396 174.238 56.0571 176.023 56.0571 178.223C56.0571 180.424 57.8396 182.209 60.0384 182.209Z" fill="#CACACA"/>
<path d="M96.5942 157.573H93.6987V178.224H96.5942V157.573Z" fill="#CACACA"/>
<path d="M92.6125 154.675H98.0415V126.778H92.6125V154.675Z" fill="#CACACA"/>
<path d="M79.7642 131.126V124.604C79.7655 123.404 80.2426 122.252 81.0908 121.403C81.9389 120.554 83.0889 120.077 84.2884 120.076H108.538C109.738 120.077 110.888 120.554 111.736 121.403C112.584 122.252 113.061 123.404 113.062 124.604V131.126C113.061 132.326 112.584 133.477 111.736 134.326C110.888 135.175 109.738 135.653 108.538 135.654H84.2884C83.0889 135.653 81.9389 135.175 81.0908 134.326C80.2426 133.477 79.7655 132.326 79.7642 131.126Z" fill="#3F3D56"/>
<path d="M123.562 175.702L130.268 175.701L133.459 158.29L123.561 158.29L123.562 175.702Z" fill="#FFB8B8"/>
<path d="M121.852 182.209L143.476 182.208V181.934C143.476 180.828 143.258 179.732 142.835 178.71C142.412 177.688 141.792 176.759 141.011 175.977C140.229 175.194 139.301 174.574 138.28 174.15C137.259 173.727 136.165 173.509 135.059 173.509H135.059L121.851 173.51L121.852 182.209Z" fill="#2F2E41"/>
<path d="M133.593 164.905L146.963 134.893C148.079 132.364 148.203 129.506 147.309 126.89C146.415 124.274 144.569 122.09 142.139 120.775L113.139 105.209L99.9054 104.082L87.6986 102.971L87.6106 103.12C87.498 103.311 84.8734 107.849 86.6475 112.824C87.9932 116.598 91.4936 119.546 97.0514 121.587C110.024 126.348 125.01 130.417 130.851 131.945C131.109 132.012 131.35 132.132 131.558 132.298C131.767 132.464 131.938 132.672 132.06 132.909C132.183 133.143 132.256 133.4 132.274 133.664C132.293 133.928 132.256 134.193 132.168 134.442L119.746 162.376C119.617 162.73 119.57 163.109 119.61 163.485C119.65 163.86 119.775 164.221 119.977 164.54C120.178 164.859 120.45 165.127 120.771 165.325C121.092 165.522 121.455 165.642 121.83 165.677L131.111 166.354C131.19 166.361 131.269 166.365 131.347 166.365C131.822 166.365 132.287 166.227 132.686 165.968C133.084 165.708 133.4 165.339 133.593 164.905Z" fill="#2F2E41"/>
<path d="M119.186 175.702L125.892 175.701L129.083 158.29L119.185 158.29L119.186 175.702Z" fill="#FFB8B8"/>
<path d="M117.476 182.209L139.1 182.208V181.934C139.1 180.828 138.882 179.732 138.459 178.71C138.036 177.688 137.416 176.759 136.635 175.977C135.853 175.194 134.925 174.574 133.904 174.15C132.883 173.727 131.789 173.509 130.683 173.509H130.683L117.475 173.51L117.476 182.209Z" fill="#2F2E41"/>
<path d="M128.669 166.547L142.039 136.536C143.156 134.007 143.279 131.149 142.385 128.533C141.491 125.916 139.645 123.733 137.215 122.418L108.215 106.851L94.9818 105.725L85.4208 104.894L85.4221 104.763C85.3095 104.954 82.6849 109.491 84.459 114.467C85.8048 118.241 86.57 121.189 92.1278 123.229C105.1 127.991 120.086 132.06 125.927 133.588C126.185 133.654 126.426 133.774 126.635 133.94C126.843 134.107 127.014 134.315 127.137 134.552C127.259 134.786 127.332 135.043 127.35 135.307C127.369 135.571 127.333 135.835 127.244 136.084L114.823 164.019C114.693 164.373 114.646 164.752 114.686 165.127C114.726 165.503 114.852 165.864 115.053 166.183C115.254 166.502 115.526 166.77 115.847 166.967C116.169 167.165 116.531 167.285 116.907 167.32L126.188 167.997C126.267 168.004 126.345 168.008 126.423 168.008C126.898 168.008 127.364 167.87 127.762 167.61C128.161 167.351 128.476 166.982 128.669 166.547Z" fill="#2F2E41"/>
<path d="M120.283 37.2817C121.999 30.0556 117.539 22.8046 110.32 21.0861C103.101 19.3677 95.857 23.8325 94.1402 31.0586C92.4235 38.2847 96.8839 45.5357 104.103 47.2542C111.322 48.9726 118.566 44.5078 120.283 37.2817Z" fill="#FFB8B8"/>
<path d="M153.524 85.8417C159.142 78.3611 163.584 70.0639 166.694 61.2383C166.874 60.7104 166.862 60.1356 166.658 59.6162C166.455 59.0969 166.074 58.6667 165.583 58.4022L146.357 48.0906C146.046 47.9225 145.701 47.8277 145.348 47.8133C144.995 47.799 144.643 47.8655 144.319 48.0078C143.99 48.1511 143.697 48.3679 143.464 48.6416C143.23 48.9152 143.062 49.2386 142.973 49.587C140.735 58.0916 136.529 65.9496 130.694 72.5251C130.454 72.7928 130.278 73.1117 130.18 73.4578C130.081 73.8038 130.063 74.1677 130.126 74.5219C130.187 74.8704 130.327 75.2004 130.534 75.4868C130.742 75.7732 131.012 76.0084 131.324 76.1745L150.55 86.4862C151.041 86.7487 151.61 86.828 152.155 86.7099C152.7 86.5919 153.185 86.2842 153.524 85.8417Z" fill="#CCCCCC"/>
<path d="M152.212 84.8549C152.109 84.9841 151.964 85.0731 151.802 85.1066C151.64 85.1401 151.471 85.116 151.325 85.0384L132.099 74.7265C132.006 74.6778 131.925 74.6081 131.863 74.5229C131.801 74.4376 131.76 74.3392 131.742 74.2353C131.722 74.1256 131.728 74.0128 131.759 73.9056C131.79 73.7984 131.845 73.6999 131.92 73.6177C137.927 66.8484 142.257 58.7589 144.56 50.0037C144.587 49.8955 144.638 49.795 144.71 49.7099C144.782 49.6249 144.873 49.5577 144.975 49.5136C145.071 49.4705 145.176 49.4503 145.282 49.4547C145.387 49.459 145.49 49.4878 145.582 49.5387L164.808 59.8503C164.953 59.9291 165.067 60.0563 165.129 60.21C165.191 60.3637 165.197 60.5341 165.147 60.692C162.092 69.3597 157.73 77.5083 152.212 84.8549Z" fill="white"/>
<path d="M145.486 59.3357L158.747 67.1158C160.066 67.8899 161.261 65.8391 159.943 65.0663L146.683 57.2861C145.364 56.512 144.169 58.5629 145.486 59.3357Z" fill="#CCCCCC"/>
<path d="M143.115 63.6874L156.375 71.4675C157.695 72.2416 158.89 70.1908 157.572 69.4179L144.312 61.6378C142.992 60.8637 141.798 62.9146 143.115 63.6874Z" fill="#CCCCCC"/>
<path d="M141.252 68.0222L153.312 75.1886C154.512 75.9016 155.795 74.4274 154.597 73.7156L142.537 66.5492C141.337 65.8362 140.054 67.3103 141.252 68.0222Z" fill="#CCCCCC"/>
<path d="M137.582 72.3908L150.842 80.1709C152.162 80.945 153.356 78.8942 152.039 78.1213L138.779 70.3412C137.459 69.5671 136.265 71.6179 137.582 72.3908Z" fill="#CCCCCC"/>
<path d="M114.958 106.298L88.3702 106.139L88.363 105.949C87.856 92.5961 89.4864 80.4999 93.3473 68.97C93.4019 68.5385 93.4609 68.0772 93.5188 67.6244C94.1783 62.466 94.7019 58.3705 99.6023 56.8452C99.1941 56.3018 98.9534 55.6508 98.9099 54.9722C98.8791 54.5213 98.9381 54.0687 99.0836 53.6408C99.2292 53.213 99.4583 52.8183 99.7577 52.48C100.044 52.1532 100.393 51.8867 100.783 51.6961C101.173 51.5055 101.598 51.3945 102.031 51.3696L111.495 51.047C111.992 51.0437 112.476 51.2079 112.869 51.5134C113.589 52.0491 114.096 52.8241 114.297 53.6996C114.499 54.5751 114.383 55.4938 113.969 56.2912C113.858 56.5133 113.815 56.6146 113.799 56.6586C114.135 58.423 115.133 60.5189 116.19 62.7368C117.702 65.9125 119.417 69.5117 119.857 73.3623C120.095 75.4413 119.997 77.5452 119.564 79.5927C119.367 80.696 119.322 81.8212 119.429 82.9369C119.516 84.5912 119.597 86.1531 118.663 87.6637C118.425 88.0732 118.153 88.5098 117.833 88.9935L116.519 92.1379L114.958 106.298Z" fill="#008163"/>
<path d="M75.0586 124.985V70.604C75.0606 68.832 75.7647 67.1331 77.0165 65.88C78.2683 64.627 79.9656 63.9222 81.7359 63.9202H83.5827C85.353 63.9222 87.0502 64.627 88.302 65.88C89.5538 67.1331 90.2579 68.832 90.2599 70.604V124.985C90.2579 126.757 89.5538 128.456 88.302 129.709C87.0502 130.962 85.353 131.667 83.5827 131.669H81.7359C79.9656 131.667 78.2683 130.962 77.0165 129.709C75.7647 128.456 75.0606 126.757 75.0586 124.985Z" fill="#3F3D56"/>
<path d="M146.358 76.0317C146.167 76.2708 145.996 76.5247 145.845 76.7908L118.512 78.7885L114.763 73.281L105.72 77.8576L111.41 88.2532C111.87 89.093 112.589 89.7609 113.46 90.1566C114.331 90.5524 115.307 90.6545 116.241 90.4478L146.685 83.7111C147.501 84.5609 148.557 85.1418 149.712 85.3764C150.866 85.6111 152.064 85.4884 153.147 85.0246C154.23 84.5608 155.147 83.778 155.774 82.7802C156.402 81.7825 156.711 80.6171 156.661 79.439C156.611 78.261 156.204 77.1261 155.494 76.1854C154.784 75.2447 153.804 74.5427 152.686 74.1728C151.567 73.8029 150.363 73.7826 149.232 74.1147C148.102 74.4468 147.1 75.1154 146.358 76.0317Z" fill="#FFB6B6"/>
<path d="M117.592 78.9109L106.419 84.6517C106.101 84.815 105.751 84.9079 105.394 84.9239C105.038 84.9399 104.681 84.8787 104.35 84.7444C104.019 84.6102 103.72 84.4061 103.475 84.146C103.23 83.8859 103.043 83.5759 102.928 83.2372L98.9048 71.3684C98.0798 69.739 97.933 67.8489 98.4965 66.1115C99.0599 64.3741 100.288 62.9307 101.912 62.0971C96.9587 64.6419 107.274 57.4133 111.211 65.091L118.479 75.2476C118.687 75.5385 118.83 75.8708 118.898 76.2219C118.966 76.5731 118.957 76.9348 118.873 77.2824C118.789 77.6301 118.631 77.9555 118.41 78.2365C118.189 78.5175 117.91 78.7475 117.592 78.9109Z" fill="#008163"/>
<path d="M101.142 47.251C100.333 47.251 99.441 46.8608 98.435 46.0704C95.4747 43.7436 93.3587 40.5089 92.4117 36.8626C91.4646 33.2162 91.7388 29.3596 93.1922 25.8842C93.9237 24.1353 95.2917 21.7581 97.6552 20.365C99.3542 19.364 101.35 19.0024 103.087 18.742C104.591 18.5164 106.114 18.3367 107.614 18.2089C109.406 18.0555 111.475 17.9519 113.363 18.6698C114.746 19.1959 115.923 20.1251 117.061 21.0237C117.458 21.3366 117.868 21.6608 118.279 21.9606C119.275 22.7381 120.424 23.2964 121.65 23.599C121.908 23.6527 122.153 23.7614 122.366 23.9177C122.579 24.074 122.756 24.2743 122.885 24.505C123.017 24.7395 123.097 24.9996 123.12 25.2678C123.143 25.5359 123.108 25.8058 123.017 26.0592C122.84 26.5576 122.679 27.0069 123.004 27.4937C123.124 27.6652 123.284 27.8046 123.471 27.8997C123.657 27.9948 123.864 28.0427 124.073 28.0392C124.184 28.0374 124.293 28.0632 124.391 28.1144C124.488 28.1655 124.572 28.2403 124.634 28.332C124.696 28.4229 124.736 28.5278 124.748 28.6374C124.761 28.747 124.747 28.8581 124.707 28.961L124.655 29.0951C124.794 29.108 124.928 29.1547 125.045 29.2309C125.162 29.3072 125.259 29.4108 125.327 29.5328C125.429 29.7065 125.468 29.9097 125.438 30.1088C125.409 30.3079 125.312 30.4909 125.165 30.6277C123.966 31.77 122.471 32.5532 120.85 32.8881C119.741 33.1059 118.599 33.1033 117.491 32.8804L117.313 32.8456L117.335 32.6478C112.851 31.0472 108.804 33.7636 106.497 36.8689L106.164 36.6584C106.221 36.5427 106.254 36.4165 106.261 36.2876C106.269 36.1586 106.25 36.0296 106.206 35.9081C106.16 35.7624 106.085 35.6272 105.986 35.5104C105.887 35.3936 105.767 35.2974 105.631 35.2274C105.356 35.1139 105.054 35.0845 104.762 35.1427C104.471 35.2009 104.203 35.3443 103.993 35.5546C103.779 35.7792 103.614 36.046 103.508 36.3379C103.403 36.6298 103.359 36.9405 103.381 37.2502C103.441 37.9067 103.608 38.5488 103.875 39.1514C103.984 39.4396 104.096 39.7379 104.187 40.0385C104.698 41.746 104.561 43.582 103.805 45.1953C103.455 45.9312 102.824 46.8697 101.799 47.1606C101.585 47.221 101.364 47.2514 101.142 47.251Z" fill="#2F2E41"/>
<path d="M319.53 183H0.470686C0.346116 183 0.226774 182.95 0.138817 182.862C0.0508604 182.773 0.00146484 182.654 0.00146484 182.529C0.00146484 182.404 0.0508604 182.285 0.138817 182.196C0.226774 182.108 0.346116 182.058 0.470686 182.058H319.53C319.654 182.058 319.774 182.107 319.862 182.196C319.951 182.284 320 182.404 320 182.529C320 182.654 319.951 182.774 319.862 182.862C319.774 182.95 319.654 183 319.53 183Z" fill="#CACACA"/>
</g>
<defs>
<clipPath id="clip0_38_7154">
<rect width="320" height="183" fill="white"/>
</clipPath>
</defs>
</svg>
