<svg width="300" height="196" viewBox="0 0 300 196" fill="none" xmlns="http://www.w3.org/2000/svg">
<g clip-path="url(#clip0_38_6917)">
<path d="M276.794 94.6435H33.5273C30.2666 94.6435 27.6138 91.9971 27.6138 88.7438V5.89934C27.6138 2.64642 30.2666 0 33.5273 0H276.794C280.055 0 282.708 2.64642 282.708 5.89934V88.7438C282.708 91.9971 280.055 94.6435 276.794 94.6435ZM33.5273 0.703332C30.6554 0.703332 28.3188 3.03432 28.3188 5.89934V88.7438C28.3188 91.609 30.6554 93.9402 33.5273 93.9402H276.794C279.666 93.9402 282.003 91.609 282.003 88.7438V5.89934C282.003 3.03432 279.666 0.703332 276.794 0.703332H33.5273Z" fill="#3F3D56"/>
<path d="M300 193.612H0V194.204H300V193.612Z" fill="#E6E6E6"/>
<path d="M300 163.369H0V163.961H300V163.369Z" fill="#E6E6E6"/>
<path d="M136.718 97.6902C136.934 100.391 138.505 102.469 140.228 102.332C141.951 102.195 143.173 99.8949 142.957 97.1932C142.885 96.1128 142.556 95.0652 141.995 94.1379L140.938 82.7062L135.571 83.3156L137.183 94.5206C136.777 95.525 136.617 96.6118 136.718 97.6902Z" fill="#FFB6B6"/>
<path d="M130.307 44.3568C130.307 44.3568 135.324 41.7074 137.868 45.6666C140.412 49.6258 142.168 92.4456 142.168 92.4456L135.117 93.1966L133.78 63.0227L130.307 44.3568Z" fill="#E6E6E6"/>
<path d="M119.895 161.135L123.98 161.135L125.923 145.417L119.894 145.417L119.895 161.135Z" fill="#FFB6B6"/>
<path d="M133.889 161.043C134.016 161.256 134.084 161.946 134.084 162.194C134.084 162.958 133.463 163.577 132.697 163.577H120.047C119.525 163.577 119.102 163.155 119.102 162.634V162.109C119.102 162.109 118.476 160.529 119.764 158.583C119.764 158.583 121.365 160.107 123.758 157.72L124.464 156.445L129.571 160.171L132.402 160.519C133.022 160.595 133.571 160.507 133.889 161.043Z" fill="#2F2E41"/>
<path d="M143.532 160.46L147.49 159.451L145.473 143.743L139.632 145.232L143.532 160.46Z" fill="#FFB6B6"/>
<path d="M157.068 156.916C157.245 157.091 157.481 157.743 157.542 157.984C157.732 158.724 157.284 159.477 156.542 159.666L144.286 162.789C143.78 162.918 143.265 162.613 143.136 162.109L143.005 161.6C143.005 161.6 142.007 160.224 142.773 158.02C142.773 158.02 144.702 159.101 146.428 156.198L146.796 154.788L152.669 157.138L155.498 156.775C156.117 156.696 156.627 156.476 157.068 156.916Z" fill="#2F2E41"/>
<path d="M116.515 40.978L116.321 39.5759L118.623 33.9675L124.948 33.2665L126.313 41.2956L116.515 40.978Z" fill="#FFB6B6"/>
<path opacity="0.1" d="M116.515 40.978L116.321 39.5759L118.623 33.9675L124.948 33.2665L126.313 41.2956L116.515 40.978Z" fill="black"/>
<path d="M109.137 80.5871L106.326 88.2986L108.434 92.5049L118.975 153.496H125.983L124.597 99.5153L140.76 153.496H147.696L142.118 117.041L137.949 83.3913L135.42 81.8328L123.191 74.9788L109.137 80.5871Z" fill="#2F2E41"/>
<path d="M127.056 85.8449L122.84 86.5459L117.218 73.2261H129.867L127.056 85.8449Z" fill="#E6E6E6"/>
<path d="M135.489 82.3397L127.056 85.8449L124.245 79.5355L122.84 86.5459L108.083 81.8069L110.191 73.2261L108.083 45.1843L115.524 40.2349L116.515 39.5759L125.651 40.277L126.452 40.7116L131.975 43.7822L133.381 66.9167L135.489 82.3397Z" fill="#2F2E41"/>
<path d="M126.452 40.7116L122.488 57.4526L115.524 40.2349L116.515 39.5759L125.651 40.277L126.452 40.7116Z" fill="#E6E6E6"/>
<path d="M119.677 39.5759L118.272 41.9906L119.677 42.7955L118.975 57.4961L121.786 61.3083L124.597 55.674L122.488 42.7955L123.191 39.5759H119.677Z" fill="#2F2E41"/>
<path d="M121.786 38.1739C125.473 38.1739 128.462 35.1921 128.462 31.5139C128.462 27.8358 125.473 24.854 121.786 24.854C118.099 24.854 115.11 27.8358 115.11 31.5139C115.11 35.1921 118.099 38.1739 121.786 38.1739Z" fill="#FFB6B6"/>
<path d="M117.519 32.0981L118.962 32.7261L119.591 28.958C119.591 28.958 122.109 27.702 123.998 28.33C125.886 28.958 129.034 28.33 129.034 28.33C129.034 28.33 129.034 22.0498 124.627 22.0498C120.221 22.0498 115.814 22.6778 115.814 24.5619C115.814 26.4459 113.925 28.33 113.925 28.33C113.925 28.33 111.407 32.0981 113.925 34.6102C116.443 37.1223 117.702 37.1223 117.702 37.1223L117.519 32.0981Z" fill="#2F2E41"/>
<path d="M104.565 97.4932C104.492 100.202 105.834 102.435 107.561 102.481C109.289 102.527 110.749 100.369 110.821 97.6598C110.865 96.5779 110.649 95.5013 110.19 94.5199L110.355 83.0408L104.954 83.0784L105.365 94.3908C104.854 95.3464 104.58 96.4103 104.565 97.4932Z" fill="#FFB6B6"/>
<path d="M111.248 43.769C111.248 43.769 106.68 42.3669 104.572 46.5732C102.464 50.7795 105.275 93.5432 105.275 93.5432H112.366L110.484 63.3983L111.248 43.769Z" fill="#E6E6E6"/>
<path d="M286.472 123.438L269.438 118.236C269.061 118.121 268.666 118.079 268.273 118.112L181.942 125.442C180.711 125.546 180.402 127.202 181.512 127.742L184.278 129.086H184.204V193.424H186.81V130.317L195.477 134.529C196.14 134.851 196.88 134.983 197.614 134.909L198.536 134.816V193.424H201.142V134.553L267.914 127.825V193.424H270.52V127.562L281.595 126.446V193.424H284.2V126.184L286.221 125.98C287.639 125.837 287.835 123.854 286.472 123.438Z" fill="#3F3D56"/>
<path d="M207.004 125.187C208.633 125.187 232.736 122.262 232.736 122.262L236.319 127.137L211.239 132.011L207.004 125.187Z" fill="white"/>
<path d="M233.458 190.925L229.271 190.918L227.306 174.801L233.487 174.812L233.458 190.925Z" fill="#A0616A"/>
<path d="M219.111 190.806C218.98 191.025 218.91 191.732 218.91 191.987C218.908 192.77 219.544 193.406 220.329 193.407L233.297 193.429C233.833 193.43 234.268 192.998 234.268 192.463L234.269 191.925C234.269 191.925 234.914 190.307 233.596 188.31C233.596 188.31 231.952 189.869 229.503 187.418L228.782 186.109L223.539 189.921L220.636 190.272C220.001 190.349 219.438 190.258 219.111 190.806Z" fill="#2F2E41"/>
<path d="M255.934 183.431L252.63 185.917L241.445 174.387L246.321 170.717L255.934 183.431Z" fill="#A0616A"/>
<path d="M244.558 191.874C244.586 192.125 244.953 192.723 245.105 192.924C245.572 193.542 246.453 193.665 247.072 193.199L257.304 185.499C257.726 185.181 257.81 184.582 257.492 184.16L257.17 183.735C257.17 183.735 256.711 182.077 254.478 181.287C254.478 181.287 254.115 183.495 250.72 183.02L249.369 182.419L247.518 188.541L245.44 190.546C244.986 190.984 244.488 191.247 244.558 191.874Z" fill="#2F2E41"/>
<path d="M247.182 100.133C247.182 103.986 244.051 107.109 240.19 107.109C236.328 107.109 233.197 103.986 233.197 100.133C233.197 96.2809 236.328 93.1578 240.19 93.1578C244.051 93.1578 247.182 96.2809 247.182 100.133Z" fill="#A0616A"/>
<path d="M246.523 140.352C246.523 140.352 220.778 138.899 219.321 141.806C217.864 144.714 227.199 184.651 227.199 184.651L235.528 182.909L231.465 154.89C231.465 154.89 252.948 160.566 255.862 153.782C258.777 146.997 257.938 144.471 257.938 144.471L246.523 140.352Z" fill="#2F2E41"/>
<path d="M253.119 135.472C253.119 135.472 227.906 140.864 227.272 144.052C226.638 147.241 246.23 183.292 246.23 183.292L253.801 179.415L242.452 153.465C242.452 153.465 264.676 153.27 265.687 145.958C266.699 138.646 265.22 136.432 265.22 136.432L253.119 135.472Z" fill="#2F2E41"/>
<path d="M255.995 108.128H243.882L235.594 121.696C235.594 121.696 233.651 130.464 235.594 131.411C237.537 132.357 237.537 142.533 237.537 142.533L257.938 144.471C257.938 144.471 260.852 113.943 259.881 111.035C258.909 108.128 255.995 108.128 255.995 108.128Z" fill="#008163"/>
<path d="M236.808 117.092L235.594 131.41L221.935 125.627L218.675 123.992C218.036 123.161 217.208 122.495 216.258 122.05C213.898 120.902 211.391 121.186 210.659 122.684C209.927 124.183 211.247 126.328 213.607 127.475C214.544 127.946 215.581 128.187 216.63 128.177L226.169 133.581L226.18 133.56L226.222 133.635L241.18 139.868L244.622 121.071L236.808 117.092Z" fill="#A0616A"/>
<path d="M235.351 101.101C235.351 101.101 228.065 102.07 230.979 95.7708C230.979 95.7708 230.535 92.3558 232.7 92.125C234.865 91.8941 237.78 88.0175 237.78 88.0175C237.78 88.0175 244.462 84.6254 247.921 88.0175C251.381 91.4095 261.581 111.277 261.581 111.277L254.781 118.546C254.781 118.546 250.692 107.824 245.936 109.066C241.18 110.308 236.808 114.011 236.808 114.011C236.808 114.011 231.981 111.601 234.152 109.501C236.322 107.401 235.351 101.101 235.351 101.101Z" fill="#2F2E41"/>
<path d="M245.066 111.762C245.066 111.762 241.666 107.401 239.237 110.793C236.808 114.185 234.865 118.546 234.865 118.546L244.58 121.938L245.066 111.762Z" fill="#008163"/>
<path d="M281.952 192.46L270.665 156.67L270.667 156.67H270.693L270.647 156.612L270.646 156.61L269.842 154.061L269.843 154.061C271.067 153.008 271.901 151.504 272.067 149.772L266.908 121.463C267.263 117.746 264.406 114.496 260.664 114.363L249.023 114.334C245.713 114.217 242.847 116.602 242.365 119.871L242.107 121.606L238.541 145.811C238.411 146.682 238.463 147.539 238.668 148.342L236.101 148.677L235.323 148.781L232.245 149.18L232.235 149.184L231.851 149.232H231.434V159.63H231.46V192.865C231.46 193.08 231.636 193.255 231.851 193.255C232.069 193.255 232.245 193.08 232.245 192.865V159.63H236.811L241.368 192.826C241.397 193.021 241.564 193.164 241.759 193.164C241.775 193.164 241.795 193.164 241.811 193.161C242.026 193.132 242.176 192.933 242.147 192.719L237.606 159.63H259.517C261.693 159.63 263.709 158.942 265.35 157.762L274.038 192.765C274.083 192.942 274.243 193.06 274.418 193.06C274.45 193.06 274.482 193.056 274.515 193.048C274.725 192.995 274.852 192.782 274.798 192.572L266.027 157.231C266.144 157.134 266.26 157.03 266.37 156.924L269.858 156.719L281.204 192.695C281.256 192.862 281.411 192.969 281.578 192.969C281.617 192.969 281.656 192.963 281.696 192.95C281.902 192.885 282.017 192.666 281.952 192.46ZM269.097 154.617C269.126 154.6 269.152 154.581 269.178 154.565L269.262 154.83L269.097 154.617Z" fill="#E6E6E6"/>
<path d="M60.479 131.796L68.0753 126.976L71.1636 128.835L60.479 141.083V131.796Z" fill="#FFB6B6"/>
<path d="M50.0911 113.142C50.0911 113.142 45.0456 114.327 47.42 121.137C49.7943 127.947 57.511 142.158 59.8853 141.27C62.2597 140.382 62.5565 131.5 62.5565 131.5C62.5565 131.5 62.2597 131.796 61.0725 130.611C59.8853 129.427 59.8853 129.968 59.8853 128.661C59.8853 127.354 58.9143 126.386 58.9143 126.386L57.8078 124.097C57.8078 124.097 57.8078 113.439 53.3559 112.846C48.904 112.254 50.0911 113.142 50.0911 113.142Z" fill="#E6E6E6"/>
<path d="M73.6638 128.516C75.6342 126.551 76.245 123.973 75.028 122.759C73.811 121.545 71.2271 122.154 69.2567 124.12C67.2863 126.085 66.6755 128.663 67.8925 129.877C69.1096 131.091 71.6934 130.482 73.6638 128.516Z" fill="#FFB6B6"/>
<path d="M30.4385 152.373L35.6218 160.932L65.8284 159.149L57.7852 148.807L30.4385 152.373Z" fill="#E6E6E6"/>
<path d="M39.4643 192.404C39.2884 192.404 39.1351 192.274 39.1106 192.095L30.0844 126.331C30.0576 126.136 30.1945 125.956 30.39 125.93C30.5855 125.901 30.7658 126.039 30.7927 126.234L39.8189 191.999C39.8457 192.194 39.7089 192.374 39.5133 192.4C39.4968 192.402 39.4805 192.404 39.4643 192.404Z" fill="#E6E6E6"/>
<path d="M30.4385 192.487C30.2411 192.487 30.0811 192.327 30.0811 192.131V126.296C30.0811 126.099 30.2411 125.939 30.4385 125.939C30.6359 125.939 30.796 126.099 30.796 126.296V192.131C30.796 192.327 30.6359 192.487 30.4385 192.487Z" fill="#E6E6E6"/>
<path d="M75.7483 192.225C75.5963 192.225 75.4554 192.128 75.4074 191.976L54.0483 124.25C53.9891 124.062 54.0937 123.862 54.282 123.803C54.4703 123.744 54.6711 123.848 54.7303 124.036L76.0893 191.762C76.1486 191.949 76.0439 192.15 75.8556 192.209C75.8199 192.22 75.7838 192.225 75.7483 192.225Z" fill="#E6E6E6"/>
<path d="M69.2242 192.309C69.0646 192.309 68.9192 192.202 68.878 192.04L54.0428 132.268C53.9942 132.077 54.1099 131.883 54.3012 131.834C54.4931 131.786 54.6871 131.901 54.7358 132.092L69.571 191.864C69.6196 192.055 69.5039 192.249 69.3126 192.298C69.283 192.305 69.2534 192.309 69.2242 192.309Z" fill="#E6E6E6"/>
<path d="M30.4385 127.344L55.1935 126.965L59.7513 152.908H30.7959L30.4385 127.344Z" fill="#E6E6E6"/>
<path d="M68.4809 165.493L62.2422 176.45L69.4859 178.041L72.5058 170.248L68.4809 165.493Z" fill="#FFB6B6"/>
<path d="M64.4829 174.382C64.4829 174.382 64.2405 172.595 62.8153 173.162C61.3901 173.729 57.2769 175.836 57.2769 175.836C57.2769 175.836 68.0051 193.226 70.0411 192.416C72.0771 191.606 69.6398 186.69 69.6398 186.69L70.1778 178.001L64.4829 174.382Z" fill="#2F2E41"/>
<path d="M40.8903 144.231C40.8903 144.231 38.6643 154.446 45.4906 157.999C52.3169 161.552 75.6152 152.817 75.6152 152.817L64.9306 168.788L72.3505 171.767C72.3505 171.767 89.2678 149.56 88.0806 146.008C86.8934 142.455 78.88 142.158 78.88 142.158L60.7755 143.047L56.0268 141.566L40.8903 144.231Z" fill="#2F2E41"/>
<path d="M59.2512 170.356L49.4434 178.297L55.6101 182.409L61.2657 176.246L59.2512 170.356Z" fill="#FFB6B6"/>
<path d="M52.2851 177.184C52.2851 177.184 52.7111 175.431 51.1767 175.442C49.6424 175.453 45.0425 175.923 45.0425 175.923C45.0425 175.923 48.692 196.015 50.8839 196C53.0758 195.984 52.5987 190.521 52.5987 190.521L56.2692 182.623L52.2851 177.184Z" fill="#2F2E41"/>
<path d="M41.3076 140.536C41.3076 140.536 35.5083 149.243 40.5706 155.03C45.6329 160.817 70.52 161.139 70.52 161.139L54.7424 172.137L60.5672 177.604C60.5672 177.604 84.4246 163.062 84.6148 159.321C84.805 155.581 77.4489 152.396 77.4489 152.396L60.2616 146.651L56.3784 143.549L41.3076 140.536Z" fill="#2F2E41"/>
<path d="M56.2055 120.37C56.2055 120.37 50.5664 118.297 47.8952 118.297C47.64 118.297 47.3877 118.327 47.1354 118.38C45.4259 118.741 43.8529 120.207 43.099 121.006C42.8052 121.32 42.636 121.53 42.636 121.53C42.636 121.53 42.6538 121.326 42.6894 120.968C42.8645 119.085 43.5116 112.906 44.672 108.95C45.0875 107.538 45.5654 106.41 46.1144 105.862C47.3936 104.583 47.9842 103.049 48.2573 101.906C48.4888 100.926 48.4888 100.236 48.4888 100.236L46.3252 99.3065L45.9245 96.6951C45.8533 97.003 45.5238 97.6041 44.4168 98.7558C44.3218 98.8535 44.2179 98.9364 44.1081 99.0075C42.5114 100.008 39.2555 98.2673 37.5015 97.1718C38.2316 94.6403 39.5553 92.3249 41.9593 91.9459C47.5984 91.0577 47.5984 87.8008 51.16 91.3538C51.4538 91.6469 51.7506 91.9282 52.0474 92.2006C53.1871 94.3738 53.6026 97.2872 53.751 99.3125C53.8578 100.731 53.8311 101.717 53.8311 101.717C53.8311 101.717 55.3151 110.599 57.6894 112.376C60.0638 114.152 56.2055 120.37 56.2055 120.37Z" fill="#2F2E41"/>
<path d="M45.2241 106.158L41.2139 112.026L50.2696 114.448V106.158H45.2241Z" fill="#FFB6B6"/>
<path opacity="0.1" d="M45.2241 106.158L41.2139 112.026L50.2696 114.448V106.158H45.2241Z" fill="black"/>
<path d="M50.8332 111.81L42.2261 108.257C42.2261 108.257 30.6511 113.29 31.5415 123.061C32.4319 132.832 40.7422 149.709 40.7422 149.709L57.3626 142.603L55.5819 123.653L50.8332 111.81Z" fill="#E6E6E6"/>
<path d="M47.1428 108.778C51.3366 108.778 54.7363 105.386 54.7363 101.202C54.7363 97.0188 51.3366 93.6272 47.1428 93.6272C42.949 93.6272 39.5493 97.0188 39.5493 101.202C39.5493 105.386 42.949 108.778 47.1428 108.778Z" fill="#FFB6B6"/>
<path d="M57.393 98.4597C55.9091 99.9401 54.7219 101.421 54.7219 101.421L54.1283 99.0519C54.1283 99.0519 53.9918 99.1526 53.7514 99.3125C52.8105 99.952 50.2848 101.56 48.2577 101.906C47.3554 102.06 46.5541 101.962 46.0317 101.421C44.9247 100.269 44.5953 99.6677 44.524 99.3598L44.1233 101.971L41.9597 102.901C41.9597 102.901 41.9597 106.152 44.3341 108.527C44.4498 108.642 44.5626 108.784 44.6724 108.95C45.8062 110.655 46.6194 114.83 47.1358 118.38C47.5929 121.536 47.8125 124.195 47.8125 124.195C47.8125 124.195 45.5658 121.388 43.0994 121.006C42.9629 120.986 42.8264 120.971 42.6898 120.968C42.6453 120.962 42.5978 120.962 42.5533 120.962C39.8822 120.962 34.2431 123.035 34.2431 123.035C34.2431 123.035 30.3847 116.817 32.7591 115.04C35.1335 113.264 36.6174 104.381 36.6174 104.381C36.6174 104.381 36.5195 100.58 37.5019 97.1718C38.232 94.6403 39.5557 92.3249 41.9597 91.9459C47.5988 91.0577 47.5988 87.8008 51.1603 91.3538C51.4542 91.6469 51.751 91.9282 52.0478 92.2006C55.3659 95.2443 58.7553 97.1007 57.393 98.4597Z" fill="#2F2E41"/>
<path d="M24.0887 138.205H21.2686V193.768H24.0887V138.205Z" fill="#3F3D56"/>
<path d="M92.4759 138.205H89.6558V193.768H92.4759V138.205Z" fill="#3F3D56"/>
<path d="M74.4976 114.643H55.8145V133.281H74.4976V114.643Z" fill="#008163"/>
<path d="M45.0454 134.46L52.6417 129.641L55.73 131.499L45.0454 143.747V134.46Z" fill="#FFB6B6"/>
<path d="M34.6575 115.807C34.6575 115.807 29.612 116.991 31.9864 123.801C34.3607 130.611 42.0774 144.823 44.4517 143.935C46.8261 143.047 47.1229 134.164 47.1229 134.164C47.1229 134.164 46.8261 134.46 45.6389 133.276C44.4518 132.092 44.4517 132.633 44.4517 131.326C44.4517 130.019 43.4807 129.05 43.4807 129.05L42.3742 126.762C42.3742 126.762 42.3742 116.103 37.9223 115.511C33.4704 114.919 34.6575 115.807 34.6575 115.807Z" fill="#E6E6E6"/>
<path d="M58.2302 131.181C60.2006 129.215 60.8114 126.638 59.5944 125.424C58.3774 124.21 55.7935 124.819 53.8231 126.784C51.8527 128.75 51.2419 131.328 52.459 132.542C53.676 133.756 56.2599 133.147 58.2302 131.181Z" fill="#FFB6B6"/>
<path d="M98.1161 136.095H12.8081V142.425H98.1161V136.095Z" fill="#3F3D56"/>
<path d="M184.789 85.4548H172.19C171.191 85.4548 170.381 86.2625 170.381 87.2589V92.4425C170.381 93.4388 171.191 94.2465 172.19 94.2465H184.789C185.787 94.2465 186.597 93.4388 186.597 92.4425V87.2589C186.597 86.2625 185.787 85.4548 184.789 85.4548Z" fill="#3F3D56"/>
<path d="M211.227 90.6384H198.628C197.629 90.6384 196.82 91.4461 196.82 92.4424V92.4425C196.82 93.4388 197.629 94.2465 198.628 94.2465H211.227C212.226 94.2465 213.035 93.4388 213.035 92.4424C213.035 91.4461 212.226 90.6384 211.227 90.6384Z" fill="#008163"/>
</g>
<defs>
<clipPath id="clip0_38_6917">
<rect width="300" height="196" fill="white"/>
</clipPath>
</defs>
</svg>
