<svg width="232" height="269" viewBox="0 0 232 269" fill="none" xmlns="http://www.w3.org/2000/svg">
<path d="M62.0936 81.9686C60.4382 82.5982 58.7478 83.1319 57.0309 83.5671C54.7629 84.1189 53.4824 84.3747 51.2934 83.5265C51.2165 83.4968 51.1431 83.4673 51.0739 83.4383C46.9247 81.6771 43.3779 78.7496 40.8652 75.0122C38.3524 71.2748 36.9821 66.8887 36.9211 62.3879C36.9101 62.2335 36.9101 62.0711 36.9101 61.9128C36.908 61.15 36.9445 60.3875 37.0196 59.6284C37.1155 58.5943 37.2812 57.5679 37.5155 56.5561L37.4936 56.5522C35.7213 54.7429 35.0394 52.2645 35.2655 49.7742C35.4204 48.0859 35.9571 46.4547 36.8351 45.0036C37.7132 43.5525 38.9096 42.3192 40.3344 41.3968C42.5673 39.9952 45.085 39.108 47.7044 38.7996C48.4077 38.7186 49.1151 38.6777 49.8231 38.6769H56.4746C57.8484 38.3558 59.244 38.1361 60.6501 38.0197H60.661C74.048 36.9111 84.6052 45.7716 83.6206 56.5522C83.6133 56.564 83.6024 56.5759 83.5951 56.5878C83.3106 57.051 83.059 57.4905 82.8365 57.9101C82.6214 58.3021 82.4391 58.6782 82.2823 59.0345C81.0606 61.79 86.8662 104.542 84.7839 105.191C83.5987 105.559 78.8215 73.7465 79.6785 79.796C80.7579 87.3855 68.2609 79.6926 62.0936 81.9686Z" fill="#2F2E41"/>
<path d="M82.2602 159.252L100.817 198.721L29.4326 191.503L44.3338 153.613L82.2602 159.252Z" fill="#FFB6B6"/>
<path d="M119.512 238.386C107.099 242.511 94.017 244.261 80.9539 243.542L75.2734 234.345C75.2734 234.345 75.0355 237.77 74.6807 243.007C68.4623 242.287 62.325 240.988 56.3491 239.127C45.0163 235.589 34.393 230.107 23.6246 225.051C21.4435 212.071 20.6251 192.054 32.6836 180.402L97.5882 192.276C97.5882 192.276 108.002 200.052 105.216 202.837C102.43 205.619 101.999 205.188 103.829 207.015C105.659 208.843 109.614 211.286 109.655 212.884C109.671 213.508 114.11 224.822 119.512 238.386Z" fill="#2F2E41"/>
<path d="M70.9264 82.9825L55.2457 84.0748L45.1106 93.8524L41.5611 94.485C38.3705 95.0529 35.4996 96.77 33.4928 99.3107C31.4859 101.851 30.4827 105.039 30.6733 108.269C31.4034 120.619 33.0382 139.071 36.4549 145.058C41.7529 154.341 46.1289 151.429 41.7529 154.341C37.3769 157.254 34.4389 154.965 36.4549 159.568C38.4709 164.171 33.7302 170.075 33.7302 170.075L31.843 171.96L33.8446 172.779L97.6229 181.064C97.6229 181.064 92.1082 156.309 95.5571 150.228C99.0059 144.147 107.368 125.765 99.905 118.573L92.6078 92.9358L80.056 89.2399L70.9264 82.9825Z" fill="#008163"/>
<path d="M165.849 184.583C164.8 184.55 163.77 184.29 162.832 183.82C161.893 183.35 161.068 182.683 160.413 181.863C159.758 181.044 159.289 180.093 159.039 179.075C158.789 178.057 158.763 176.996 158.963 175.967L129.046 155.739L132.616 146.102L167.973 170.387C169.683 170.853 171.162 171.928 172.13 173.41C173.099 174.892 173.489 176.677 173.227 178.427C172.965 180.177 172.07 181.77 170.71 182.904C169.35 184.039 167.621 184.636 165.849 184.583Z" fill="#FFB6B6"/>
<path d="M81.3482 91.7251L77.001 93.4436L100.191 138.662L148.199 171.333L155.119 159.656L118.575 128.142L103.945 100.128C101.886 96.186 98.4366 93.1452 94.2633 91.5932C90.0901 90.0413 85.4888 90.0882 81.3482 91.7251Z" fill="#008163"/>
<path d="M62.2701 79.0058C70.9662 79.0058 78.0158 71.9677 78.0158 63.2857C78.0158 54.6038 70.9662 47.5657 62.2701 47.5657C53.574 47.5657 46.5244 54.6038 46.5244 63.2857C46.5244 71.9677 53.574 79.0058 62.2701 79.0058Z" fill="#FFB6B6"/>
<path d="M75.9622 56.6381C75.6996 56.7764 75.4407 56.9039 75.1781 57.0313C74.9046 57.1624 74.6311 57.2934 74.354 57.4172C69.0845 59.8019 64.7924 60.0677 62.1886 56.6381C62.1174 54.8338 61.7105 53.0585 60.9889 51.4027C61.1164 53.253 60.6279 55.0936 59.5995 56.6381H54.3555C48.9548 60.217 46.1833 63.5046 49.9321 75.2532C50.1764 76.0251 51.8503 103.447 52.328 105.555C44.1521 102.424 37.0994 69.1805 36.9207 60.4208C36.9098 60.2789 36.9098 60.1296 36.9098 59.9839C36.9076 59.2822 36.9442 58.5809 37.0192 57.8832C37.1154 56.9307 37.2812 55.9864 37.5151 55.058L37.4932 55.0544C36.6614 54.2604 36.0268 53.2834 35.64 52.2013C35.2531 51.1192 35.1248 49.9618 35.2651 48.8214C36.6367 47.0285 38.334 45.5093 40.2684 44.3433C42.0274 43.4929 43.8608 42.8056 45.7457 42.2899C45.7931 42.279 45.8332 42.2681 45.8806 42.2571C46.4568 42.1006 47.0476 41.9586 47.6383 41.8348C48.8558 41.5799 50.0867 41.394 51.3251 41.2778C51.4163 41.2741 51.5038 41.2668 51.584 41.2668C52.0794 41.2672 52.5656 41.4005 52.9917 41.6528C52.9953 41.6528 52.9953 41.6564 53.0026 41.6564C53.412 41.9006 53.7515 42.246 53.9885 42.6592C54.2254 43.0724 54.3518 43.5395 54.3555 44.0156H60.1975C60.4127 44.0156 60.6278 44.0229 60.843 44.0338C68.9787 44.3578 75.5173 47.8311 75.9366 55.8153C75.9549 56.092 75.9622 56.3614 75.9622 56.6381Z" fill="#2F2E41"/>
<path d="M41.4237 57.2701C47.1527 57.2701 51.797 52.6333 51.797 46.9136C51.797 41.1939 47.1527 36.5571 41.4237 36.5571C35.6946 36.5571 31.0503 41.1939 31.0503 46.9136C31.0503 52.6333 35.6946 57.2701 41.4237 57.2701Z" fill="#2F2E41"/>
<path d="M55.6648 42.1234C54.4863 47.7208 48.6719 51.0685 43.1095 49.6991C40.4383 49.0415 38.1382 47.3514 36.7152 45.0007C35.2922 42.65 34.8628 39.8311 35.5215 37.1643C36.8931 31.6109 43.6438 33.2119 48.0767 29.5886C54.3477 24.4629 57.2541 34.5749 55.6648 42.1234Z" fill="#2F2E41"/>
<path d="M32.6169 197.933C41.4579 161.939 58.9755 131 87.9871 106.761C89.1099 104.917 90.9195 103.593 93.0189 103.079C95.1183 102.565 97.3361 102.904 99.1857 104.021L168.154 145.769C170.001 146.89 171.327 148.697 171.841 150.793C172.356 152.889 172.017 155.103 170.898 156.95C159.825 193.884 143.239 225.934 115.528 248.122C114.405 249.966 112.596 251.29 110.496 251.804C108.397 252.318 106.179 251.979 104.329 250.862L35.3615 209.114C33.5145 207.993 32.1882 206.186 31.6736 204.09C31.1591 201.994 31.4983 199.78 32.6169 197.933Z" fill="#F2F2F2"/>
<path opacity="0.2" d="M44.8752 210.064C43.0281 208.943 41.7019 207.136 41.1873 205.04C40.6728 202.944 41.0121 200.73 42.1307 198.884C50.9717 162.889 68.4893 131.951 97.5008 107.711C98.244 106.504 99.2934 105.514 100.543 104.842L99.1857 104.02C97.3361 102.904 95.1183 102.565 93.0189 103.079C90.9195 103.592 89.1099 104.916 87.987 106.76C58.9755 131 41.4579 161.938 32.6169 197.933C31.4983 199.78 31.1591 201.994 31.6736 204.09C32.1881 206.186 33.5144 207.992 35.3615 209.113L104.329 250.862C105.557 251.6 106.958 252 108.39 252.023C109.823 252.045 111.236 251.689 112.486 250.991L44.8752 210.064Z" fill="black"/>
<path d="M125.757 189.954L79.4627 162.105C78.7272 161.661 78.1982 160.944 77.9919 160.111C77.7855 159.279 77.9187 158.398 78.3622 157.663C78.8057 156.928 79.5232 156.399 80.3572 156.192C81.1911 155.985 82.0733 156.117 82.81 156.559L129.104 184.407C129.838 184.852 130.365 185.569 130.571 186.401C130.776 187.233 130.642 188.112 130.199 188.846C129.756 189.58 129.04 190.109 128.207 190.316C127.375 190.524 126.494 190.393 125.757 189.954Z" fill="white"/>
<path d="M98.8258 153.024L88.641 146.897C87.903 146.456 87.3705 145.74 87.1608 144.908C86.9512 144.075 87.0814 143.193 87.523 142.456C87.9645 141.719 88.6812 141.188 89.5153 140.978C90.3495 140.769 91.2327 140.899 91.9708 141.34L91.9883 141.351L102.173 147.477C102.907 147.922 103.434 148.639 103.64 149.471C103.845 150.303 103.712 151.182 103.269 151.916C102.826 152.65 102.109 153.179 101.276 153.387C100.444 153.594 99.5623 153.464 98.8258 153.024Z" fill="white"/>
<path d="M118.399 202.145L72.1046 174.296C71.3683 173.854 70.8381 173.137 70.6306 172.304C70.4231 171.472 70.5552 170.591 70.9979 169.855C71.4407 169.12 72.1578 168.59 72.9917 168.382C73.8256 168.174 74.7081 168.305 75.4453 168.746L75.4518 168.75L121.746 196.599C122.48 197.043 123.007 197.76 123.212 198.592C123.418 199.424 123.284 200.303 122.841 201.037C122.398 201.771 121.682 202.3 120.849 202.508C120.017 202.715 119.136 202.585 118.399 202.145Z" fill="white"/>
<path d="M131.636 137.444C139.104 137.444 145.158 131.4 145.158 123.945C145.158 116.489 139.104 110.445 131.636 110.445C124.168 110.445 118.114 116.489 118.114 123.945C118.114 131.4 124.168 137.444 131.636 137.444Z" fill="#3F3D56"/>
<path d="M108.328 268.597C124.29 268.597 137.229 255.679 137.229 239.744C137.229 223.809 124.29 210.891 108.328 210.891C92.3669 210.891 79.4277 223.809 79.4277 239.744C79.4277 255.679 92.3669 268.597 108.328 268.597Z" fill="white"/>
<path d="M108.328 269C102.532 269 96.8668 267.284 92.0478 264.07C87.2289 260.855 83.473 256.286 81.255 250.94C79.0371 245.594 78.4568 239.712 79.5875 234.037C80.7181 228.362 83.509 223.149 87.6072 219.057C91.7054 214.966 96.9268 212.179 102.611 211.05C108.295 209.921 114.187 210.501 119.542 212.715C124.896 214.929 129.473 218.679 132.693 223.49C135.913 228.301 137.632 233.958 137.632 239.744C137.623 247.5 134.533 254.937 129.039 260.421C123.546 265.906 116.097 268.991 108.328 269ZM108.328 211.293C102.692 211.293 97.1822 212.962 92.4958 216.088C87.8094 219.214 84.1568 223.658 81.9999 228.856C79.8431 234.055 79.2787 239.776 80.3783 245.295C81.4779 250.814 84.192 255.883 88.1775 259.862C92.1629 263.841 97.2407 266.551 102.769 267.648C108.297 268.746 114.026 268.183 119.234 266.029C124.441 263.876 128.892 260.229 132.023 255.55C135.154 250.872 136.825 245.371 136.825 239.744C136.817 232.201 133.812 224.969 128.469 219.636C123.127 214.302 115.883 211.302 108.328 211.293Z" fill="#3F3D56"/>
<path d="M104.385 254.761C103.886 254.761 103.394 254.645 102.948 254.422C102.501 254.199 102.113 253.875 101.814 253.477L93.9292 242.981C93.6755 242.644 93.4908 242.26 93.3857 241.852C93.2807 241.443 93.2572 241.018 93.3168 240.601C93.3764 240.183 93.5178 239.781 93.7329 239.418C93.948 239.056 94.2327 238.739 94.5706 238.486C94.9086 238.233 95.2931 238.048 95.7023 237.944C96.1115 237.839 96.5374 237.816 96.9555 237.876C97.3736 237.936 97.7758 238.078 98.1391 238.293C98.5024 238.508 98.8197 238.792 99.0729 239.13L104.231 245.996L117.48 226.156C117.714 225.805 118.015 225.504 118.366 225.269C118.716 225.035 119.11 224.872 119.524 224.789C119.938 224.706 120.364 224.706 120.778 224.788C121.193 224.869 121.587 225.032 121.938 225.266C122.289 225.499 122.591 225.8 122.826 226.15C123.061 226.5 123.224 226.893 123.307 227.307C123.39 227.72 123.39 228.146 123.308 228.559C123.226 228.973 123.064 229.366 122.829 229.717L107.06 253.331C106.775 253.759 106.392 254.111 105.942 254.36C105.492 254.608 104.989 254.745 104.475 254.76C104.445 254.76 104.415 254.761 104.385 254.761Z" fill="#008163"/>
<path d="M36.9175 198.315C35.887 197.893 34.9605 197.253 34.2021 196.439C33.4437 195.625 32.8715 194.656 32.5251 193.599C32.1787 192.542 32.0664 191.423 32.1958 190.319C32.3252 189.214 32.6934 188.151 33.2748 187.203L11.0586 156.025L18.1857 147.77L44.3011 184.993C45.8271 186.089 46.8974 187.706 47.3093 189.537C47.7212 191.368 47.446 193.286 46.5359 194.928C45.6258 196.57 44.144 197.822 42.3712 198.446C40.5985 199.07 38.658 199.023 36.9175 198.315Z" fill="#FFB6B6"/>
<path d="M37.428 99.5116C36.304 98.8513 34.9812 98.6127 33.6968 98.8384C32.4125 99.0642 31.2509 99.7395 30.4204 100.743L0.40332 142.655L28.2213 182.101L39.1066 170.428L22.1739 143.863L44.6776 122.472C46.5268 118.427 46.8093 113.842 45.4704 109.601C44.1315 105.361 41.2662 101.766 37.428 99.5116Z" fill="#008163"/>
</svg>
